<svg width="103" height="66" viewBox="0 0 103 66" fill="none" xmlns="http://www.w3.org/2000/svg">
<path d="M7.28 57.2493C5.49333 57.2493 4.13333 56.7693 3.2 55.8093C2.28 54.8493 1.78667 53.5226 1.72 51.8293C1.70667 51.4693 1.7 50.8826 1.7 50.0693C1.7 49.2426 1.70667 48.6426 1.72 48.2693C1.78667 46.5893 2.28667 45.2693 3.22 44.3093C4.15333 43.336 5.50667 42.8493 7.28 42.8493C8.46667 42.8493 9.47333 43.0626 10.3 43.4893C11.1267 43.9026 11.7533 44.4493 12.18 45.1293C12.6067 45.8093 12.84 46.536 12.88 47.3093V47.3493C12.88 47.456 12.8333 47.5493 12.74 47.6293C12.66 47.696 12.5667 47.7293 12.46 47.7293H11.36C11.0933 47.7293 10.9267 47.576 10.86 47.2693C10.6333 46.2693 10.2267 45.5693 9.64 45.1693C9.05333 44.756 8.26667 44.5493 7.28 44.5493C4.98667 44.5493 3.8 45.8226 3.72 48.3693C3.70667 48.7293 3.7 49.2826 3.7 50.0293C3.7 50.776 3.70667 51.3426 3.72 51.7293C3.8 54.276 4.98667 55.5493 7.28 55.5493C8.26667 55.5493 9.05333 55.3493 9.64 54.9493C10.24 54.536 10.6467 53.8293 10.86 52.8293C10.9 52.656 10.96 52.536 11.04 52.4693C11.12 52.4026 11.2267 52.3693 11.36 52.3693H12.46C12.58 52.3693 12.68 52.4093 12.76 52.4893C12.8533 52.556 12.8933 52.6493 12.88 52.7693C12.84 53.556 12.6067 54.2893 12.18 54.9693C11.7533 55.6493 11.1267 56.2026 10.3 56.6293C9.47333 57.0426 8.46667 57.2493 7.28 57.2493ZM19.1803 57.2493C17.9136 57.2493 16.9336 56.8426 16.2403 56.0293C15.547 55.2026 15.2003 54.1093 15.2003 52.7493V47.1093C15.2003 46.976 15.2403 46.8693 15.3203 46.7893C15.4136 46.696 15.527 46.6493 15.6603 46.6493H16.6603C16.7936 46.6493 16.9003 46.696 16.9803 46.7893C17.0736 46.8693 17.1203 46.976 17.1203 47.1093V52.6493C17.1203 54.636 17.987 55.6293 19.7203 55.6293C20.5603 55.6293 21.227 55.3693 21.7203 54.8493C22.2136 54.316 22.4603 53.5826 22.4603 52.6493V47.1093C22.4603 46.976 22.5003 46.8693 22.5803 46.7893C22.6736 46.696 22.787 46.6493 22.9203 46.6493H23.9203C24.0536 46.6493 24.1603 46.696 24.2403 46.7893C24.3203 46.8693 24.3603 46.976 24.3603 47.1093V56.5893C24.3603 56.7226 24.3203 56.836 24.2403 56.9293C24.1603 57.0093 24.0536 57.0493 23.9203 57.0493H22.9803C22.847 57.0493 22.7336 57.0093 22.6403 56.9293C22.5603 56.836 22.5203 56.7226 22.5203 56.5893V55.7093C22.147 56.216 21.6936 56.6026 21.1603 56.8693C20.627 57.1226 19.967 57.2493 19.1803 57.2493ZM30.9316 57.2493C29.9982 57.2493 29.2116 57.1026 28.5716 56.8093C27.9449 56.5026 27.4716 56.156 27.1516 55.7693C26.8449 55.3826 26.6916 55.0626 26.6916 54.8093C26.6916 54.676 26.7382 54.576 26.8316 54.5093C26.9382 54.4293 27.0449 54.3893 27.1516 54.3893H28.0516C28.1849 54.3893 28.3049 54.456 28.4116 54.5893C28.7316 54.9626 29.0782 55.256 29.4516 55.4693C29.8249 55.6826 30.3249 55.7893 30.9516 55.7893C31.6449 55.7893 32.2049 55.656 32.6316 55.3893C33.0716 55.1093 33.2916 54.7293 33.2916 54.2493C33.2916 53.9293 33.1982 53.6693 33.0116 53.4693C32.8382 53.256 32.5316 53.076 32.0916 52.9293C31.6649 52.7693 31.0249 52.596 30.1716 52.4093C29.0116 52.156 28.1849 51.7893 27.6916 51.3093C27.2116 50.8293 26.9716 50.2093 26.9716 49.4493C26.9716 48.9426 27.1182 48.4626 27.4116 48.0093C27.7182 47.5426 28.1582 47.1693 28.7316 46.8893C29.3182 46.596 30.0182 46.4493 30.8316 46.4493C31.6849 46.4493 32.4116 46.5893 33.0116 46.8693C33.6116 47.1493 34.0582 47.4826 34.3516 47.8693C34.6582 48.2426 34.8116 48.556 34.8116 48.8093C34.8116 48.9293 34.7649 49.0293 34.6716 49.1093C34.5916 49.1893 34.4916 49.2293 34.3716 49.2293H33.5316C33.3716 49.2293 33.2382 49.1626 33.1316 49.0293C32.9182 48.776 32.7316 48.5826 32.5716 48.4493C32.4249 48.3026 32.2049 48.176 31.9116 48.0693C31.6316 47.9626 31.2716 47.9093 30.8316 47.9093C30.1916 47.9093 29.6982 48.0493 29.3516 48.3293C29.0049 48.596 28.8316 48.9493 28.8316 49.3893C28.8316 49.6693 28.9049 49.9093 29.0516 50.1093C29.1982 50.296 29.4782 50.4693 29.8916 50.6293C30.3182 50.7893 30.9316 50.956 31.7316 51.1293C32.9982 51.396 33.8916 51.7826 34.4116 52.2893C34.9449 52.7826 35.2116 53.416 35.2116 54.1893C35.2116 54.7626 35.0449 55.2826 34.7116 55.7493C34.3782 56.216 33.8849 56.5826 33.2316 56.8493C32.5916 57.116 31.8249 57.2493 30.9316 57.2493ZM41.5673 57.0493C39.4607 57.0493 38.4073 55.876 38.4073 53.5293V48.2493H36.8473C36.714 48.2493 36.6007 48.2093 36.5073 48.1293C36.4273 48.036 36.3873 47.9226 36.3873 47.7893V47.1093C36.3873 46.976 36.4273 46.8693 36.5073 46.7893C36.6007 46.696 36.714 46.6493 36.8473 46.6493H38.4073V43.3093C38.4073 43.176 38.4473 43.0693 38.5273 42.9893C38.6207 42.896 38.734 42.8493 38.8673 42.8493H39.8073C39.9407 42.8493 40.0473 42.896 40.1273 42.9893C40.2207 43.0693 40.2673 43.176 40.2673 43.3093V46.6493H42.7473C42.8807 46.6493 42.9873 46.696 43.0673 46.7893C43.1607 46.8693 43.2073 46.976 43.2073 47.1093V47.7893C43.2073 47.9226 43.1607 48.036 43.0673 48.1293C42.9873 48.2093 42.8807 48.2493 42.7473 48.2493H40.2673V53.3893C40.2673 54.056 40.3807 54.5626 40.6073 54.9093C40.834 55.2426 41.2073 55.4093 41.7273 55.4093H42.9473C43.0807 55.4093 43.1873 55.456 43.2673 55.5493C43.3607 55.6293 43.4073 55.736 43.4073 55.8693V56.5893C43.4073 56.7226 43.3607 56.836 43.2673 56.9293C43.1873 57.0093 43.0807 57.0493 42.9473 57.0493H41.5673ZM49.5798 57.2493C48.1132 57.2493 46.9732 56.836 46.1598 56.0093C45.3598 55.1826 44.9332 54.0826 44.8798 52.7093L44.8598 51.8493L44.8798 50.9893C44.9332 49.6293 45.3665 48.536 46.1798 47.7093C46.9932 46.8693 48.1265 46.4493 49.5798 46.4493C51.0332 46.4493 52.1665 46.8693 52.9798 47.7093C53.7932 48.536 54.2265 49.6293 54.2798 50.9893C54.2932 51.136 54.2998 51.4226 54.2998 51.8493C54.2998 52.276 54.2932 52.5626 54.2798 52.7093C54.2265 54.0826 53.7932 55.1826 52.9798 56.0093C52.1798 56.836 51.0465 57.2493 49.5798 57.2493ZM49.5798 55.7093C50.4198 55.7093 51.0798 55.4426 51.5598 54.9093C52.0532 54.376 52.3198 53.6093 52.3598 52.6093C52.3732 52.476 52.3798 52.2226 52.3798 51.8493C52.3798 51.476 52.3732 51.2226 52.3598 51.0893C52.3198 50.0893 52.0532 49.3226 51.5598 48.7893C51.0798 48.256 50.4198 47.9893 49.5798 47.9893C48.7398 47.9893 48.0732 48.256 47.5798 48.7893C47.0865 49.3226 46.8265 50.0893 46.7998 51.0893L46.7798 51.8493L46.7998 52.6093C46.8265 53.6093 47.0865 54.376 47.5798 54.9093C48.0732 55.4426 48.7398 55.7093 49.5798 55.7093ZM57.2642 57.0493C57.1309 57.0493 57.0176 57.0093 56.9242 56.9293C56.8442 56.836 56.8042 56.7226 56.8042 56.5893V47.1093C56.8042 46.976 56.8442 46.8693 56.9242 46.7893C57.0176 46.696 57.1309 46.6493 57.2642 46.6493H58.1642C58.2976 46.6493 58.4042 46.696 58.4842 46.7893C58.5776 46.8693 58.6242 46.976 58.6242 47.1093V47.8093C59.3176 46.9026 60.2842 46.4493 61.5242 46.4493C63.0042 46.4493 64.0509 47.0626 64.6642 48.2893C64.9842 47.7293 65.4376 47.2826 66.0242 46.9493C66.6109 46.616 67.2709 46.4493 68.0042 46.4493C69.0976 46.4493 69.9909 46.8226 70.6842 47.5693C71.3776 48.316 71.7242 49.396 71.7242 50.8093V56.5893C71.7242 56.7226 71.6776 56.836 71.5842 56.9293C71.5042 57.0093 71.3976 57.0493 71.2642 57.0493H70.3242C70.1909 57.0493 70.0776 57.0093 69.9842 56.9293C69.9042 56.836 69.8642 56.7226 69.8642 56.5893V50.9893C69.8642 49.9493 69.6442 49.2026 69.2042 48.7493C68.7776 48.296 68.2109 48.0693 67.5042 48.0693C66.8776 48.0693 66.3376 48.3026 65.8842 48.7693C65.4309 49.2226 65.2042 49.9626 65.2042 50.9893V56.5893C65.2042 56.7226 65.1576 56.836 65.0642 56.9293C64.9842 57.0093 64.8776 57.0493 64.7442 57.0493H63.8042C63.6709 57.0493 63.5576 57.0093 63.4642 56.9293C63.3842 56.836 63.3442 56.7226 63.3442 56.5893V50.9893C63.3442 49.9493 63.1176 49.2026 62.6642 48.7493C62.2242 48.296 61.6642 48.0693 60.9842 48.0693C60.3576 48.0693 59.8176 48.3026 59.3642 48.7693C58.9109 49.2226 58.6842 49.956 58.6842 50.9693V56.5893C58.6842 56.7226 58.6376 56.836 58.5442 56.9293C58.4642 57.0093 58.3576 57.0493 58.2242 57.0493H57.2642ZM78.7377 57.2493C77.3643 57.2493 76.2643 56.8293 75.4377 55.9893C74.6243 55.136 74.1777 53.976 74.0977 52.5093L74.0777 51.8293L74.0977 51.1693C74.191 49.7293 74.6443 48.5826 75.4577 47.7293C76.2843 46.876 77.371 46.4493 78.7177 46.4493C80.1977 46.4493 81.3443 46.9226 82.1577 47.8693C82.971 48.8026 83.3777 50.0693 83.3777 51.6693V52.0093C83.3777 52.1426 83.331 52.256 83.2377 52.3493C83.1577 52.4293 83.051 52.4693 82.9177 52.4693H75.9977V52.6493C76.0377 53.516 76.2977 54.256 76.7777 54.8693C77.271 55.4693 77.9177 55.7693 78.7177 55.7693C79.331 55.7693 79.831 55.6493 80.2177 55.4093C80.6177 55.156 80.911 54.896 81.0977 54.6293C81.2177 54.4693 81.3043 54.376 81.3577 54.3493C81.4243 54.3093 81.5377 54.2893 81.6977 54.2893H82.6777C82.7977 54.2893 82.8977 54.3226 82.9777 54.3893C83.0577 54.456 83.0977 54.5493 83.0977 54.6693C83.0977 54.9626 82.911 55.316 82.5377 55.7293C82.1777 56.1426 81.6643 56.5026 80.9977 56.8093C80.3443 57.1026 79.591 57.2493 78.7377 57.2493ZM81.4777 51.0893V51.0293C81.4777 50.1093 81.2243 49.3626 80.7177 48.7893C80.2243 48.2026 79.5577 47.9093 78.7177 47.9093C77.8777 47.9093 77.211 48.2026 76.7177 48.7893C76.2377 49.3626 75.9977 50.1093 75.9977 51.0293V51.0893H81.4777ZM86.2291 57.0493C86.0957 57.0493 85.9824 57.0093 85.8891 56.9293C85.8091 56.836 85.7691 56.7226 85.7691 56.5893V47.1293C85.7691 46.996 85.8091 46.8826 85.8891 46.7893C85.9824 46.696 86.0957 46.6493 86.2291 46.6493H87.1491C87.2824 46.6493 87.3957 46.696 87.4891 46.7893C87.5824 46.8826 87.6291 46.996 87.6291 47.1293V48.0093C88.1757 47.1026 89.1091 46.6493 90.4291 46.6493H91.2091C91.3424 46.6493 91.4491 46.696 91.5291 46.7893C91.6224 46.8693 91.6691 46.976 91.6691 47.1093V47.9293C91.6691 48.0626 91.6224 48.1693 91.5291 48.2493C91.4491 48.3293 91.3424 48.3693 91.2091 48.3693H90.0091C89.2891 48.3693 88.7224 48.5826 88.3091 49.0093C87.8957 49.4226 87.6891 49.9893 87.6891 50.7093V56.5893C87.6891 56.7226 87.6424 56.836 87.5491 56.9293C87.4557 57.0093 87.3424 57.0493 87.2091 57.0493H86.2291ZM96.9667 57.2493C96.0334 57.2493 95.2467 57.1026 94.6067 56.8093C93.9801 56.5026 93.5067 56.156 93.1867 55.7693C92.8801 55.3826 92.7267 55.0626 92.7267 54.8093C92.7267 54.676 92.7734 54.576 92.8667 54.5093C92.9734 54.4293 93.0801 54.3893 93.1867 54.3893H94.0867C94.2201 54.3893 94.3401 54.456 94.4467 54.5893C94.7667 54.9626 95.1134 55.256 95.4867 55.4693C95.8601 55.6826 96.3601 55.7893 96.9867 55.7893C97.6801 55.7893 98.2401 55.656 98.6667 55.3893C99.1067 55.1093 99.3267 54.7293 99.3267 54.2493C99.3267 53.9293 99.2334 53.6693 99.0467 53.4693C98.8734 53.256 98.5667 53.076 98.1267 52.9293C97.7001 52.7693 97.0601 52.596 96.2067 52.4093C95.0467 52.156 94.2201 51.7893 93.7267 51.3093C93.2467 50.8293 93.0067 50.2093 93.0067 49.4493C93.0067 48.9426 93.1534 48.4626 93.4467 48.0093C93.7534 47.5426 94.1934 47.1693 94.7667 46.8893C95.3534 46.596 96.0534 46.4493 96.8667 46.4493C97.7201 46.4493 98.4467 46.5893 99.0467 46.8693C99.6467 47.1493 100.093 47.4826 100.387 47.8693C100.693 48.2426 100.847 48.556 100.847 48.8093C100.847 48.9293 100.8 49.0293 100.707 49.1093C100.627 49.1893 100.527 49.2293 100.407 49.2293H99.5667C99.4067 49.2293 99.2734 49.1626 99.1667 49.0293C98.9534 48.776 98.7667 48.5826 98.6067 48.4493C98.4601 48.3026 98.2401 48.176 97.9467 48.0693C97.6667 47.9626 97.3067 47.9093 96.8667 47.9093C96.2267 47.9093 95.7334 48.0493 95.3867 48.3293C95.0401 48.596 94.8667 48.9493 94.8667 49.3893C94.8667 49.6693 94.9401 49.9093 95.0867 50.1093C95.2334 50.296 95.5134 50.4693 95.9267 50.6293C96.3534 50.7893 96.9667 50.956 97.7667 51.1293C99.0334 51.396 99.9267 51.7826 100.447 52.2893C100.98 52.7826 101.247 53.416 101.247 54.1893C101.247 54.7626 101.08 55.2826 100.747 55.7493C100.413 56.216 99.9201 56.5826 99.2667 56.8493C98.6267 57.116 97.8601 57.2493 96.9667 57.2493Z" fill="#4F5665"/>
<path d="M8.95 24.2993C7.35 24.2993 6 24.0576 4.9 23.5743C3.8 23.091 2.975 22.4326 2.425 21.5993C1.89167 20.766 1.625 19.8326 1.625 18.7993C1.625 17.916 1.84167 17.1243 2.275 16.4243C2.725 15.7076 3.31667 15.1493 4.05 14.7493C3.46667 14.366 3.01667 13.8826 2.7 13.2993C2.4 12.716 2.25 12.0493 2.25 11.2993C2.25 10.3493 2.49167 9.49932 2.975 8.74932C3.475 7.98265 4.225 7.38265 5.225 6.94932C6.225 6.51598 7.46667 6.29932 8.95 6.29932C11.1333 6.29932 12.7833 6.75765 13.9 7.67432C15.0333 8.59098 15.6 9.79098 15.6 11.2743C15.6 12.791 15.0167 13.9493 13.85 14.7493C14.6 15.116 15.1917 15.6576 15.625 16.3743C16.075 17.091 16.3 17.9076 16.3 18.8243C16.3 19.8576 16.025 20.791 15.475 21.6243C14.925 22.441 14.0917 23.091 12.975 23.5743C11.875 24.0576 10.5333 24.2993 8.95 24.2993ZM8.95 13.4993C9.68333 13.4826 10.2833 13.291 10.75 12.9243C11.2167 12.5576 11.45 12.0826 11.45 11.4993C11.45 10.8993 11.2167 10.416 10.75 10.0493C10.2833 9.68265 9.68333 9.49932 8.95 9.49932C8.21667 9.49932 7.61667 9.68265 7.15 10.0493C6.68333 10.416 6.45 10.8993 6.45 11.4993C6.45 12.0993 6.68333 12.5826 7.15 12.9493C7.61667 13.316 8.21667 13.4993 8.95 13.4993ZM8.95 21.0993C9.76667 21.0993 10.4417 20.891 10.975 20.4743C11.5083 20.0576 11.775 19.4993 11.775 18.7993C11.775 18.0993 11.5083 17.5493 10.975 17.1493C10.4417 16.7326 9.76667 16.5243 8.95 16.5243C8.13333 16.5243 7.45 16.7326 6.9 17.1493C6.36667 17.5493 6.1 18.0993 6.1 18.7993C6.1 19.4993 6.36667 20.0576 6.9 20.4743C7.45 20.891 8.13333 21.0993 8.95 21.0993ZM25.8939 24.2993C23.5939 24.2826 21.8523 23.6743 20.6689 22.4743C19.4856 21.2576 18.8439 19.666 18.7439 17.6993C18.7106 16.7993 18.6939 15.9993 18.6939 15.2993C18.6939 14.5826 18.7106 13.7576 18.7439 12.8243C18.8106 11.5743 19.1106 10.466 19.6439 9.49932C20.1939 8.51598 20.9939 7.74098 22.0439 7.17432C23.0939 6.59098 24.3773 6.29932 25.8939 6.29932C28.1439 6.31598 29.8773 6.92432 31.0939 8.12432C32.3106 9.32432 32.9689 10.891 33.0689 12.8243C33.1023 13.7576 33.1189 14.5826 33.1189 15.2993C33.1189 15.9993 33.1023 16.7993 33.0689 17.6993C32.9523 19.666 32.3023 21.2576 31.1189 22.4743C29.9356 23.6743 28.1939 24.2826 25.8939 24.2993ZM25.8939 20.6743C26.7106 20.6743 27.3189 20.4076 27.7189 19.8743C28.1356 19.3243 28.3606 18.5576 28.3939 17.5743C28.4273 17.091 28.4439 16.316 28.4439 15.2493C28.4439 14.1826 28.4273 13.4243 28.3939 12.9743C28.3606 12.0243 28.1439 11.2743 27.7439 10.7243C27.3439 10.1743 26.7273 9.89098 25.8939 9.87432C25.0773 9.89098 24.4606 10.1743 24.0439 10.7243C23.6439 11.2743 23.4273 12.0243 23.3939 12.9743C23.3773 13.4243 23.3689 14.1826 23.3689 15.2493C23.3689 16.316 23.3773 17.091 23.3939 17.5743C23.4773 19.641 24.3106 20.6743 25.8939 20.6743ZM42.8861 24.2993C40.5861 24.2826 38.8445 23.6743 37.6611 22.4743C36.4778 21.2576 35.8361 19.666 35.7361 17.6993C35.7028 16.7993 35.6861 15.9993 35.6861 15.2993C35.6861 14.5826 35.7028 13.7576 35.7361 12.8243C35.8028 11.5743 36.1028 10.466 36.6361 9.49932C37.1861 8.51598 37.9861 7.74098 39.0361 7.17432C40.0861 6.59098 41.3695 6.29932 42.8861 6.29932C45.1361 6.31598 46.8695 6.92432 48.0861 8.12432C49.3028 9.32432 49.9611 10.891 50.0611 12.8243C50.0945 13.7576 50.1111 14.5826 50.1111 15.2993C50.1111 15.9993 50.0945 16.7993 50.0611 17.6993C49.9445 19.666 49.2945 21.2576 48.1111 22.4743C46.9278 23.6743 45.1861 24.2826 42.8861 24.2993ZM42.8861 20.6743C43.7028 20.6743 44.3111 20.4076 44.7111 19.8743C45.1278 19.3243 45.3528 18.5576 45.3861 17.5743C45.4195 17.091 45.4361 16.316 45.4361 15.2493C45.4361 14.1826 45.4195 13.4243 45.3861 12.9743C45.3528 12.0243 45.1361 11.2743 44.7361 10.7243C44.3361 10.1743 43.7195 9.89098 42.8861 9.87432C42.0695 9.89098 41.4528 10.1743 41.0361 10.7243C40.6361 11.2743 40.4195 12.0243 40.3861 12.9743C40.3695 13.4243 40.3611 14.1826 40.3611 15.2493C40.3611 16.316 40.3695 17.091 40.3861 17.5743C40.4695 19.641 41.3028 20.6743 42.8861 20.6743ZM57.9783 23.2243C57.8117 23.2243 57.6617 23.166 57.5283 23.0493C57.4117 22.916 57.3533 22.766 57.3533 22.5993V18.0243H52.9033C52.72 18.0243 52.5617 17.966 52.4283 17.8493C52.3117 17.7326 52.2533 17.5826 52.2533 17.3993V15.5743C52.2533 15.391 52.3117 15.241 52.4283 15.1243C52.5617 14.991 52.72 14.9243 52.9033 14.9243H57.3533V10.4993C57.3533 10.316 57.4117 10.166 57.5283 10.0493C57.6617 9.93265 57.8117 9.87432 57.9783 9.87432H60.0283C60.2117 9.87432 60.3617 9.93265 60.4783 10.0493C60.595 10.166 60.6533 10.316 60.6533 10.4993V14.9243H65.0783C65.2617 14.9243 65.4117 14.991 65.5283 15.1243C65.645 15.241 65.7033 15.391 65.7033 15.5743V17.3993C65.7033 17.5826 65.645 17.7326 65.5283 17.8493C65.4117 17.966 65.2617 18.0243 65.0783 18.0243H60.6533V22.5993C60.6533 22.766 60.595 22.916 60.4783 23.0493C60.3617 23.166 60.2117 23.2243 60.0283 23.2243H57.9783Z" fill="#0B132A"/>
</svg>
