<svg width="55" height="56" viewBox="0 0 55 56" fill="none" xmlns="http://www.w3.org/2000/svg">
<rect y="0.0493164" width="55" height="55" rx="27.5" fill="#FFBA33"/>
<path fill-rule="evenodd" clip-rule="evenodd" d="M28 26.8C28.9548 26.8 29.8704 26.4207 30.5456 25.7456C31.2207 25.0704 31.6 24.1548 31.6 23.2C31.6 22.2452 31.2207 21.3295 30.5456 20.6544C29.8704 19.9793 28.9548 19.6 28 19.6C27.0452 19.6 26.1295 19.9793 25.4544 20.6544C24.7793 21.3295 24.4 22.2452 24.4 23.2C24.4 24.1548 24.7793 25.0704 25.4544 25.7456C26.1295 26.4207 27.0452 26.8 28 26.8ZM22.8986 37.6C21.0768 37.6 19.5422 36.0686 20.2394 34.3854C20.6615 33.3663 21.2803 32.4403 22.0603 31.6603C22.8403 30.8803 23.7663 30.2615 24.7854 29.8394C25.8046 29.4172 26.8969 29.2 28 29.2C29.1031 29.2 30.1954 29.4172 31.2145 29.8394C32.2337 30.2615 33.1597 30.8803 33.9397 31.6603C34.7197 32.4403 35.3384 33.3663 35.7606 34.3854C36.4577 36.0686 34.9231 37.6 33.1013 37.6H22.8986Z" fill="#6A4029"/>
</svg>
