<svg width="132" height="19" viewBox="0 0 132 19" fill="none" xmlns="http://www.w3.org/2000/svg">
<path d="M0.996777 18.5496C0.830111 18.5496 0.688444 18.4912 0.571777 18.3746C0.455111 18.2579 0.396777 18.1162 0.396777 17.9496V1.64956C0.396777 1.46623 0.455111 1.32456 0.571777 1.22456C0.688444 1.10789 0.830111 1.04956 0.996777 1.04956H3.34678C3.53011 1.04956 3.67178 1.10789 3.77178 1.22456C3.88844 1.32456 3.94678 1.46623 3.94678 1.64956V17.9496C3.94678 18.1162 3.88844 18.2579 3.77178 18.3746C3.67178 18.4912 3.53011 18.5496 3.34678 18.5496H0.996777ZM8.46748 18.5496C8.30081 18.5496 8.15915 18.4912 8.04248 18.3746C7.92581 18.2579 7.86748 18.1162 7.86748 17.9496V1.67456C7.86748 1.49123 7.91748 1.34123 8.01748 1.22456C8.13415 1.10789 8.28415 1.04956 8.46748 1.04956H14.5675C19.4675 1.04956 21.9675 3.31623 22.0675 7.84956C22.1008 8.81623 22.1175 9.46623 22.1175 9.79956C22.1175 10.1162 22.1008 10.7579 22.0675 11.7246C22.0008 14.0579 21.3758 15.7829 20.1925 16.8996C19.0091 17.9996 17.1758 18.5496 14.6925 18.5496H8.46748ZM14.5675 15.6746C15.9675 15.6746 16.9758 15.3662 17.5925 14.7496C18.2091 14.1162 18.5341 13.0829 18.5675 11.6496C18.6008 10.6496 18.6175 10.0246 18.6175 9.77456C18.6175 9.50789 18.6008 8.89123 18.5675 7.92456C18.5341 6.55789 18.1841 5.54956 17.5175 4.89956C16.8675 4.24956 15.8425 3.92456 14.4425 3.92456H11.3425V15.6746H14.5675ZM26.0456 18.5496C25.8789 18.5496 25.7373 18.4912 25.6206 18.3746C25.5039 18.2579 25.4456 18.1162 25.4456 17.9496V1.67456C25.4456 1.49123 25.4956 1.34123 25.5956 1.22456C25.7123 1.10789 25.8623 1.04956 26.0456 1.04956H32.5206C34.5539 1.04956 36.1456 1.52456 37.2956 2.47456C38.4623 3.42456 39.0456 4.77456 39.0456 6.52456C39.0456 7.74123 38.7456 8.76623 38.1456 9.59956C37.5623 10.4162 36.7456 11.0079 35.6956 11.3746L39.3456 17.7496C39.3956 17.8496 39.4206 17.9412 39.4206 18.0246C39.4206 18.1746 39.3623 18.2996 39.2456 18.3996C39.1456 18.4996 39.0289 18.5496 38.8956 18.5496H36.6206C36.3539 18.5496 36.1456 18.4912 35.9956 18.3746C35.8623 18.2579 35.7373 18.0912 35.6206 17.8746L32.3956 11.9496H28.9206V17.9496C28.9206 18.1162 28.8623 18.2579 28.7456 18.3746C28.6456 18.4912 28.5039 18.5496 28.3206 18.5496H26.0456ZM32.4456 9.12456C33.4456 9.12456 34.1956 8.89956 34.6956 8.44956C35.2123 7.99956 35.4706 7.34956 35.4706 6.49956C35.4706 5.64956 35.2123 4.99123 34.6956 4.52456C34.1956 4.05789 33.4456 3.82456 32.4456 3.82456H28.9206V9.12456H32.4456ZM47.7548 18.5496C47.5881 18.5496 47.4465 18.4912 47.3298 18.3746C47.2131 18.2579 47.1548 18.1162 47.1548 17.9496V16.6746C47.1548 16.2246 47.3631 15.8329 47.7798 15.4996L51.7298 11.5746C53.4465 10.2246 54.6381 9.17456 55.3048 8.42456C55.9881 7.65789 56.3298 6.90789 56.3298 6.17456C56.3298 5.39123 56.1131 4.77456 55.6798 4.32456C55.2631 3.87456 54.6298 3.64956 53.7798 3.64956C52.9465 3.64956 52.2881 3.89956 51.8048 4.39956C51.3215 4.88289 51.0215 5.51623 50.9048 6.29956C50.8548 6.49956 50.7631 6.64956 50.6298 6.74956C50.4965 6.83289 50.3465 6.87456 50.1798 6.87456H47.9548C47.8048 6.87456 47.6798 6.82456 47.5798 6.72456C47.4798 6.62456 47.4298 6.50789 47.4298 6.37456C47.4631 5.39123 47.7298 4.47456 48.2298 3.62456C48.7298 2.75789 49.4548 2.06623 50.4048 1.54956C51.3548 1.01623 52.4715 0.74956 53.7548 0.74956C55.0881 0.74956 56.2131 0.982894 57.1298 1.44956C58.0631 1.89956 58.7631 2.52456 59.2298 3.32456C59.6965 4.12456 59.9298 5.03289 59.9298 6.04956C59.9298 7.16623 59.6131 8.17456 58.9798 9.07456C58.3631 9.97456 57.4131 10.9412 56.1298 11.9746L52.5798 15.5746H59.7048C59.8881 15.5746 60.0298 15.6329 60.1298 15.7496C60.2465 15.8496 60.3048 15.9912 60.3048 16.1746V17.9496C60.3048 18.1162 60.2465 18.2579 60.1298 18.3746C60.0298 18.4912 59.8881 18.5496 59.7048 18.5496H47.7548ZM69.1583 18.8246C67.775 18.8246 66.5833 18.5912 65.5833 18.1246C64.6 17.6579 63.8416 17.0412 63.3083 16.2746C62.7916 15.5079 62.5166 14.6829 62.4833 13.7996V13.7496C62.4833 13.6162 62.5333 13.5079 62.6333 13.4246C62.7333 13.3412 62.8583 13.2996 63.0083 13.2996H65.3333C65.7166 13.2996 65.9666 13.4662 66.0833 13.7996C66.3166 14.5329 66.7 15.0746 67.2333 15.4246C67.7833 15.7746 68.425 15.9496 69.1583 15.9496C70.0916 15.9496 70.8666 15.6662 71.4833 15.0996C72.1166 14.5329 72.4333 13.7412 72.4333 12.7246C72.4333 11.8246 72.1166 11.0912 71.4833 10.5246C70.8666 9.95789 70.0916 9.67456 69.1583 9.67456C68.6583 9.67456 68.25 9.74123 67.9333 9.87456C67.6166 10.0079 67.3083 10.1912 67.0083 10.4246C66.8083 10.5746 66.65 10.6829 66.5333 10.7496C66.4333 10.7996 66.3083 10.8246 66.1583 10.8246H63.8583C63.7083 10.8246 63.575 10.7746 63.4583 10.6746C63.3583 10.5579 63.3083 10.4246 63.3083 10.2746L64.1833 1.72456C64.2 1.52456 64.2666 1.36623 64.3833 1.24956C64.5166 1.11623 64.6833 1.04956 64.8833 1.04956H74.2833C74.45 1.04956 74.5916 1.10789 74.7083 1.22456C74.825 1.34123 74.8833 1.48289 74.8833 1.64956V3.32456C74.8833 3.49123 74.825 3.63289 74.7083 3.74956C74.5916 3.86623 74.45 3.92456 74.2833 3.92456H67.0583L66.6583 7.99956C67.475 7.43289 68.5666 7.14956 69.9333 7.14956C71.0166 7.14956 72.0166 7.38289 72.9333 7.84956C73.8666 8.29956 74.6083 8.95789 75.1583 9.82456C75.7083 10.6746 75.9833 11.6662 75.9833 12.7996C75.9833 14.0162 75.7 15.0829 75.1333 15.9996C74.5666 16.8996 73.7666 17.5996 72.7333 18.0996C71.7166 18.5829 70.525 18.8246 69.1583 18.8246ZM78.9403 18.5496C78.7737 18.5496 78.632 18.4912 78.5153 18.3746C78.3987 18.2579 78.3403 18.1162 78.3403 17.9496V15.4746C78.3403 15.3079 78.3987 15.1662 78.5153 15.0496C78.632 14.9162 78.7737 14.8496 78.9403 14.8496H81.4403C81.607 14.8496 81.7487 14.9162 81.8653 15.0496C81.982 15.1662 82.0403 15.3079 82.0403 15.4746V17.9496C82.0403 18.1162 81.982 18.2579 81.8653 18.3746C81.7487 18.4912 81.607 18.5496 81.4403 18.5496H78.9403ZM91.4612 18.7996C89.2446 18.7996 87.5862 18.1829 86.4862 16.9496C85.4029 15.7162 84.8112 14.0996 84.7112 12.0996C84.6946 11.6496 84.6862 10.8829 84.6862 9.79956C84.6862 8.69956 84.6946 7.91623 84.7112 7.44956C84.7946 5.48289 85.3946 3.88289 86.5112 2.64956C87.6279 1.41623 89.2779 0.79956 91.4612 0.79956C93.6612 0.79956 95.3196 1.41623 96.4362 2.64956C97.5529 3.88289 98.1446 5.48289 98.2112 7.44956C98.2446 7.91623 98.2612 8.69956 98.2612 9.79956C98.2612 10.8829 98.2446 11.6496 98.2112 12.0996C98.1279 14.0996 97.5362 15.7162 96.4362 16.9496C95.3529 18.1829 93.6946 18.7996 91.4612 18.7996ZM91.4612 15.9246C92.5112 15.9246 93.2946 15.5829 93.8112 14.8996C94.3279 14.1996 94.6029 13.2246 94.6362 11.9746C94.6696 11.0079 94.6862 10.2746 94.6862 9.77456C94.6862 9.22456 94.6696 8.49956 94.6362 7.59956C94.6029 6.36623 94.3279 5.39956 93.8112 4.69956C93.2946 3.99956 92.5112 3.64956 91.4612 3.64956C90.4279 3.64956 89.6446 3.99956 89.1112 4.69956C88.5946 5.39956 88.3196 6.36623 88.2862 7.59956C88.2696 8.04956 88.2612 8.77456 88.2612 9.77456C88.2612 10.7579 88.2696 11.4912 88.2862 11.9746C88.3196 13.2246 88.5946 14.1996 89.1112 14.8996C89.6446 15.5829 90.4279 15.9246 91.4612 15.9246ZM107.892 18.7996C105.675 18.7996 104.017 18.1829 102.917 16.9496C101.834 15.7162 101.242 14.0996 101.142 12.0996C101.125 11.6496 101.117 10.8829 101.117 9.79956C101.117 8.69956 101.125 7.91623 101.142 7.44956C101.225 5.48289 101.825 3.88289 102.942 2.64956C104.059 1.41623 105.709 0.79956 107.892 0.79956C110.092 0.79956 111.75 1.41623 112.867 2.64956C113.984 3.88289 114.575 5.48289 114.642 7.44956C114.675 7.91623 114.692 8.69956 114.692 9.79956C114.692 10.8829 114.675 11.6496 114.642 12.0996C114.559 14.0996 113.967 15.7162 112.867 16.9496C111.784 18.1829 110.125 18.7996 107.892 18.7996ZM107.892 15.9246C108.942 15.9246 109.725 15.5829 110.242 14.8996C110.759 14.1996 111.034 13.2246 111.067 11.9746C111.1 11.0079 111.117 10.2746 111.117 9.77456C111.117 9.22456 111.1 8.49956 111.067 7.59956C111.034 6.36623 110.759 5.39956 110.242 4.69956C109.725 3.99956 108.942 3.64956 107.892 3.64956C106.859 3.64956 106.075 3.99956 105.542 4.69956C105.025 5.39956 104.75 6.36623 104.717 7.59956C104.7 8.04956 104.692 8.77456 104.692 9.77456C104.692 10.7579 104.7 11.4912 104.717 11.9746C104.75 13.2246 105.025 14.1996 105.542 14.8996C106.075 15.5829 106.859 15.9246 107.892 15.9246ZM124.323 18.7996C122.106 18.7996 120.448 18.1829 119.348 16.9496C118.264 15.7162 117.673 14.0996 117.573 12.0996C117.556 11.6496 117.548 10.8829 117.548 9.79956C117.548 8.69956 117.556 7.91623 117.573 7.44956C117.656 5.48289 118.256 3.88289 119.373 2.64956C120.489 1.41623 122.139 0.79956 124.323 0.79956C126.523 0.79956 128.181 1.41623 129.298 2.64956C130.414 3.88289 131.006 5.48289 131.073 7.44956C131.106 7.91623 131.123 8.69956 131.123 9.79956C131.123 10.8829 131.106 11.6496 131.073 12.0996C130.989 14.0996 130.398 15.7162 129.298 16.9496C128.214 18.1829 126.556 18.7996 124.323 18.7996ZM124.323 15.9246C125.373 15.9246 126.156 15.5829 126.673 14.8996C127.189 14.1996 127.464 13.2246 127.498 11.9746C127.531 11.0079 127.548 10.2746 127.548 9.77456C127.548 9.22456 127.531 8.49956 127.498 7.59956C127.464 6.36623 127.189 5.39956 126.673 4.69956C126.156 3.99956 125.373 3.64956 124.323 3.64956C123.289 3.64956 122.506 3.99956 121.973 4.69956C121.456 5.39956 121.181 6.36623 121.148 7.59956C121.131 8.04956 121.123 8.77456 121.123 9.77456C121.123 10.7579 121.131 11.4912 121.148 11.9746C121.181 13.2246 121.456 14.1996 121.973 14.8996C122.506 15.5829 123.289 15.9246 124.323 15.9246Z" fill="#0B132A"/>
</svg>
