<svg width="197" height="151" viewBox="0 0 197 151" fill="none" xmlns="http://www.w3.org/2000/svg">
<path d="M48.0017 60.5496C47.759 60.5496 47.6144 60.4236 47.5677 60.1716L45.7617 51.1836C45.7524 51.1369 45.7477 51.0856 45.7477 51.0296C45.7477 50.9549 45.7757 50.8896 45.8317 50.8336C45.8877 50.7776 45.953 50.7496 46.0277 50.7496H46.7557C46.9517 50.7496 47.0637 50.8289 47.0917 50.9876L48.5197 58.2116L50.0317 53.2556C50.1157 53.0316 50.265 52.9196 50.4797 52.9196H50.9977C51.119 52.9196 51.2124 52.9522 51.2777 53.0176C51.3524 53.0829 51.4037 53.1622 51.4317 53.2556L52.9577 58.2116L54.3717 50.9876C54.3997 50.8289 54.5164 50.7496 54.7217 50.7496H55.4497C55.5244 50.7496 55.5897 50.7776 55.6457 50.8336C55.7017 50.8896 55.7297 50.9549 55.7297 51.0296L55.7157 51.1836L53.9097 60.1716C53.8537 60.4236 53.709 60.5496 53.4757 60.5496H52.9297C52.687 60.5496 52.533 60.4329 52.4677 60.1996L50.7317 54.8656L49.0097 60.1996C48.935 60.4329 48.781 60.5496 48.5477 60.5496H48.0017ZM59.0942 60.6896C58.6369 60.6896 58.2122 60.5962 57.8202 60.4096C57.4282 60.2229 57.1155 59.9709 56.8822 59.6536C56.6582 59.3269 56.5462 58.9676 56.5462 58.5756C56.5462 57.9596 56.7982 57.4556 57.3022 57.0636C57.8155 56.6622 58.5062 56.4009 59.3742 56.2796L61.4602 55.9856V55.5796C61.4602 54.6276 60.9142 54.1516 59.8222 54.1516C59.4115 54.1516 59.0755 54.2402 58.8142 54.4176C58.5529 54.5856 58.3569 54.7862 58.2262 55.0196C58.1982 55.1036 58.1609 55.1642 58.1142 55.2016C58.0769 55.2389 58.0209 55.2576 57.9462 55.2576H57.3442C57.2602 55.2576 57.1855 55.2296 57.1202 55.1736C57.0642 55.1082 57.0362 55.0336 57.0362 54.9496C57.0455 54.7256 57.1482 54.4736 57.3442 54.1936C57.5495 53.9042 57.8622 53.6569 58.2822 53.4516C58.7022 53.2369 59.2202 53.1296 59.8362 53.1296C60.8815 53.1296 61.6329 53.3769 62.0902 53.8716C62.5475 54.3569 62.7762 54.9636 62.7762 55.6916V60.2276C62.7762 60.3209 62.7435 60.4002 62.6782 60.4656C62.6222 60.5216 62.5475 60.5496 62.4542 60.5496H61.8102C61.7169 60.5496 61.6375 60.5216 61.5722 60.4656C61.5162 60.4002 61.4882 60.3209 61.4882 60.2276V59.6256C61.2829 59.9242 60.9842 60.1762 60.5922 60.3816C60.2002 60.5869 59.7009 60.6896 59.0942 60.6896ZM59.3882 59.6396C59.9949 59.6396 60.4895 59.4436 60.8722 59.0516C61.2642 58.6502 61.4602 58.0762 61.4602 57.3296V56.9376L59.8362 57.1756C59.1735 57.2689 58.6742 57.4276 58.3382 57.6516C58.0022 57.8662 57.8342 58.1416 57.8342 58.4776C57.8342 58.8509 57.9882 59.1402 58.2962 59.3456C58.6042 59.5416 58.9682 59.6396 59.3882 59.6396ZM65.1108 60.5496C65.0175 60.5496 64.9381 60.5216 64.8728 60.4656C64.8168 60.4002 64.7888 60.3209 64.7888 60.2276V53.5916C64.7888 53.4982 64.8168 53.4236 64.8728 53.3676C64.9381 53.3022 65.0175 53.2696 65.1108 53.2696H65.7688C65.8621 53.2696 65.9368 53.3022 65.9928 53.3676C66.0581 53.4236 66.0908 53.4982 66.0908 53.5916V54.2076C66.3615 53.8622 66.6788 53.5962 67.0428 53.4096C67.4161 53.2229 67.8781 53.1296 68.4288 53.1296C69.3248 53.1296 70.0201 53.4189 70.5148 53.9976C71.0188 54.5669 71.2708 55.3276 71.2708 56.2796V60.2276C71.2708 60.3209 71.2381 60.4002 71.1728 60.4656C71.1168 60.5216 71.0421 60.5496 70.9488 60.5496H70.2488C70.1555 60.5496 70.0761 60.5216 70.0108 60.4656C69.9548 60.4002 69.9268 60.3209 69.9268 60.2276V56.3496C69.9268 55.6869 69.7635 55.1736 69.4368 54.8096C69.1195 54.4456 68.6575 54.2636 68.0508 54.2636C67.4628 54.2636 66.9961 54.4502 66.6508 54.8236C66.3055 55.1876 66.1328 55.6962 66.1328 56.3496V60.2276C66.1328 60.3209 66.1001 60.4002 66.0348 60.4656C65.9788 60.5216 65.9041 60.5496 65.8108 60.5496H65.1108ZM73.489 51.9116C73.3957 51.9116 73.3164 51.8836 73.251 51.8276C73.195 51.7622 73.167 51.6829 73.167 51.5896V50.8336C73.167 50.7402 73.195 50.6609 73.251 50.5956C73.3164 50.5302 73.3957 50.4976 73.489 50.4976H74.371C74.4644 50.4976 74.5437 50.5302 74.609 50.5956C74.6744 50.6609 74.707 50.7402 74.707 50.8336V51.5896C74.707 51.6829 74.6744 51.7622 74.609 51.8276C74.5437 51.8836 74.4644 51.9116 74.371 51.9116H73.489ZM73.601 60.5496C73.5077 60.5496 73.4284 60.5216 73.363 60.4656C73.307 60.4002 73.279 60.3209 73.279 60.2276V53.5916C73.279 53.4982 73.307 53.4236 73.363 53.3676C73.4284 53.3022 73.5077 53.2696 73.601 53.2696H74.273C74.3664 53.2696 74.441 53.3022 74.497 53.3676C74.5624 53.4236 74.595 53.4982 74.595 53.5916V60.2276C74.595 60.3209 74.5624 60.4002 74.497 60.4656C74.441 60.5216 74.3664 60.5496 74.273 60.5496H73.601ZM77.0057 60.5496C76.9123 60.5496 76.833 60.5216 76.7677 60.4656C76.7117 60.4002 76.6837 60.3209 76.6837 60.2276V50.9316C76.6837 50.8382 76.7117 50.7636 76.7677 50.7076C76.833 50.6422 76.9123 50.6096 77.0057 50.6096H77.6637C77.757 50.6096 77.8317 50.6422 77.8877 50.7076C77.953 50.7636 77.9857 50.8382 77.9857 50.9316V60.2276C77.9857 60.3209 77.953 60.4002 77.8877 60.4656C77.8317 60.5216 77.757 60.5496 77.6637 60.5496H77.0057ZM80.41 60.5496C80.3166 60.5496 80.2373 60.5216 80.172 60.4656C80.116 60.4002 80.088 60.3209 80.088 60.2276V50.9316C80.088 50.8382 80.116 50.7636 80.172 50.7076C80.2373 50.6422 80.3166 50.6096 80.41 50.6096H81.068C81.1613 50.6096 81.236 50.6422 81.292 50.7076C81.3573 50.7636 81.39 50.8382 81.39 50.9316V60.2276C81.39 60.3209 81.3573 60.4002 81.292 60.4656C81.236 60.5216 81.1613 60.5496 81.068 60.5496H80.41ZM85.5083 60.6896C85.0509 60.6896 84.6263 60.5962 84.2343 60.4096C83.8423 60.2229 83.5296 59.9709 83.2963 59.6536C83.0723 59.3269 82.9603 58.9676 82.9603 58.5756C82.9603 57.9596 83.2123 57.4556 83.7163 57.0636C84.2296 56.6622 84.9203 56.4009 85.7883 56.2796L87.8743 55.9856V55.5796C87.8743 54.6276 87.3283 54.1516 86.2363 54.1516C85.8256 54.1516 85.4896 54.2402 85.2283 54.4176C84.9669 54.5856 84.7709 54.7862 84.6403 55.0196C84.6123 55.1036 84.5749 55.1642 84.5283 55.2016C84.4909 55.2389 84.4349 55.2576 84.3603 55.2576H83.7583C83.6743 55.2576 83.5996 55.2296 83.5343 55.1736C83.4783 55.1082 83.4503 55.0336 83.4503 54.9496C83.4596 54.7256 83.5623 54.4736 83.7583 54.1936C83.9636 53.9042 84.2763 53.6569 84.6963 53.4516C85.1163 53.2369 85.6343 53.1296 86.2503 53.1296C87.2956 53.1296 88.0469 53.3769 88.5043 53.8716C88.9616 54.3569 89.1903 54.9636 89.1903 55.6916V60.2276C89.1903 60.3209 89.1576 60.4002 89.0923 60.4656C89.0363 60.5216 88.9616 60.5496 88.8683 60.5496H88.2243C88.1309 60.5496 88.0516 60.5216 87.9863 60.4656C87.9303 60.4002 87.9023 60.3209 87.9023 60.2276V59.6256C87.6969 59.9242 87.3983 60.1762 87.0063 60.3816C86.6143 60.5869 86.1149 60.6896 85.5083 60.6896ZM85.8023 59.6396C86.4089 59.6396 86.9036 59.4436 87.2863 59.0516C87.6783 58.6502 87.8743 58.0762 87.8743 57.3296V56.9376L86.2503 57.1756C85.5876 57.2689 85.0883 57.4276 84.7523 57.6516C84.4163 57.8662 84.2483 58.1416 84.2483 58.4776C84.2483 58.8509 84.4023 59.1402 84.7103 59.3456C85.0183 59.5416 85.3823 59.6396 85.8023 59.6396ZM96.2498 60.5496C96.0071 60.5496 95.8624 60.4236 95.8158 60.1716L94.0098 51.1836C94.0004 51.1369 93.9958 51.0856 93.9958 51.0296C93.9958 50.9549 94.0238 50.8896 94.0798 50.8336C94.1358 50.7776 94.2011 50.7496 94.2758 50.7496H95.0038C95.1998 50.7496 95.3118 50.8289 95.3398 50.9876L96.7678 58.2116L98.2798 53.2556C98.3638 53.0316 98.5131 52.9196 98.7278 52.9196H99.2458C99.3671 52.9196 99.4604 52.9522 99.5258 53.0176C99.6004 53.0829 99.6518 53.1622 99.6798 53.2556L101.206 58.2116L102.62 50.9876C102.648 50.8289 102.764 50.7496 102.97 50.7496H103.698C103.772 50.7496 103.838 50.7776 103.894 50.8336C103.95 50.8896 103.978 50.9549 103.978 51.0296L103.964 51.1836L102.158 60.1716C102.102 60.4236 101.957 60.5496 101.724 60.5496H101.178C100.935 60.5496 100.781 60.4329 100.716 60.1996L98.9798 54.8656L97.2578 60.1996C97.1831 60.4329 97.0291 60.5496 96.7958 60.5496H96.2498ZM105.963 60.5496C105.869 60.5496 105.79 60.5216 105.725 60.4656C105.669 60.4002 105.641 60.3209 105.641 60.2276V50.9316C105.641 50.8382 105.669 50.7636 105.725 50.7076C105.79 50.6422 105.869 50.6096 105.963 50.6096H106.663C106.756 50.6096 106.831 50.6422 106.887 50.7076C106.952 50.7636 106.985 50.8382 106.985 50.9316V54.1936C107.255 53.8482 107.573 53.5869 107.937 53.4096C108.301 53.2229 108.753 53.1296 109.295 53.1296C110.191 53.1296 110.886 53.4189 111.381 53.9976C111.885 54.5669 112.137 55.3276 112.137 56.2796V60.2276C112.137 60.3209 112.104 60.4002 112.039 60.4656C111.983 60.5216 111.908 60.5496 111.815 60.5496H111.115C111.021 60.5496 110.942 60.5216 110.877 60.4656C110.821 60.4002 110.793 60.3209 110.793 60.2276V56.3496C110.793 55.6869 110.629 55.1736 110.303 54.8096C109.985 54.4456 109.523 54.2636 108.917 54.2636C108.329 54.2636 107.857 54.4502 107.503 54.8236C107.157 55.1876 106.985 55.6962 106.985 56.3496V60.2276C106.985 60.3209 106.952 60.4002 106.887 60.4656C106.831 60.5216 106.756 60.5496 106.663 60.5496H105.963ZM114.368 51.9116C114.275 51.9116 114.195 51.8836 114.13 51.8276C114.074 51.7622 114.046 51.6829 114.046 51.5896V50.8336C114.046 50.7402 114.074 50.6609 114.13 50.5956C114.195 50.5302 114.275 50.4976 114.368 50.4976H115.25C115.343 50.4976 115.423 50.5302 115.488 50.5956C115.553 50.6609 115.586 50.7402 115.586 50.8336V51.5896C115.586 51.6829 115.553 51.7622 115.488 51.8276C115.423 51.8836 115.343 51.9116 115.25 51.9116H114.368ZM114.48 60.5496C114.387 60.5496 114.307 60.5216 114.242 60.4656C114.186 60.4002 114.158 60.3209 114.158 60.2276V53.5916C114.158 53.4982 114.186 53.4236 114.242 53.3676C114.307 53.3022 114.387 53.2696 114.48 53.2696H115.152C115.245 53.2696 115.32 53.3022 115.376 53.3676C115.441 53.4236 115.474 53.4982 115.474 53.5916V60.2276C115.474 60.3209 115.441 60.4002 115.376 60.4656C115.32 60.5216 115.245 60.5496 115.152 60.5496H114.48ZM117.885 63.2096C117.791 63.2096 117.712 63.1769 117.647 63.1116C117.591 63.0556 117.563 62.9809 117.563 62.8876V53.5916C117.563 53.4982 117.591 53.4236 117.647 53.3676C117.712 53.3022 117.791 53.2696 117.885 53.2696H118.529C118.622 53.2696 118.697 53.3022 118.753 53.3676C118.818 53.4236 118.851 53.4982 118.851 53.5916V54.2076C119.373 53.4889 120.139 53.1296 121.147 53.1296C122.127 53.1296 122.859 53.4376 123.345 54.0536C123.839 54.6696 124.105 55.4629 124.143 56.4336C124.152 56.5362 124.157 56.6949 124.157 56.9096C124.157 57.1242 124.152 57.2829 124.143 57.3856C124.105 58.3469 123.839 59.1402 123.345 59.7656C122.85 60.3816 122.117 60.6896 121.147 60.6896C120.176 60.6896 119.42 60.3396 118.879 59.6396V62.8876C118.879 62.9809 118.851 63.0556 118.795 63.1116C118.739 63.1769 118.664 63.2096 118.571 63.2096H117.885ZM120.853 59.5556C121.515 59.5556 121.996 59.3502 122.295 58.9396C122.603 58.5289 122.771 57.9876 122.799 57.3156C122.808 57.2222 122.813 57.0869 122.813 56.9096C122.813 55.1456 122.159 54.2636 120.853 54.2636C120.209 54.2636 119.723 54.4782 119.397 54.9076C119.079 55.3276 118.907 55.8316 118.879 56.4196L118.865 56.9516L118.879 57.4976C118.897 58.0482 119.075 58.5289 119.411 58.9396C119.747 59.3502 120.227 59.5556 120.853 59.5556ZM126.224 63.2096C126.131 63.2096 126.052 63.1769 125.986 63.1116C125.93 63.0556 125.902 62.9809 125.902 62.8876V53.5916C125.902 53.4982 125.93 53.4236 125.986 53.3676C126.052 53.3022 126.131 53.2696 126.224 53.2696H126.868C126.962 53.2696 127.036 53.3022 127.092 53.3676C127.158 53.4236 127.19 53.4982 127.19 53.5916V54.2076C127.713 53.4889 128.478 53.1296 129.486 53.1296C130.466 53.1296 131.199 53.4376 131.684 54.0536C132.179 54.6696 132.445 55.4629 132.482 56.4336C132.492 56.5362 132.496 56.6949 132.496 56.9096C132.496 57.1242 132.492 57.2829 132.482 57.3856C132.445 58.3469 132.179 59.1402 131.684 59.7656C131.19 60.3816 130.457 60.6896 129.486 60.6896C128.516 60.6896 127.76 60.3396 127.218 59.6396V62.8876C127.218 62.9809 127.19 63.0556 127.134 63.1116C127.078 63.1769 127.004 63.2096 126.91 63.2096H126.224ZM129.192 59.5556C129.855 59.5556 130.336 59.3502 130.634 58.9396C130.942 58.5289 131.11 57.9876 131.138 57.3156C131.148 57.2222 131.152 57.0869 131.152 56.9096C131.152 55.1456 130.499 54.2636 129.192 54.2636C128.548 54.2636 128.063 54.4782 127.736 54.9076C127.419 55.3276 127.246 55.8316 127.218 56.4196L127.204 56.9516L127.218 57.4976C127.237 58.0482 127.414 58.5289 127.75 58.9396C128.086 59.3502 128.567 59.5556 129.192 59.5556ZM137.14 60.6896C136.179 60.6896 135.409 60.3956 134.83 59.8076C134.261 59.2102 133.948 58.3982 133.892 57.3716L133.878 56.8956L133.892 56.4336C133.958 55.4256 134.275 54.6229 134.844 54.0256C135.423 53.4282 136.184 53.1296 137.126 53.1296C138.162 53.1296 138.965 53.4609 139.534 54.1236C140.104 54.7769 140.388 55.6636 140.388 56.7836V57.0216C140.388 57.1149 140.356 57.1942 140.29 57.2596C140.234 57.3156 140.16 57.3436 140.066 57.3436H135.222V57.4696C135.25 58.0762 135.432 58.5942 135.768 59.0236C136.114 59.4436 136.566 59.6536 137.126 59.6536C137.556 59.6536 137.906 59.5696 138.176 59.4016C138.456 59.2242 138.662 59.0422 138.792 58.8556C138.876 58.7436 138.937 58.6782 138.974 58.6596C139.021 58.6316 139.1 58.6176 139.212 58.6176H139.898C139.982 58.6176 140.052 58.6409 140.108 58.6876C140.164 58.7342 140.192 58.7996 140.192 58.8836C140.192 59.0889 140.062 59.3362 139.8 59.6256C139.548 59.9149 139.189 60.1669 138.722 60.3816C138.265 60.5869 137.738 60.6896 137.14 60.6896ZM139.058 56.3776V56.3356C139.058 55.6916 138.881 55.1689 138.526 54.7676C138.181 54.3569 137.714 54.1516 137.126 54.1516C136.538 54.1516 136.072 54.3569 135.726 54.7676C135.39 55.1689 135.222 55.6916 135.222 56.3356V56.3776H139.058ZM144.722 60.6896C143.752 60.6896 143.019 60.3722 142.524 59.7376C142.03 59.1029 141.768 58.3002 141.74 57.3296L141.726 56.9096L141.74 56.4896C141.768 55.5282 142.03 54.7302 142.524 54.0956C143.019 53.4516 143.752 53.1296 144.722 53.1296C145.684 53.1296 146.44 53.4702 146.99 54.1516V50.9316C146.99 50.8382 147.018 50.7636 147.074 50.7076C147.14 50.6422 147.219 50.6096 147.312 50.6096H147.984C148.078 50.6096 148.152 50.6422 148.208 50.7076C148.274 50.7636 148.306 50.8382 148.306 50.9316V60.2276C148.306 60.3209 148.274 60.4002 148.208 60.4656C148.152 60.5216 148.078 60.5496 147.984 60.5496H147.354C147.261 60.5496 147.182 60.5216 147.116 60.4656C147.06 60.4002 147.032 60.3209 147.032 60.2276V59.6396C146.491 60.3396 145.721 60.6896 144.722 60.6896ZM145.016 59.5556C145.66 59.5556 146.141 59.3456 146.458 58.9256C146.785 58.4962 146.962 57.9876 146.99 57.3996C147 57.2969 147.004 57.1196 147.004 56.8676C147.004 56.6062 147 56.4242 146.99 56.3216C146.972 55.7709 146.794 55.2902 146.458 54.8796C146.122 54.4689 145.642 54.2636 145.016 54.2636C144.354 54.2636 143.868 54.4689 143.56 54.8796C143.262 55.2902 143.098 55.8316 143.07 56.5036L143.056 56.9096C143.056 58.6736 143.71 59.5556 145.016 59.5556ZM157.53 60.6896C156.279 60.6896 155.327 60.3536 154.674 59.6816C154.03 59.0096 153.685 58.0809 153.638 56.8956C153.629 56.6436 153.624 56.2329 153.624 55.6636C153.624 55.0849 153.629 54.6649 153.638 54.4036C153.685 53.2276 154.035 52.3036 154.688 51.6316C155.341 50.9502 156.289 50.6096 157.53 50.6096C158.361 50.6096 159.065 50.7589 159.644 51.0576C160.223 51.3469 160.661 51.7296 160.96 52.2056C161.259 52.6816 161.422 53.1902 161.45 53.7316V53.7596C161.45 53.8342 161.417 53.8996 161.352 53.9556C161.296 54.0022 161.231 54.0256 161.156 54.0256H160.386C160.199 54.0256 160.083 53.9182 160.036 53.7036C159.877 53.0036 159.593 52.5136 159.182 52.2336C158.771 51.9442 158.221 51.7996 157.53 51.7996C155.925 51.7996 155.094 52.6909 155.038 54.4736C155.029 54.7256 155.024 55.1129 155.024 55.6356C155.024 56.1582 155.029 56.5549 155.038 56.8256C155.094 58.6082 155.925 59.4996 157.53 59.4996C158.221 59.4996 158.771 59.3596 159.182 59.0796C159.602 58.7902 159.887 58.2956 160.036 57.5956C160.064 57.4742 160.106 57.3902 160.162 57.3436C160.218 57.2969 160.293 57.2736 160.386 57.2736H161.156C161.24 57.2736 161.31 57.3016 161.366 57.3576C161.431 57.4042 161.459 57.4696 161.45 57.5536C161.422 58.1042 161.259 58.6176 160.96 59.0936C160.661 59.5696 160.223 59.9569 159.644 60.2556C159.065 60.5449 158.361 60.6896 157.53 60.6896ZM163.466 60.5496C163.373 60.5496 163.294 60.5216 163.228 60.4656C163.172 60.4002 163.144 60.3209 163.144 60.2276V53.6056C163.144 53.5122 163.172 53.4329 163.228 53.3676C163.294 53.3022 163.373 53.2696 163.466 53.2696H164.11C164.204 53.2696 164.283 53.3022 164.348 53.3676C164.414 53.4329 164.446 53.5122 164.446 53.6056V54.2216C164.829 53.5869 165.482 53.2696 166.406 53.2696H166.952C167.046 53.2696 167.12 53.3022 167.176 53.3676C167.242 53.4236 167.274 53.4982 167.274 53.5916V54.1656C167.274 54.2589 167.242 54.3336 167.176 54.3896C167.12 54.4456 167.046 54.4736 166.952 54.4736H166.112C165.608 54.4736 165.212 54.6229 164.922 54.9216C164.633 55.2109 164.488 55.6076 164.488 56.1116V60.2276C164.488 60.3209 164.456 60.4002 164.39 60.4656C164.325 60.5216 164.246 60.5496 164.152 60.5496H163.466ZM171.238 60.6896C170.277 60.6896 169.507 60.3956 168.928 59.8076C168.359 59.2102 168.046 58.3982 167.99 57.3716L167.976 56.8956L167.99 56.4336C168.055 55.4256 168.373 54.6229 168.942 54.0256C169.521 53.4282 170.281 53.1296 171.224 53.1296C172.26 53.1296 173.063 53.4609 173.632 54.1236C174.201 54.7769 174.486 55.6636 174.486 56.7836V57.0216C174.486 57.1149 174.453 57.1942 174.388 57.2596C174.332 57.3156 174.257 57.3436 174.164 57.3436H169.32V57.4696C169.348 58.0762 169.53 58.5942 169.866 59.0236C170.211 59.4436 170.664 59.6536 171.224 59.6536C171.653 59.6536 172.003 59.5696 172.274 59.4016C172.554 59.2242 172.759 59.0422 172.89 58.8556C172.974 58.7436 173.035 58.6782 173.072 58.6596C173.119 58.6316 173.198 58.6176 173.31 58.6176H173.996C174.08 58.6176 174.15 58.6409 174.206 58.6876C174.262 58.7342 174.29 58.7996 174.29 58.8836C174.29 59.0889 174.159 59.3362 173.898 59.6256C173.646 59.9149 173.287 60.1669 172.82 60.3816C172.363 60.5869 171.835 60.6896 171.238 60.6896ZM173.156 56.3776V56.3356C173.156 55.6916 172.979 55.1689 172.624 54.7676C172.279 54.3569 171.812 54.1516 171.224 54.1516C170.636 54.1516 170.169 54.3569 169.824 54.7676C169.488 55.1689 169.32 55.6916 169.32 56.3356V56.3776H173.156ZM178.19 60.6896C177.733 60.6896 177.308 60.5962 176.916 60.4096C176.524 60.2229 176.211 59.9709 175.978 59.6536C175.754 59.3269 175.642 58.9676 175.642 58.5756C175.642 57.9596 175.894 57.4556 176.398 57.0636C176.911 56.6622 177.602 56.4009 178.47 56.2796L180.556 55.9856V55.5796C180.556 54.6276 180.01 54.1516 178.918 54.1516C178.507 54.1516 178.171 54.2402 177.91 54.4176C177.649 54.5856 177.453 54.7862 177.322 55.0196C177.294 55.1036 177.257 55.1642 177.21 55.2016C177.173 55.2389 177.117 55.2576 177.042 55.2576H176.44C176.356 55.2576 176.281 55.2296 176.216 55.1736C176.16 55.1082 176.132 55.0336 176.132 54.9496C176.141 54.7256 176.244 54.4736 176.44 54.1936C176.645 53.9042 176.958 53.6569 177.378 53.4516C177.798 53.2369 178.316 53.1296 178.932 53.1296C179.977 53.1296 180.729 53.3769 181.186 53.8716C181.643 54.3569 181.872 54.9636 181.872 55.6916V60.2276C181.872 60.3209 181.839 60.4002 181.774 60.4656C181.718 60.5216 181.643 60.5496 181.55 60.5496H180.906C180.813 60.5496 180.733 60.5216 180.668 60.4656C180.612 60.4002 180.584 60.3209 180.584 60.2276V59.6256C180.379 59.9242 180.08 60.1762 179.688 60.3816C179.296 60.5869 178.797 60.6896 178.19 60.6896ZM178.484 59.6396C179.091 59.6396 179.585 59.4436 179.968 59.0516C180.36 58.6502 180.556 58.0762 180.556 57.3296V56.9376L178.932 57.1756C178.269 57.2689 177.77 57.4276 177.434 57.6516C177.098 57.8662 176.93 58.1416 176.93 58.4776C176.93 58.8509 177.084 59.1402 177.392 59.3456C177.7 59.5416 178.064 59.6396 178.484 59.6396ZM184.207 60.5496C184.113 60.5496 184.034 60.5216 183.969 60.4656C183.913 60.4002 183.885 60.3209 183.885 60.2276V53.5916C183.885 53.4982 183.913 53.4236 183.969 53.3676C184.034 53.3022 184.113 53.2696 184.207 53.2696H184.837C184.93 53.2696 185.005 53.3022 185.061 53.3676C185.126 53.4236 185.159 53.4982 185.159 53.5916V54.0816C185.644 53.4469 186.321 53.1296 187.189 53.1296C188.225 53.1296 188.957 53.5589 189.387 54.4176C189.611 54.0256 189.928 53.7129 190.339 53.4796C190.749 53.2462 191.211 53.1296 191.725 53.1296C192.49 53.1296 193.115 53.3909 193.601 53.9136C194.086 54.4362 194.329 55.1922 194.329 56.1816V60.2276C194.329 60.3209 194.296 60.4002 194.231 60.4656C194.175 60.5216 194.1 60.5496 194.007 60.5496H193.349C193.255 60.5496 193.176 60.5216 193.111 60.4656C193.055 60.4002 193.027 60.3209 193.027 60.2276V56.3076C193.027 55.5796 192.873 55.0569 192.565 54.7396C192.266 54.4222 191.869 54.2636 191.375 54.2636C190.936 54.2636 190.558 54.4269 190.241 54.7536C189.923 55.0709 189.765 55.5889 189.765 56.3076V60.2276C189.765 60.3209 189.732 60.4002 189.667 60.4656C189.611 60.5216 189.536 60.5496 189.443 60.5496H188.785C188.691 60.5496 188.612 60.5216 188.547 60.4656C188.491 60.4002 188.463 60.3209 188.463 60.2276V56.3076C188.463 55.5796 188.304 55.0569 187.987 54.7396C187.679 54.4222 187.287 54.2636 186.811 54.2636C186.372 54.2636 185.994 54.4269 185.677 54.7536C185.359 55.0709 185.201 55.5842 185.201 56.2936V60.2276C185.201 60.3209 185.168 60.4002 185.103 60.4656C185.047 60.5216 184.972 60.5496 184.879 60.5496H184.207Z" fill="#4F5665"/>
<path d="M11.3797 60.2796C11.2484 60.2798 11.1184 60.2542 10.997 60.2041C10.8757 60.154 10.7655 60.0804 10.6727 59.9876L6.43066 55.7446C6.33509 55.6524 6.25883 55.5421 6.20634 55.4201C6.15385 55.2982 6.12617 55.167 6.12492 55.0342C6.12368 54.9014 6.14888 54.7697 6.19908 54.6468C6.24927 54.5239 6.32345 54.4122 6.41727 54.3182C6.5111 54.2242 6.62269 54.1499 6.74555 54.0995C6.86841 54.0492 7.00007 54.0238 7.13285 54.0248C7.26563 54.0259 7.39687 54.0534 7.51891 54.1057C7.64095 54.158 7.75135 54.2341 7.84366 54.3296L11.3787 57.8646L17.7437 51.5016C17.9312 51.3139 18.1855 51.2085 18.4508 51.2084C18.7161 51.2083 18.9705 51.3136 19.1582 51.5011C19.3458 51.6886 19.4513 51.943 19.4514 52.2082C19.4515 52.4735 19.3462 52.7279 19.1587 52.9156L12.0867 59.9876C11.9938 60.0804 11.8836 60.154 11.7623 60.2041C11.641 60.2542 11.5109 60.2798 11.3797 60.2796Z" fill="#2FAB73"/>
<path d="M11.6177 100.28C11.4864 100.28 11.3564 100.254 11.2351 100.204C11.1138 100.154 11.0035 100.08 10.9107 99.9876L6.6687 95.7446C6.57313 95.6524 6.49687 95.5421 6.44438 95.4201C6.39188 95.2982 6.36421 95.167 6.36296 95.0342C6.36171 94.9014 6.38692 94.7697 6.43712 94.6468C6.48731 94.5239 6.56148 94.4122 6.65531 94.3182C6.74913 94.2242 6.86073 94.1499 6.98359 94.0995C7.10645 94.0492 7.23811 94.0238 7.37089 94.0248C7.50367 94.0259 7.63491 94.0534 7.75695 94.1057C7.87899 94.158 7.98939 94.2341 8.0817 94.3296L11.6167 97.8646L17.9817 91.5016C18.1692 91.3139 18.4236 91.2085 18.6888 91.2084C18.9541 91.2083 19.2086 91.3136 19.3962 91.5011C19.5838 91.6886 19.6893 91.943 19.6894 92.2082C19.6895 92.4735 19.5842 92.7279 19.3967 92.9156L12.3247 99.9876C12.2319 100.08 12.1216 100.154 12.0003 100.204C11.879 100.254 11.749 100.28 11.6177 100.28Z" fill="#2FAB73"/>
<path d="M46.6717 100.55C46.5784 100.55 46.499 100.522 46.4337 100.466C46.3777 100.4 46.3497 100.321 46.3497 100.228V91.0716C46.3497 90.9782 46.3777 90.9036 46.4337 90.8476C46.499 90.7822 46.5784 90.7496 46.6717 90.7496H47.4137C47.507 90.7496 47.5817 90.7822 47.6377 90.8476C47.703 90.9036 47.7357 90.9782 47.7357 91.0716V100.228C47.7357 100.321 47.703 100.4 47.6377 100.466C47.5817 100.522 47.507 100.55 47.4137 100.55H46.6717ZM52.9358 100.69C51.9372 100.69 51.1532 100.41 50.5838 99.8496C50.0238 99.2802 49.7252 98.4869 49.6878 97.4696L49.6738 96.9096L49.6878 96.3496C49.7252 95.3322 50.0238 94.5436 50.5838 93.9836C51.1532 93.4142 51.9372 93.1296 52.9358 93.1296C53.6078 93.1296 54.1772 93.2509 54.6438 93.4936C55.1105 93.7362 55.4558 94.0349 55.6798 94.3896C55.9132 94.7442 56.0392 95.0989 56.0578 95.4536C56.0672 95.5469 56.0392 95.6216 55.9738 95.6776C55.9085 95.7336 55.8292 95.7616 55.7358 95.7616H55.0638C54.9705 95.7616 54.9005 95.7429 54.8538 95.7056C54.8072 95.6682 54.7605 95.5936 54.7138 95.4816C54.5552 95.0336 54.3312 94.7162 54.0418 94.5296C53.7525 94.3336 53.3885 94.2356 52.9498 94.2356C52.3712 94.2356 51.9092 94.4176 51.5638 94.7816C51.2278 95.1362 51.0458 95.6822 51.0178 96.4196L51.0038 96.9236L51.0178 97.3996C51.0458 98.1462 51.2278 98.6969 51.5638 99.0516C51.8998 99.4062 52.3618 99.5836 52.9498 99.5836C53.3885 99.5836 53.7525 99.4902 54.0418 99.3036C54.3312 99.1076 54.5552 98.7856 54.7138 98.3376C54.7605 98.2256 54.8072 98.1509 54.8538 98.1136C54.9005 98.0669 54.9705 98.0436 55.0638 98.0436H55.7358C55.8292 98.0436 55.9085 98.0762 55.9738 98.1416C56.0392 98.1976 56.0672 98.2722 56.0578 98.3656C56.0392 98.7109 55.9132 99.0656 55.6798 99.4296C55.4558 99.7842 55.1105 100.083 54.6438 100.326C54.1865 100.568 53.6172 100.69 52.9358 100.69ZM60.6324 100.69C59.6711 100.69 58.9011 100.396 58.3224 99.8076C57.7531 99.2102 57.4404 98.3982 57.3844 97.3716L57.3704 96.8956L57.3844 96.4336C57.4498 95.4256 57.7671 94.6229 58.3364 94.0256C58.9151 93.4282 59.6758 93.1296 60.6184 93.1296C61.6544 93.1296 62.4571 93.4609 63.0264 94.1236C63.5958 94.7769 63.8804 95.6636 63.8804 96.7836V97.0216C63.8804 97.1149 63.8478 97.1942 63.7824 97.2596C63.7264 97.3156 63.6518 97.3436 63.5584 97.3436H58.7144V97.4696C58.7424 98.0762 58.9244 98.5942 59.2604 99.0236C59.6058 99.4436 60.0584 99.6536 60.6184 99.6536C61.0478 99.6536 61.3978 99.5696 61.6684 99.4016C61.9484 99.2242 62.1538 99.0422 62.2844 98.8556C62.3684 98.7436 62.4291 98.6782 62.4664 98.6596C62.5131 98.6316 62.5924 98.6176 62.7044 98.6176H63.3904C63.4744 98.6176 63.5444 98.6409 63.6004 98.6876C63.6564 98.7342 63.6844 98.7996 63.6844 98.8836C63.6844 99.0889 63.5538 99.3362 63.2924 99.6256C63.0404 99.9149 62.6811 100.167 62.2144 100.382C61.7571 100.587 61.2298 100.69 60.6324 100.69ZM62.5504 96.3776V96.3356C62.5504 95.6916 62.3731 95.1689 62.0184 94.7676C61.6731 94.3569 61.2064 94.1516 60.6184 94.1516C60.0304 94.1516 59.5638 94.3569 59.2184 94.7676C58.8824 95.1689 58.7144 95.6916 58.7144 96.3356V96.3776H62.5504ZM68.5941 101.726C68.5194 101.726 68.4541 101.698 68.3981 101.642C68.3421 101.586 68.3141 101.52 68.3141 101.446C68.3141 101.408 68.3281 101.352 68.3561 101.278L73.1441 89.7976C73.2187 89.6296 73.3401 89.5456 73.5081 89.5456H74.0541C74.1287 89.5456 74.1941 89.5736 74.2501 89.6296C74.3061 89.6856 74.3341 89.7509 74.3341 89.8256C74.3341 89.8909 74.3247 89.9469 74.3061 89.9936L69.5041 101.474C69.4294 101.642 69.3081 101.726 69.1401 101.726H68.5941ZM79.6756 100.55C79.5823 100.55 79.503 100.522 79.4376 100.466C79.3816 100.4 79.3536 100.321 79.3536 100.228V91.0856C79.3536 90.9829 79.3816 90.9036 79.4376 90.8476C79.503 90.7822 79.5823 90.7496 79.6756 90.7496H80.3896C80.4923 90.7496 80.5716 90.7822 80.6276 90.8476C80.693 90.9036 80.7256 90.9829 80.7256 91.0856V94.9496H85.5416V91.0856C85.5416 90.9829 85.5696 90.9036 85.6256 90.8476C85.691 90.7822 85.7703 90.7496 85.8636 90.7496H86.5776C86.6803 90.7496 86.7596 90.7822 86.8156 90.8476C86.881 90.9036 86.9136 90.9829 86.9136 91.0856V100.228C86.9136 100.321 86.881 100.4 86.8156 100.466C86.7503 100.522 86.671 100.55 86.5776 100.55H85.8636C85.7703 100.55 85.691 100.522 85.6256 100.466C85.5696 100.4 85.5416 100.321 85.5416 100.228V96.2096H80.7256V100.228C80.7256 100.321 80.693 100.4 80.6276 100.466C80.5623 100.522 80.483 100.55 80.3896 100.55H79.6756ZM92.1478 100.69C91.1211 100.69 90.3231 100.4 89.7538 99.8216C89.1938 99.2429 88.8951 98.4729 88.8578 97.5116L88.8438 96.9096L88.8578 96.3076C88.8951 95.3556 89.1984 94.5902 89.7678 94.0116C90.3371 93.4236 91.1304 93.1296 92.1478 93.1296C93.1651 93.1296 93.9584 93.4236 94.5278 94.0116C95.0971 94.5902 95.4004 95.3556 95.4378 96.3076C95.4471 96.4102 95.4518 96.6109 95.4518 96.9096C95.4518 97.2082 95.4471 97.4089 95.4378 97.5116C95.4004 98.4729 95.0971 99.2429 94.5278 99.8216C93.9678 100.4 93.1744 100.69 92.1478 100.69ZM92.1478 99.6116C92.7358 99.6116 93.1978 99.4249 93.5338 99.0516C93.8791 98.6782 94.0658 98.1416 94.0938 97.4416C94.1031 97.3482 94.1078 97.1709 94.1078 96.9096C94.1078 96.6482 94.1031 96.4709 94.0938 96.3776C94.0658 95.6776 93.8791 95.1409 93.5338 94.7676C93.1978 94.3942 92.7358 94.2076 92.1478 94.2076C91.5598 94.2076 91.0931 94.3942 90.7478 94.7676C90.4024 95.1409 90.2204 95.6776 90.2018 96.3776L90.1878 96.9096L90.2018 97.4416C90.2204 98.1416 90.4024 98.6782 90.7478 99.0516C91.0931 99.4249 91.5598 99.6116 92.1478 99.6116ZM99.9785 100.55C98.5038 100.55 97.7665 99.7282 97.7665 98.0856V94.3896H96.6745C96.5811 94.3896 96.5018 94.3616 96.4365 94.3056C96.3805 94.2402 96.3525 94.1609 96.3525 94.0676V93.5916C96.3525 93.4982 96.3805 93.4236 96.4365 93.3676C96.5018 93.3022 96.5811 93.2696 96.6745 93.2696H97.7665V90.9316C97.7665 90.8382 97.7945 90.7636 97.8505 90.7076C97.9158 90.6422 97.9951 90.6096 98.0885 90.6096H98.7465C98.8398 90.6096 98.9145 90.6422 98.9705 90.7076C99.0358 90.7636 99.0685 90.8382 99.0685 90.9316V93.2696H100.804C100.898 93.2696 100.972 93.3022 101.028 93.3676C101.094 93.4236 101.126 93.4982 101.126 93.5916V94.0676C101.126 94.1609 101.094 94.2402 101.028 94.3056C100.972 94.3616 100.898 94.3896 100.804 94.3896H99.0685V97.9876C99.0685 98.4542 99.1478 98.8089 99.3065 99.0516C99.4651 99.2849 99.7265 99.4016 100.09 99.4016H100.944C101.038 99.4016 101.112 99.4342 101.168 99.4996C101.234 99.5556 101.266 99.6302 101.266 99.7236V100.228C101.266 100.321 101.234 100.4 101.168 100.466C101.112 100.522 101.038 100.55 100.944 100.55H99.9785Z" fill="#4F5665"/>
<path d="M11.3542 140.28C11.2229 140.28 11.0929 140.254 10.9715 140.204C10.8502 140.154 10.74 140.08 10.6472 139.988L6.40515 135.745C6.30958 135.652 6.23332 135.542 6.18083 135.42C6.12833 135.298 6.10066 135.167 6.09941 135.034C6.09816 134.901 6.12337 134.77 6.17357 134.647C6.22376 134.524 6.29793 134.412 6.39176 134.318C6.48558 134.224 6.59718 134.15 6.72004 134.1C6.8429 134.049 6.97456 134.024 7.10734 134.025C7.24012 134.026 7.37136 134.053 7.4934 134.106C7.61544 134.158 7.72584 134.234 7.81815 134.33L11.3532 137.865L17.7182 131.502C17.9057 131.314 18.16 131.208 18.4253 131.208C18.6906 131.208 18.945 131.314 19.1327 131.501C19.3203 131.689 19.4258 131.943 19.4259 132.208C19.4259 132.473 19.3207 132.728 19.1332 132.916L12.0612 139.988C11.9683 140.08 11.8581 140.154 11.7368 140.204C11.6154 140.254 11.4854 140.28 11.3542 140.28Z" fill="#2FAB73"/>
<path d="M49.4997 140.69C48.725 140.69 48.053 140.568 47.4837 140.326C46.9237 140.083 46.4944 139.766 46.1957 139.374C45.897 138.972 45.7384 138.543 45.7197 138.086C45.7197 138.011 45.7477 137.946 45.8037 137.89C45.869 137.824 45.9437 137.792 46.0277 137.792H46.7417C46.919 137.792 47.0404 137.885 47.1057 138.072C47.1897 138.464 47.4277 138.8 47.8197 139.08C48.221 139.36 48.781 139.5 49.4997 139.5C50.2744 139.5 50.8577 139.364 51.2497 139.094C51.6417 138.814 51.8377 138.426 51.8377 137.932C51.8377 137.614 51.7397 137.358 51.5437 137.162C51.357 136.966 51.077 136.793 50.7037 136.644C50.3304 136.494 49.7704 136.308 49.0237 136.084C48.2957 135.878 47.717 135.659 47.2877 135.426C46.8584 135.192 46.5364 134.903 46.3217 134.558C46.107 134.212 45.9997 133.778 45.9997 133.256C45.9997 132.752 46.135 132.299 46.4057 131.898C46.6857 131.496 47.0824 131.184 47.5957 130.96C48.109 130.726 48.7204 130.61 49.4297 130.61C50.1577 130.61 50.783 130.74 51.3057 131.002C51.8284 131.254 52.225 131.576 52.4957 131.968C52.7664 132.36 52.911 132.752 52.9297 133.144C52.9297 133.218 52.9017 133.284 52.8457 133.34C52.799 133.396 52.729 133.424 52.6357 133.424H51.8937C51.6977 133.424 51.5764 133.335 51.5297 133.158C51.4737 132.766 51.2544 132.444 50.8717 132.192C50.489 131.93 50.0084 131.8 49.4297 131.8C48.795 131.8 48.2957 131.921 47.9317 132.164C47.5677 132.406 47.3857 132.766 47.3857 133.242C47.3857 133.559 47.4697 133.82 47.6377 134.026C47.815 134.231 48.081 134.413 48.4357 134.572C48.7904 134.721 49.3084 134.894 49.9897 135.09C50.783 135.304 51.4084 135.528 51.8657 135.762C52.323 135.986 52.6637 136.27 52.8877 136.616C53.1117 136.952 53.2237 137.381 53.2237 137.904C53.2237 138.772 52.8877 139.453 52.2157 139.948C51.5437 140.442 50.6384 140.69 49.4997 140.69ZM55.2127 140.55C55.1194 140.55 55.04 140.522 54.9747 140.466C54.9187 140.4 54.8907 140.321 54.8907 140.228V130.932C54.8907 130.838 54.9187 130.764 54.9747 130.708C55.04 130.642 55.1194 130.61 55.2127 130.61H55.8707C55.964 130.61 56.0387 130.642 56.0947 130.708C56.16 130.764 56.1927 130.838 56.1927 130.932V140.228C56.1927 140.321 56.16 140.4 56.0947 140.466C56.0387 140.522 55.964 140.55 55.8707 140.55H55.2127ZM58.491 131.912C58.3977 131.912 58.3183 131.884 58.253 131.828C58.197 131.762 58.169 131.683 58.169 131.59V130.834C58.169 130.74 58.197 130.661 58.253 130.596C58.3183 130.53 58.3977 130.498 58.491 130.498H59.373C59.4663 130.498 59.5457 130.53 59.611 130.596C59.6763 130.661 59.709 130.74 59.709 130.834V131.59C59.709 131.683 59.6763 131.762 59.611 131.828C59.5457 131.884 59.4663 131.912 59.373 131.912H58.491ZM58.603 140.55C58.5097 140.55 58.4303 140.522 58.365 140.466C58.309 140.4 58.281 140.321 58.281 140.228V133.592C58.281 133.498 58.309 133.424 58.365 133.368C58.4303 133.302 58.5097 133.27 58.603 133.27H59.275C59.3683 133.27 59.443 133.302 59.499 133.368C59.5643 133.424 59.597 133.498 59.597 133.592V140.228C59.597 140.321 59.5643 140.4 59.499 140.466C59.443 140.522 59.3683 140.55 59.275 140.55H58.603ZM64.6116 140.69C63.613 140.69 62.829 140.41 62.2596 139.85C61.6996 139.28 61.401 138.487 61.3636 137.47L61.3496 136.91L61.3636 136.35C61.401 135.332 61.6996 134.544 62.2596 133.984C62.829 133.414 63.613 133.13 64.6116 133.13C65.2836 133.13 65.853 133.251 66.3196 133.494C66.7863 133.736 67.1316 134.035 67.3556 134.39C67.589 134.744 67.715 135.099 67.7336 135.454C67.743 135.547 67.715 135.622 67.6496 135.678C67.5843 135.734 67.505 135.762 67.4116 135.762H66.7396C66.6463 135.762 66.5763 135.743 66.5296 135.706C66.483 135.668 66.4363 135.594 66.3896 135.482C66.231 135.034 66.007 134.716 65.7176 134.53C65.4283 134.334 65.0643 134.236 64.6256 134.236C64.047 134.236 63.585 134.418 63.2396 134.782C62.9036 135.136 62.7216 135.682 62.6936 136.42L62.6796 136.924L62.6936 137.4C62.7216 138.146 62.9036 138.697 63.2396 139.052C63.5756 139.406 64.0376 139.584 64.6256 139.584C65.0643 139.584 65.4283 139.49 65.7176 139.304C66.007 139.108 66.231 138.786 66.3896 138.338C66.4363 138.226 66.483 138.151 66.5296 138.114C66.5763 138.067 66.6463 138.044 66.7396 138.044H67.4116C67.505 138.044 67.5843 138.076 67.6496 138.142C67.715 138.198 67.743 138.272 67.7336 138.366C67.715 138.711 67.589 139.066 67.3556 139.43C67.1316 139.784 66.7863 140.083 66.3196 140.326C65.8623 140.568 65.293 140.69 64.6116 140.69ZM72.3082 140.69C71.3469 140.69 70.5769 140.396 69.9982 139.808C69.4289 139.21 69.1162 138.398 69.0602 137.372L69.0462 136.896L69.0602 136.434C69.1256 135.426 69.4429 134.623 70.0122 134.026C70.5909 133.428 71.3516 133.13 72.2942 133.13C73.3302 133.13 74.1329 133.461 74.7022 134.124C75.2716 134.777 75.5562 135.664 75.5562 136.784V137.022C75.5562 137.115 75.5236 137.194 75.4582 137.26C75.4022 137.316 75.3276 137.344 75.2342 137.344H70.3902V137.47C70.4182 138.076 70.6002 138.594 70.9362 139.024C71.2816 139.444 71.7342 139.654 72.2942 139.654C72.7236 139.654 73.0736 139.57 73.3442 139.402C73.6242 139.224 73.8296 139.042 73.9602 138.856C74.0442 138.744 74.1049 138.678 74.1422 138.66C74.1889 138.632 74.2682 138.618 74.3802 138.618H75.0662C75.1502 138.618 75.2202 138.641 75.2762 138.688C75.3322 138.734 75.3602 138.8 75.3602 138.884C75.3602 139.089 75.2296 139.336 74.9682 139.626C74.7162 139.915 74.3569 140.167 73.8902 140.382C73.4329 140.587 72.9056 140.69 72.3082 140.69ZM74.2262 136.378V136.336C74.2262 135.692 74.0489 135.169 73.6942 134.768C73.3489 134.357 72.8822 134.152 72.2942 134.152C71.7062 134.152 71.2396 134.357 70.8942 134.768C70.5582 135.169 70.3902 135.692 70.3902 136.336V136.378H74.2262ZM79.8902 140.69C78.9195 140.69 78.1869 140.372 77.6922 139.738C77.1975 139.103 76.9362 138.3 76.9082 137.33L76.8942 136.91L76.9082 136.49C76.9362 135.528 77.1975 134.73 77.6922 134.096C78.1869 133.452 78.9195 133.13 79.8902 133.13C80.8515 133.13 81.6075 133.47 82.1582 134.152V130.932C82.1582 130.838 82.1862 130.764 82.2422 130.708C82.3075 130.642 82.3869 130.61 82.4802 130.61H83.1522C83.2455 130.61 83.3202 130.642 83.3762 130.708C83.4415 130.764 83.4742 130.838 83.4742 130.932V140.228C83.4742 140.321 83.4415 140.4 83.3762 140.466C83.3202 140.522 83.2455 140.55 83.1522 140.55H82.5222C82.4289 140.55 82.3495 140.522 82.2842 140.466C82.2282 140.4 82.2002 140.321 82.2002 140.228V139.64C81.6589 140.34 80.8889 140.69 79.8902 140.69ZM80.1842 139.556C80.8282 139.556 81.3089 139.346 81.6262 138.926C81.9529 138.496 82.1302 137.988 82.1582 137.4C82.1675 137.297 82.1722 137.12 82.1722 136.868C82.1722 136.606 82.1675 136.424 82.1582 136.322C82.1395 135.771 81.9622 135.29 81.6262 134.88C81.2902 134.469 80.8095 134.264 80.1842 134.264C79.5215 134.264 79.0362 134.469 78.7282 134.88C78.4295 135.29 78.2662 135.832 78.2382 136.504L78.2242 136.91C78.2242 138.674 78.8775 139.556 80.1842 139.556ZM89.492 140.55C89.3987 140.55 89.3194 140.522 89.254 140.466C89.198 140.4 89.17 140.321 89.17 140.228V131.086C89.17 130.983 89.198 130.904 89.254 130.848C89.3194 130.782 89.3987 130.75 89.492 130.75H93.328C94.3267 130.75 95.078 130.988 95.582 131.464C96.086 131.94 96.338 132.565 96.338 133.34C96.338 133.862 96.2167 134.296 95.974 134.642C95.7407 134.987 95.4607 135.239 95.134 135.398C95.526 135.594 95.8574 135.897 96.128 136.308C96.3987 136.718 96.534 137.19 96.534 137.722C96.534 138.244 96.4127 138.72 96.17 139.15C95.9367 139.579 95.5867 139.92 95.12 140.172C94.6534 140.424 94.0934 140.55 93.44 140.55H89.492ZM93.118 134.894C93.706 134.894 94.154 134.758 94.462 134.488C94.7794 134.217 94.938 133.839 94.938 133.354C94.938 132.878 94.784 132.514 94.476 132.262C94.168 132.01 93.7154 131.884 93.118 131.884H90.542V134.894H93.118ZM93.258 139.416C93.846 139.416 94.3034 139.257 94.63 138.94C94.966 138.622 95.134 138.216 95.134 137.722C95.134 137.208 94.966 136.798 94.63 136.49C94.3034 136.172 93.846 136.014 93.258 136.014H90.542V139.416H93.258ZM100.37 140.69C99.9123 140.69 99.4876 140.596 99.0956 140.41C98.7036 140.223 98.3909 139.971 98.1576 139.654C97.9336 139.327 97.8216 138.968 97.8216 138.576C97.8216 137.96 98.0736 137.456 98.5776 137.064C99.0909 136.662 99.7816 136.401 100.65 136.28L102.736 135.986V135.58C102.736 134.628 102.19 134.152 101.098 134.152C100.687 134.152 100.351 134.24 100.09 134.418C99.8283 134.586 99.6323 134.786 99.5016 135.02C99.4736 135.104 99.4363 135.164 99.3896 135.202C99.3523 135.239 99.2963 135.258 99.2216 135.258H98.6196C98.5356 135.258 98.4609 135.23 98.3956 135.174C98.3396 135.108 98.3116 135.034 98.3116 134.95C98.3209 134.726 98.4236 134.474 98.6196 134.194C98.8249 133.904 99.1376 133.657 99.5576 133.452C99.9776 133.237 100.496 133.13 101.112 133.13C102.157 133.13 102.908 133.377 103.366 133.872C103.823 134.357 104.052 134.964 104.052 135.692V140.228C104.052 140.321 104.019 140.4 103.954 140.466C103.898 140.522 103.823 140.55 103.73 140.55H103.086C102.992 140.55 102.913 140.522 102.848 140.466C102.792 140.4 102.764 140.321 102.764 140.228V139.626C102.558 139.924 102.26 140.176 101.868 140.382C101.476 140.587 100.976 140.69 100.37 140.69ZM100.664 139.64C101.27 139.64 101.765 139.444 102.148 139.052C102.54 138.65 102.736 138.076 102.736 137.33V136.938L101.112 137.176C100.449 137.269 99.9496 137.428 99.6136 137.652C99.2776 137.866 99.1096 138.142 99.1096 138.478C99.1096 138.851 99.2636 139.14 99.5716 139.346C99.8796 139.542 100.244 139.64 100.664 139.64ZM106.386 140.55C106.293 140.55 106.214 140.522 106.148 140.466C106.092 140.4 106.064 140.321 106.064 140.228V133.592C106.064 133.498 106.092 133.424 106.148 133.368C106.214 133.302 106.293 133.27 106.386 133.27H107.044C107.138 133.27 107.212 133.302 107.268 133.368C107.334 133.424 107.366 133.498 107.366 133.592V134.208C107.637 133.862 107.954 133.596 108.318 133.41C108.692 133.223 109.154 133.13 109.704 133.13C110.6 133.13 111.296 133.419 111.79 133.998C112.294 134.567 112.546 135.328 112.546 136.28V140.228C112.546 140.321 112.514 140.4 112.448 140.466C112.392 140.522 112.318 140.55 112.224 140.55H111.524C111.431 140.55 111.352 140.522 111.286 140.466C111.23 140.4 111.202 140.321 111.202 140.228V136.35C111.202 135.687 111.039 135.174 110.712 134.81C110.395 134.446 109.933 134.264 109.326 134.264C108.738 134.264 108.272 134.45 107.926 134.824C107.581 135.188 107.408 135.696 107.408 136.35V140.228C107.408 140.321 107.376 140.4 107.31 140.466C107.254 140.522 107.18 140.55 107.086 140.55H106.386ZM116.584 140.69C116.127 140.69 115.702 140.596 115.31 140.41C114.918 140.223 114.606 139.971 114.372 139.654C114.148 139.327 114.036 138.968 114.036 138.576C114.036 137.96 114.288 137.456 114.792 137.064C115.306 136.662 115.996 136.401 116.864 136.28L118.95 135.986V135.58C118.95 134.628 118.404 134.152 117.312 134.152C116.902 134.152 116.566 134.24 116.304 134.418C116.043 134.586 115.847 134.786 115.716 135.02C115.688 135.104 115.651 135.164 115.604 135.202C115.567 135.239 115.511 135.258 115.436 135.258H114.834C114.75 135.258 114.676 135.23 114.61 135.174C114.554 135.108 114.526 135.034 114.526 134.95C114.536 134.726 114.638 134.474 114.834 134.194C115.04 133.904 115.352 133.657 115.772 133.452C116.192 133.237 116.71 133.13 117.326 133.13C118.372 133.13 119.123 133.377 119.58 133.872C120.038 134.357 120.266 134.964 120.266 135.692V140.228C120.266 140.321 120.234 140.4 120.168 140.466C120.112 140.522 120.038 140.55 119.944 140.55H119.3C119.207 140.55 119.128 140.522 119.062 140.466C119.006 140.4 118.978 140.321 118.978 140.228V139.626C118.773 139.924 118.474 140.176 118.082 140.382C117.69 140.587 117.191 140.69 116.584 140.69ZM116.878 139.64C117.485 139.64 117.98 139.444 118.362 139.052C118.754 138.65 118.95 138.076 118.95 137.33V136.938L117.326 137.176C116.664 137.269 116.164 137.428 115.828 137.652C115.492 137.866 115.324 138.142 115.324 138.478C115.324 138.851 115.478 139.14 115.786 139.346C116.094 139.542 116.458 139.64 116.878 139.64ZM122.601 140.55C122.508 140.55 122.428 140.522 122.363 140.466C122.307 140.4 122.279 140.321 122.279 140.228V133.592C122.279 133.498 122.307 133.424 122.363 133.368C122.428 133.302 122.508 133.27 122.601 133.27H123.259C123.352 133.27 123.427 133.302 123.483 133.368C123.548 133.424 123.581 133.498 123.581 133.592V134.208C123.852 133.862 124.169 133.596 124.533 133.41C124.906 133.223 125.368 133.13 125.919 133.13C126.815 133.13 127.51 133.419 128.005 133.998C128.509 134.567 128.761 135.328 128.761 136.28V140.228C128.761 140.321 128.728 140.4 128.663 140.466C128.607 140.522 128.532 140.55 128.439 140.55H127.739C127.646 140.55 127.566 140.522 127.501 140.466C127.445 140.4 127.417 140.321 127.417 140.228V136.35C127.417 135.687 127.254 135.174 126.927 134.81C126.61 134.446 126.148 134.264 125.541 134.264C124.953 134.264 124.486 134.45 124.141 134.824C123.796 135.188 123.623 135.696 123.623 136.35V140.228C123.623 140.321 123.59 140.4 123.525 140.466C123.469 140.522 123.394 140.55 123.301 140.55H122.601ZM132.799 140.69C132.342 140.69 131.917 140.596 131.525 140.41C131.133 140.223 130.821 139.971 130.587 139.654C130.363 139.327 130.251 138.968 130.251 138.576C130.251 137.96 130.503 137.456 131.007 137.064C131.521 136.662 132.211 136.401 133.079 136.28L135.165 135.986V135.58C135.165 134.628 134.619 134.152 133.527 134.152C133.117 134.152 132.781 134.24 132.519 134.418C132.258 134.586 132.062 134.786 131.931 135.02C131.903 135.104 131.866 135.164 131.819 135.202C131.782 135.239 131.726 135.258 131.651 135.258H131.049C130.965 135.258 130.891 135.23 130.825 135.174C130.769 135.108 130.741 135.034 130.741 134.95C130.751 134.726 130.853 134.474 131.049 134.194C131.255 133.904 131.567 133.657 131.987 133.452C132.407 133.237 132.925 133.13 133.541 133.13C134.587 133.13 135.338 133.377 135.795 133.872C136.253 134.357 136.481 134.964 136.481 135.692V140.228C136.481 140.321 136.449 140.4 136.383 140.466C136.327 140.522 136.253 140.55 136.159 140.55H135.515C135.422 140.55 135.343 140.522 135.277 140.466C135.221 140.4 135.193 140.321 135.193 140.228V139.626C134.988 139.924 134.689 140.176 134.297 140.382C133.905 140.587 133.406 140.69 132.799 140.69ZM133.093 139.64C133.7 139.64 134.195 139.444 134.577 139.052C134.969 138.65 135.165 138.076 135.165 137.33V136.938L133.541 137.176C132.879 137.269 132.379 137.428 132.043 137.652C131.707 137.866 131.539 138.142 131.539 138.478C131.539 138.851 131.693 139.14 132.001 139.346C132.309 139.542 132.673 139.64 133.093 139.64ZM144.908 140.69C143.881 140.69 143.083 140.4 142.514 139.822C141.954 139.243 141.655 138.473 141.618 137.512L141.604 136.91L141.618 136.308C141.655 135.356 141.958 134.59 142.528 134.012C143.097 133.424 143.89 133.13 144.908 133.13C145.925 133.13 146.718 133.424 147.288 134.012C147.857 134.59 148.16 135.356 148.198 136.308C148.207 136.41 148.212 136.611 148.212 136.91C148.212 137.208 148.207 137.409 148.198 137.512C148.16 138.473 147.857 139.243 147.288 139.822C146.728 140.4 145.934 140.69 144.908 140.69ZM144.908 139.612C145.496 139.612 145.958 139.425 146.294 139.052C146.639 138.678 146.826 138.142 146.854 137.442C146.863 137.348 146.868 137.171 146.868 136.91C146.868 136.648 146.863 136.471 146.854 136.378C146.826 135.678 146.639 135.141 146.294 134.768C145.958 134.394 145.496 134.208 144.908 134.208C144.32 134.208 143.853 134.394 143.508 134.768C143.162 135.141 142.98 135.678 142.962 136.378L142.948 136.91L142.962 137.442C142.98 138.142 143.162 138.678 143.508 139.052C143.853 139.425 144.32 139.612 144.908 139.612ZM150.287 140.55C150.193 140.55 150.114 140.522 150.049 140.466C149.993 140.4 149.965 140.321 149.965 140.228V133.592C149.965 133.498 149.993 133.424 150.049 133.368C150.114 133.302 150.193 133.27 150.287 133.27H150.945C151.038 133.27 151.113 133.302 151.169 133.368C151.234 133.424 151.267 133.498 151.267 133.592V134.208C151.537 133.862 151.855 133.596 152.219 133.41C152.592 133.223 153.054 133.13 153.605 133.13C154.501 133.13 155.196 133.419 155.691 133.998C156.195 134.567 156.447 135.328 156.447 136.28V140.228C156.447 140.321 156.414 140.4 156.349 140.466C156.293 140.522 156.218 140.55 156.125 140.55H155.425C155.331 140.55 155.252 140.522 155.187 140.466C155.131 140.4 155.103 140.321 155.103 140.228V136.35C155.103 135.687 154.939 135.174 154.613 134.81C154.295 134.446 153.833 134.264 153.227 134.264C152.639 134.264 152.172 134.45 151.827 134.824C151.481 135.188 151.309 135.696 151.309 136.35V140.228C151.309 140.321 151.276 140.4 151.211 140.466C151.155 140.522 151.08 140.55 150.987 140.55H150.287ZM164.177 140.55C164.084 140.55 164.004 140.522 163.939 140.466C163.883 140.4 163.855 140.321 163.855 140.228V131.996H161.167C161.074 131.996 160.994 131.968 160.929 131.912C160.873 131.846 160.845 131.767 160.845 131.674V131.086C160.845 130.992 160.873 130.913 160.929 130.848C160.994 130.782 161.074 130.75 161.167 130.75H167.915C168.018 130.75 168.097 130.782 168.153 130.848C168.218 130.904 168.251 130.983 168.251 131.086V131.674C168.251 131.767 168.218 131.846 168.153 131.912C168.088 131.968 168.008 131.996 167.915 131.996H165.241V140.228C165.241 140.321 165.208 140.4 165.143 140.466C165.078 140.522 164.998 140.55 164.905 140.55H164.177ZM171.281 140.69C170.254 140.69 169.456 140.4 168.887 139.822C168.327 139.243 168.028 138.473 167.991 137.512L167.977 136.91L167.991 136.308C168.028 135.356 168.331 134.59 168.901 134.012C169.47 133.424 170.263 133.13 171.281 133.13C172.298 133.13 173.091 133.424 173.661 134.012C174.23 134.59 174.533 135.356 174.571 136.308C174.58 136.41 174.585 136.611 174.585 136.91C174.585 137.208 174.58 137.409 174.571 137.512C174.533 138.473 174.23 139.243 173.661 139.822C173.101 140.4 172.307 140.69 171.281 140.69ZM171.281 139.612C171.869 139.612 172.331 139.425 172.667 139.052C173.012 138.678 173.199 138.142 173.227 137.442C173.236 137.348 173.241 137.171 173.241 136.91C173.241 136.648 173.236 136.471 173.227 136.378C173.199 135.678 173.012 135.141 172.667 134.768C172.331 134.394 171.869 134.208 171.281 134.208C170.693 134.208 170.226 134.394 169.881 134.768C169.535 135.141 169.353 135.678 169.335 136.378L169.321 136.91L169.335 137.442C169.353 138.142 169.535 138.678 169.881 139.052C170.226 139.425 170.693 139.612 171.281 139.612ZM176.674 143.21C176.58 143.21 176.501 143.177 176.436 143.112C176.38 143.056 176.352 142.981 176.352 142.888V133.592C176.352 133.498 176.38 133.424 176.436 133.368C176.501 133.302 176.58 133.27 176.674 133.27H177.318C177.411 133.27 177.486 133.302 177.542 133.368C177.607 133.424 177.64 133.498 177.64 133.592V134.208C178.162 133.489 178.928 133.13 179.936 133.13C180.916 133.13 181.648 133.438 182.134 134.054C182.628 134.67 182.894 135.463 182.932 136.434C182.941 136.536 182.946 136.695 182.946 136.91C182.946 137.124 182.941 137.283 182.932 137.386C182.894 138.347 182.628 139.14 182.134 139.766C181.639 140.382 180.906 140.69 179.936 140.69C178.965 140.69 178.209 140.34 177.668 139.64V142.888C177.668 142.981 177.64 143.056 177.584 143.112C177.528 143.177 177.453 143.21 177.36 143.21H176.674ZM179.642 139.556C180.304 139.556 180.785 139.35 181.084 138.94C181.392 138.529 181.56 137.988 181.588 137.316C181.597 137.222 181.602 137.087 181.602 136.91C181.602 135.146 180.948 134.264 179.642 134.264C178.998 134.264 178.512 134.478 178.186 134.908C177.868 135.328 177.696 135.832 177.668 136.42L177.654 136.952L177.668 137.498C177.686 138.048 177.864 138.529 178.2 138.94C178.536 139.35 179.016 139.556 179.642 139.556Z" fill="#4F5665"/>
<path d="M46.6717 20.5496C46.5784 20.5496 46.499 20.5216 46.4337 20.4656C46.3777 20.4002 46.3497 20.3209 46.3497 20.2276V11.0856C46.3497 10.9829 46.3777 10.9036 46.4337 10.8476C46.499 10.7822 46.5784 10.7496 46.6717 10.7496H47.3857C47.4884 10.7496 47.5677 10.7822 47.6237 10.8476C47.689 10.9036 47.7217 10.9829 47.7217 11.0856V14.9496H52.5377V11.0856C52.5377 10.9829 52.5657 10.9036 52.6217 10.8476C52.687 10.7822 52.7664 10.7496 52.8597 10.7496H53.5737C53.6764 10.7496 53.7557 10.7822 53.8117 10.8476C53.877 10.9036 53.9097 10.9829 53.9097 11.0856V20.2276C53.9097 20.3209 53.877 20.4002 53.8117 20.4656C53.7464 20.5216 53.667 20.5496 53.5737 20.5496H52.8597C52.7664 20.5496 52.687 20.5216 52.6217 20.4656C52.5657 20.4002 52.5377 20.3209 52.5377 20.2276V16.2096H47.7217V20.2276C47.7217 20.3209 47.689 20.4002 47.6237 20.4656C47.5584 20.5216 47.479 20.5496 47.3857 20.5496H46.6717ZM58.1919 20.6896C57.7345 20.6896 57.3099 20.5962 56.9179 20.4096C56.5259 20.2229 56.2132 19.9709 55.9799 19.6536C55.7559 19.3269 55.6439 18.9676 55.6439 18.5756C55.6439 17.9596 55.8959 17.4556 56.3999 17.0636C56.9132 16.6622 57.6039 16.4009 58.4719 16.2796L60.5579 15.9856V15.5796C60.5579 14.6276 60.0119 14.1516 58.9199 14.1516C58.5092 14.1516 58.1732 14.2402 57.9119 14.4176C57.6505 14.5856 57.4545 14.7862 57.3239 15.0196C57.2959 15.1036 57.2585 15.1642 57.2119 15.2016C57.1745 15.2389 57.1185 15.2576 57.0439 15.2576H56.4419C56.3579 15.2576 56.2832 15.2296 56.2179 15.1736C56.1619 15.1082 56.1339 15.0336 56.1339 14.9496C56.1432 14.7256 56.2459 14.4736 56.4419 14.1936C56.6472 13.9042 56.9599 13.6569 57.3799 13.4516C57.7999 13.2369 58.3179 13.1296 58.9339 13.1296C59.9792 13.1296 60.7305 13.3769 61.1879 13.8716C61.6452 14.3569 61.8739 14.9636 61.8739 15.6916V20.2276C61.8739 20.3209 61.8412 20.4002 61.7759 20.4656C61.7199 20.5216 61.6452 20.5496 61.5519 20.5496H60.9079C60.8145 20.5496 60.7352 20.5216 60.6699 20.4656C60.6139 20.4002 60.5859 20.3209 60.5859 20.2276V19.6256C60.3805 19.9242 60.0819 20.1762 59.6899 20.3816C59.2979 20.5869 58.7985 20.6896 58.1919 20.6896ZM58.4859 19.6396C59.0925 19.6396 59.5872 19.4436 59.9699 19.0516C60.3619 18.6502 60.5579 18.0762 60.5579 17.3296V16.9376L58.9339 17.1756C58.2712 17.2689 57.7719 17.4276 57.4359 17.6516C57.0999 17.8662 56.9319 18.1416 56.9319 18.4776C56.9319 18.8509 57.0859 19.1402 57.3939 19.3456C57.7019 19.5416 58.0659 19.6396 58.4859 19.6396ZM63.7465 20.5496C63.6531 20.5496 63.5738 20.5216 63.5085 20.4656C63.4525 20.4002 63.4245 20.3209 63.4245 20.2276V19.7376C63.4245 19.6629 63.4431 19.5882 63.4805 19.5136C63.5271 19.4296 63.5738 19.3549 63.6205 19.2896L67.4845 14.3756H63.8725C63.7791 14.3756 63.6998 14.3476 63.6345 14.2916C63.5785 14.2262 63.5505 14.1469 63.5505 14.0536V13.5916C63.5505 13.4982 63.5785 13.4236 63.6345 13.3676C63.6998 13.3022 63.7791 13.2696 63.8725 13.2696H68.8565C68.9498 13.2696 69.0245 13.3022 69.0805 13.3676C69.1458 13.4236 69.1785 13.4982 69.1785 13.5916V14.1096C69.1785 14.1842 69.1551 14.2589 69.1085 14.3336C69.0711 14.4082 69.0291 14.4782 68.9825 14.5436L65.1605 19.4436H69.1365C69.2391 19.4436 69.3185 19.4716 69.3745 19.5276C69.4305 19.5836 69.4585 19.6629 69.4585 19.7656V20.2276C69.4585 20.3209 69.4258 20.4002 69.3605 20.4656C69.3045 20.5216 69.2298 20.5496 69.1365 20.5496H63.7465ZM73.8395 20.6896C72.8781 20.6896 72.1081 20.3956 71.5295 19.8076C70.9601 19.2102 70.6475 18.3982 70.5915 17.3716L70.5775 16.8956L70.5915 16.4336C70.6568 15.4256 70.9741 14.6229 71.5435 14.0256C72.1221 13.4282 72.8828 13.1296 73.8255 13.1296C74.8615 13.1296 75.6641 13.4609 76.2335 14.1236C76.8028 14.7769 77.0875 15.6636 77.0875 16.7836V17.0216C77.0875 17.1149 77.0548 17.1942 76.9895 17.2596C76.9335 17.3156 76.8588 17.3436 76.7655 17.3436H71.9215V17.4696C71.9495 18.0762 72.1315 18.5942 72.4675 19.0236C72.8128 19.4436 73.2655 19.6536 73.8255 19.6536C74.2548 19.6536 74.6048 19.5696 74.8755 19.4016C75.1555 19.2242 75.3608 19.0422 75.4915 18.8556C75.5755 18.7436 75.6361 18.6782 75.6735 18.6596C75.7201 18.6316 75.7995 18.6176 75.9115 18.6176H76.5975C76.6815 18.6176 76.7515 18.6409 76.8075 18.6876C76.8635 18.7342 76.8915 18.7996 76.8915 18.8836C76.8915 19.0889 76.7608 19.3362 76.4995 19.6256C76.2475 19.9149 75.8881 20.1669 75.4215 20.3816C74.9641 20.5869 74.4368 20.6896 73.8395 20.6896ZM75.7575 16.3776V16.3356C75.7575 15.6916 75.5801 15.1689 75.2255 14.7676C74.8801 14.3569 74.4135 14.1516 73.8255 14.1516C73.2375 14.1516 72.7708 14.3569 72.4255 14.7676C72.0895 15.1689 71.9215 15.6916 71.9215 16.3356V16.3776H75.7575ZM79.0975 20.5496C79.0041 20.5496 78.9248 20.5216 78.8595 20.4656C78.8035 20.4002 78.7755 20.3209 78.7755 20.2276V10.9316C78.7755 10.8382 78.8035 10.7636 78.8595 10.7076C78.9248 10.6422 79.0041 10.6096 79.0975 10.6096H79.7555C79.8488 10.6096 79.9235 10.6422 79.9795 10.7076C80.0448 10.7636 80.0775 10.8382 80.0775 10.9316V20.2276C80.0775 20.3209 80.0448 20.4002 79.9795 20.4656C79.9235 20.5216 79.8488 20.5496 79.7555 20.5496H79.0975ZM82.4878 20.5496C82.3944 20.5496 82.3151 20.5216 82.2498 20.4656C82.1938 20.4002 82.1658 20.3209 82.1658 20.2276V13.5916C82.1658 13.4982 82.1938 13.4236 82.2498 13.3676C82.3151 13.3022 82.3944 13.2696 82.4878 13.2696H83.1458C83.2391 13.2696 83.3138 13.3022 83.3698 13.3676C83.4351 13.4236 83.4678 13.4982 83.4678 13.5916V14.2076C83.7384 13.8622 84.0558 13.5962 84.4198 13.4096C84.7931 13.2229 85.2551 13.1296 85.8058 13.1296C86.7018 13.1296 87.3971 13.4189 87.8918 13.9976C88.3958 14.5669 88.6478 15.3276 88.6478 16.2796V20.2276C88.6478 20.3209 88.6151 20.4002 88.5498 20.4656C88.4938 20.5216 88.4191 20.5496 88.3258 20.5496H87.6258C87.5324 20.5496 87.4531 20.5216 87.3878 20.4656C87.3318 20.4002 87.3038 20.3209 87.3038 20.2276V16.3496C87.3038 15.6869 87.1404 15.1736 86.8138 14.8096C86.4964 14.4456 86.0344 14.2636 85.4278 14.2636C84.8398 14.2636 84.3731 14.4502 84.0278 14.8236C83.6824 15.1876 83.5098 15.6962 83.5098 16.3496V20.2276C83.5098 20.3209 83.4771 20.4002 83.4118 20.4656C83.3558 20.5216 83.2811 20.5496 83.1878 20.5496H82.4878ZM93.372 20.6896C92.4853 20.6896 91.7993 20.4049 91.314 19.8356C90.8287 19.2569 90.586 18.4916 90.586 17.5396V13.5916C90.586 13.4982 90.614 13.4236 90.67 13.3676C90.7353 13.3022 90.8147 13.2696 90.908 13.2696H91.608C91.7013 13.2696 91.776 13.3022 91.832 13.3676C91.8973 13.4236 91.93 13.4982 91.93 13.5916V17.4696C91.93 18.8602 92.5367 19.5556 93.75 19.5556C94.338 19.5556 94.8047 19.3736 95.15 19.0096C95.4953 18.6362 95.668 18.1229 95.668 17.4696V13.5916C95.668 13.4982 95.696 13.4236 95.752 13.3676C95.8173 13.3022 95.8967 13.2696 95.99 13.2696H96.69C96.7833 13.2696 96.858 13.3022 96.914 13.3676C96.97 13.4236 96.998 13.4982 96.998 13.5916V20.2276C96.998 20.3209 96.97 20.4002 96.914 20.4656C96.858 20.5216 96.7833 20.5496 96.69 20.5496H96.032C95.9387 20.5496 95.8593 20.5216 95.794 20.4656C95.738 20.4002 95.71 20.3209 95.71 20.2276V19.6116C95.4487 19.9662 95.1313 20.2369 94.758 20.4236C94.3847 20.6009 93.9227 20.6896 93.372 20.6896ZM101.92 20.5496C100.445 20.5496 99.7079 19.7282 99.7079 18.0856V14.3896H98.6159C98.5225 14.3896 98.4432 14.3616 98.3779 14.3056C98.3219 14.2402 98.2939 14.1609 98.2939 14.0676V13.5916C98.2939 13.4982 98.3219 13.4236 98.3779 13.3676C98.4432 13.3022 98.5225 13.2696 98.6159 13.2696H99.7079V10.9316C99.7079 10.8382 99.7359 10.7636 99.7919 10.7076C99.8572 10.6422 99.9365 10.6096 100.03 10.6096H100.688C100.781 10.6096 100.856 10.6422 100.912 10.7076C100.977 10.7636 101.01 10.8382 101.01 10.9316V13.2696H102.746C102.839 13.2696 102.914 13.3022 102.97 13.3676C103.035 13.4236 103.068 13.4982 103.068 13.5916V14.0676C103.068 14.1609 103.035 14.2402 102.97 14.3056C102.914 14.3616 102.839 14.3896 102.746 14.3896H101.01V17.9876C101.01 18.4542 101.089 18.8089 101.248 19.0516C101.407 19.2849 101.668 19.4016 102.032 19.4016H102.886C102.979 19.4016 103.054 19.4342 103.11 19.4996C103.175 19.5556 103.208 19.6302 103.208 19.7236V20.2276C103.208 20.3209 103.175 20.4002 103.11 20.4656C103.054 20.5216 102.979 20.5496 102.886 20.5496H101.92ZM107.879 20.6896C107.104 20.6896 106.432 20.5682 105.863 20.3256C105.303 20.0829 104.873 19.7656 104.575 19.3736C104.276 18.9722 104.117 18.5429 104.099 18.0856C104.099 18.0109 104.127 17.9456 104.183 17.8896C104.248 17.8242 104.323 17.7916 104.407 17.7916H105.121C105.298 17.7916 105.419 17.8849 105.485 18.0716C105.569 18.4636 105.807 18.7996 106.199 19.0796C106.6 19.3596 107.16 19.4996 107.879 19.4996C108.653 19.4996 109.237 19.3642 109.629 19.0936C110.021 18.8136 110.217 18.4262 110.217 17.9316C110.217 17.6142 110.119 17.3576 109.923 17.1616C109.736 16.9656 109.456 16.7929 109.083 16.6436C108.709 16.4942 108.149 16.3076 107.403 16.0836C106.675 15.8782 106.096 15.6589 105.667 15.4256C105.237 15.1922 104.915 14.9029 104.701 14.5576C104.486 14.2122 104.379 13.7782 104.379 13.2556C104.379 12.7516 104.514 12.2989 104.785 11.8976C105.065 11.4962 105.461 11.1836 105.975 10.9596C106.488 10.7262 107.099 10.6096 107.809 10.6096C108.537 10.6096 109.162 10.7402 109.685 11.0016C110.207 11.2536 110.604 11.5756 110.875 11.9676C111.145 12.3596 111.29 12.7516 111.309 13.1436C111.309 13.2182 111.281 13.2836 111.225 13.3396C111.178 13.3956 111.108 13.4236 111.015 13.4236H110.273C110.077 13.4236 109.955 13.3349 109.909 13.1576C109.853 12.7656 109.633 12.4436 109.251 12.1916C108.868 11.9302 108.387 11.7996 107.809 11.7996C107.174 11.7996 106.675 11.9209 106.311 12.1636C105.947 12.4062 105.765 12.7656 105.765 13.2416C105.765 13.5589 105.849 13.8202 106.017 14.0256C106.194 14.2309 106.46 14.4129 106.815 14.5716C107.169 14.7209 107.687 14.8936 108.369 15.0896C109.162 15.3042 109.787 15.5282 110.245 15.7616C110.702 15.9856 111.043 16.2702 111.267 16.6156C111.491 16.9516 111.603 17.3809 111.603 17.9036C111.603 18.7716 111.267 19.4529 110.595 19.9476C109.923 20.4422 109.017 20.6896 107.879 20.6896ZM114.516 23.2096C114.441 23.2096 114.376 23.1816 114.32 23.1256C114.264 23.0696 114.236 23.0042 114.236 22.9296C114.236 22.8642 114.259 22.7802 114.306 22.6776L115.384 20.1156L112.71 13.8016C112.663 13.6802 112.64 13.6009 112.64 13.5636C112.64 13.4796 112.668 13.4096 112.724 13.3536C112.78 13.2976 112.85 13.2696 112.934 13.2696H113.62C113.769 13.2696 113.881 13.3489 113.956 13.5076L116.084 18.6036L118.268 13.5076C118.343 13.3489 118.459 13.2696 118.618 13.2696H119.276C119.36 13.2696 119.43 13.2976 119.486 13.3536C119.542 13.4096 119.57 13.4749 119.57 13.5496C119.57 13.5776 119.547 13.6616 119.5 13.8016L115.524 22.9716C115.449 23.1302 115.333 23.2096 115.174 23.2096H114.516ZM121.289 20.5496C121.195 20.5496 121.116 20.5216 121.051 20.4656C120.995 20.4002 120.967 20.3209 120.967 20.2276V13.6056C120.967 13.5122 120.995 13.4329 121.051 13.3676C121.116 13.3022 121.195 13.2696 121.289 13.2696H121.933C122.026 13.2696 122.105 13.3022 122.171 13.3676C122.236 13.4329 122.269 13.5122 122.269 13.6056V14.2216C122.651 13.5869 123.305 13.2696 124.229 13.2696H124.775C124.868 13.2696 124.943 13.3022 124.999 13.3676C125.064 13.4236 125.097 13.4982 125.097 13.5916V14.1656C125.097 14.2589 125.064 14.3336 124.999 14.3896C124.943 14.4456 124.868 14.4736 124.775 14.4736H123.935C123.431 14.4736 123.034 14.6229 122.745 14.9216C122.455 15.2109 122.311 15.6076 122.311 16.1116V20.2276C122.311 20.3209 122.278 20.4002 122.213 20.4656C122.147 20.5216 122.068 20.5496 121.975 20.5496H121.289ZM129.001 20.6896C128.114 20.6896 127.428 20.4049 126.943 19.8356C126.458 19.2569 126.215 18.4916 126.215 17.5396V13.5916C126.215 13.4982 126.243 13.4236 126.299 13.3676C126.364 13.3022 126.444 13.2696 126.537 13.2696H127.237C127.33 13.2696 127.405 13.3022 127.461 13.3676C127.526 13.4236 127.559 13.4982 127.559 13.5916V17.4696C127.559 18.8602 128.166 19.5556 129.379 19.5556C129.967 19.5556 130.434 19.3736 130.779 19.0096C131.124 18.6362 131.297 18.1229 131.297 17.4696V13.5916C131.297 13.4982 131.325 13.4236 131.381 13.3676C131.446 13.3022 131.526 13.2696 131.619 13.2696H132.319C132.412 13.2696 132.487 13.3022 132.543 13.3676C132.599 13.4236 132.627 13.4982 132.627 13.5916V20.2276C132.627 20.3209 132.599 20.4002 132.543 20.4656C132.487 20.5216 132.412 20.5496 132.319 20.5496H131.661C131.568 20.5496 131.488 20.5216 131.423 20.4656C131.367 20.4002 131.339 20.3209 131.339 20.2276V19.6116C131.078 19.9662 130.76 20.2369 130.387 20.4236C130.014 20.6009 129.552 20.6896 129.001 20.6896ZM135.043 23.2096C134.949 23.2096 134.87 23.1769 134.805 23.1116C134.749 23.0556 134.721 22.9809 134.721 22.8876V13.5916C134.721 13.4982 134.749 13.4236 134.805 13.3676C134.87 13.3022 134.949 13.2696 135.043 13.2696H135.687C135.78 13.2696 135.855 13.3022 135.911 13.3676C135.976 13.4236 136.009 13.4982 136.009 13.5916V14.2076C136.531 13.4889 137.297 13.1296 138.305 13.1296C139.285 13.1296 140.017 13.4376 140.503 14.0536C140.997 14.6696 141.263 15.4629 141.301 16.4336C141.31 16.5362 141.315 16.6949 141.315 16.9096C141.315 17.1242 141.31 17.2829 141.301 17.3856C141.263 18.3469 140.997 19.1402 140.503 19.7656C140.008 20.3816 139.275 20.6896 138.305 20.6896C137.334 20.6896 136.578 20.3396 136.037 19.6396V22.8876C136.037 22.9809 136.009 23.0556 135.953 23.1116C135.897 23.1769 135.822 23.2096 135.729 23.2096H135.043ZM138.011 19.5556C138.673 19.5556 139.154 19.3502 139.453 18.9396C139.761 18.5289 139.929 17.9876 139.957 17.3156C139.966 17.2222 139.971 17.0869 139.971 16.9096C139.971 15.1456 139.317 14.2636 138.011 14.2636C137.367 14.2636 136.881 14.4782 136.555 14.9076C136.237 15.3276 136.065 15.8316 136.037 16.4196L136.023 16.9516L136.037 17.4976C136.055 18.0482 136.233 18.5289 136.569 18.9396C136.905 19.3502 137.385 19.5556 138.011 19.5556Z" fill="#4F5665"/>
<path d="M11.4486 20.2796C11.3174 20.2798 11.1873 20.2542 11.066 20.2041C10.9447 20.154 10.8345 20.0804 10.7416 19.9876L6.49963 15.7446C6.40406 15.6524 6.3278 15.5421 6.27531 15.4201C6.22282 15.2982 6.19514 15.167 6.19389 15.0342C6.19264 14.9014 6.21785 14.7697 6.26805 14.6468C6.31824 14.5239 6.39242 14.4122 6.48624 14.3182C6.58007 14.2242 6.69166 14.1499 6.81452 14.0995C6.93738 14.0492 7.06904 14.0238 7.20182 14.0248C7.3346 14.0259 7.46584 14.0534 7.58788 14.1057C7.70992 14.158 7.82032 14.2341 7.91263 14.3296L11.4476 17.8646L17.8126 11.5016C18.0001 11.3139 18.2545 11.2085 18.5198 11.2084C18.7851 11.2083 19.0395 11.3136 19.2271 11.5011C19.4148 11.6886 19.5202 11.943 19.5203 12.2082C19.5204 12.4735 19.4151 12.7279 19.2276 12.9156L12.1556 19.9876C12.0628 20.0804 11.9526 20.154 11.8313 20.2041C11.7099 20.2542 11.5799 20.2798 11.4486 20.2796Z" fill="#2FAB73"/>
</svg>
