<svg width="206" height="191" viewBox="0 0 206 191" fill="none" xmlns="http://www.w3.org/2000/svg">
<path d="M49.4002 60.5496C49.1482 60.5496 48.9755 60.4282 48.8822 60.1856L45.7602 51.1836L45.7322 51.0296C45.7322 50.9549 45.7602 50.8896 45.8162 50.8336C45.8722 50.7776 45.9375 50.7496 46.0122 50.7496H46.7402C46.9175 50.7496 47.0435 50.8336 47.1182 51.0016L49.8482 58.9396L52.5922 51.0016C52.6109 50.9456 52.6529 50.8896 52.7182 50.8336C52.7835 50.7776 52.8629 50.7496 52.9562 50.7496H53.6842C53.7589 50.7496 53.8242 50.7776 53.8802 50.8336C53.9455 50.8896 53.9782 50.9549 53.9782 51.0296L53.9502 51.1836L50.8142 60.1856C50.7209 60.4282 50.5529 60.5496 50.3102 60.5496H49.4002ZM56.7307 60.6896C56.2734 60.6896 55.8487 60.5962 55.4567 60.4096C55.0647 60.2229 54.7521 59.9709 54.5187 59.6536C54.2947 59.3269 54.1827 58.9676 54.1827 58.5756C54.1827 57.9596 54.4347 57.4556 54.9387 57.0636C55.4521 56.6622 56.1427 56.4009 57.0107 56.2796L59.0967 55.9856V55.5796C59.0967 54.6276 58.5507 54.1516 57.4587 54.1516C57.0481 54.1516 56.7121 54.2402 56.4507 54.4176C56.1894 54.5856 55.9934 54.7862 55.8627 55.0196C55.8347 55.1036 55.7974 55.1642 55.7507 55.2016C55.7134 55.2389 55.6574 55.2576 55.5827 55.2576H54.9807C54.8967 55.2576 54.8221 55.2296 54.7567 55.1736C54.7007 55.1082 54.6727 55.0336 54.6727 54.9496C54.6821 54.7256 54.7847 54.4736 54.9807 54.1936C55.1861 53.9042 55.4987 53.6569 55.9187 53.4516C56.3387 53.2369 56.8567 53.1296 57.4727 53.1296C58.5181 53.1296 59.2694 53.3769 59.7267 53.8716C60.1841 54.3569 60.4127 54.9636 60.4127 55.6916V60.2276C60.4127 60.3209 60.3801 60.4002 60.3147 60.4656C60.2587 60.5216 60.1841 60.5496 60.0907 60.5496H59.4467C59.3534 60.5496 59.2741 60.5216 59.2087 60.4656C59.1527 60.4002 59.1247 60.3209 59.1247 60.2276V59.6256C58.9194 59.9242 58.6207 60.1762 58.2287 60.3816C57.8367 60.5869 57.3374 60.6896 56.7307 60.6896ZM57.0247 59.6396C57.6314 59.6396 58.1261 59.4436 58.5087 59.0516C58.9007 58.6502 59.0967 58.0762 59.0967 57.3296V56.9376L57.4727 57.1756C56.8101 57.2689 56.3107 57.4276 55.9747 57.6516C55.6387 57.8662 55.4707 58.1416 55.4707 58.4776C55.4707 58.8509 55.6247 59.1402 55.9327 59.3456C56.2407 59.5416 56.6047 59.6396 57.0247 59.6396ZM62.7473 60.5496C62.654 60.5496 62.5747 60.5216 62.5093 60.4656C62.4533 60.4002 62.4253 60.3209 62.4253 60.2276V53.5916C62.4253 53.4982 62.4533 53.4236 62.5093 53.3676C62.5747 53.3022 62.654 53.2696 62.7473 53.2696H63.4053C63.4987 53.2696 63.5733 53.3022 63.6293 53.3676C63.6947 53.4236 63.7273 53.4982 63.7273 53.5916V54.2076C63.998 53.8622 64.3153 53.5962 64.6793 53.4096C65.0527 53.2229 65.5147 53.1296 66.0653 53.1296C66.9613 53.1296 67.6567 53.4189 68.1513 53.9976C68.6553 54.5669 68.9073 55.3276 68.9073 56.2796V60.2276C68.9073 60.3209 68.8747 60.4002 68.8093 60.4656C68.7533 60.5216 68.6787 60.5496 68.5853 60.5496H67.8853C67.792 60.5496 67.7127 60.5216 67.6473 60.4656C67.5913 60.4002 67.5633 60.3209 67.5633 60.2276V56.3496C67.5633 55.6869 67.4 55.1736 67.0733 54.8096C66.756 54.4456 66.294 54.2636 65.6873 54.2636C65.0993 54.2636 64.6327 54.4502 64.2873 54.8236C63.942 55.1876 63.7693 55.6962 63.7693 56.3496V60.2276C63.7693 60.3209 63.7367 60.4002 63.6713 60.4656C63.6153 60.5216 63.5407 60.5496 63.4473 60.5496H62.7473ZM71.1256 51.9116C71.0322 51.9116 70.9529 51.8836 70.8876 51.8276C70.8316 51.7622 70.8036 51.6829 70.8036 51.5896V50.8336C70.8036 50.7402 70.8316 50.6609 70.8876 50.5956C70.9529 50.5302 71.0322 50.4976 71.1256 50.4976H72.0076C72.1009 50.4976 72.1802 50.5302 72.2456 50.5956C72.3109 50.6609 72.3436 50.7402 72.3436 50.8336V51.5896C72.3436 51.6829 72.3109 51.7622 72.2456 51.8276C72.1802 51.8836 72.1009 51.9116 72.0076 51.9116H71.1256ZM71.2376 60.5496C71.1442 60.5496 71.0649 60.5216 70.9996 60.4656C70.9436 60.4002 70.9156 60.3209 70.9156 60.2276V53.5916C70.9156 53.4982 70.9436 53.4236 70.9996 53.3676C71.0649 53.3022 71.1442 53.2696 71.2376 53.2696H71.9096C72.0029 53.2696 72.0776 53.3022 72.1336 53.3676C72.1989 53.4236 72.2316 53.4982 72.2316 53.5916V60.2276C72.2316 60.3209 72.1989 60.4002 72.1336 60.4656C72.0776 60.5216 72.0029 60.5496 71.9096 60.5496H71.2376ZM74.6422 60.5496C74.5489 60.5496 74.4695 60.5216 74.4042 60.4656C74.3482 60.4002 74.3202 60.3209 74.3202 60.2276V50.9316C74.3202 50.8382 74.3482 50.7636 74.4042 50.7076C74.4695 50.6422 74.5489 50.6096 74.6422 50.6096H75.3002C75.3935 50.6096 75.4682 50.6422 75.5242 50.7076C75.5895 50.7636 75.6222 50.8382 75.6222 50.9316V60.2276C75.6222 60.3209 75.5895 60.4002 75.5242 60.4656C75.4682 60.5216 75.3935 60.5496 75.3002 60.5496H74.6422ZM78.0465 60.5496C77.9532 60.5496 77.8738 60.5216 77.8085 60.4656C77.7525 60.4002 77.7245 60.3209 77.7245 60.2276V50.9316C77.7245 50.8382 77.7525 50.7636 77.8085 50.7076C77.8738 50.6422 77.9532 50.6096 78.0465 50.6096H78.7045C78.7978 50.6096 78.8725 50.6422 78.9285 50.7076C78.9938 50.7636 79.0265 50.8382 79.0265 50.9316V60.2276C79.0265 60.3209 78.9938 60.4002 78.9285 60.4656C78.8725 60.5216 78.7978 60.5496 78.7045 60.5496H78.0465ZM83.1448 60.6896C82.6875 60.6896 82.2628 60.5962 81.8708 60.4096C81.4788 60.2229 81.1661 59.9709 80.9328 59.6536C80.7088 59.3269 80.5968 58.9676 80.5968 58.5756C80.5968 57.9596 80.8488 57.4556 81.3528 57.0636C81.8661 56.6622 82.5568 56.4009 83.4248 56.2796L85.5108 55.9856V55.5796C85.5108 54.6276 84.9648 54.1516 83.8728 54.1516C83.4621 54.1516 83.1261 54.2402 82.8648 54.4176C82.6035 54.5856 82.4075 54.7862 82.2768 55.0196C82.2488 55.1036 82.2115 55.1642 82.1648 55.2016C82.1275 55.2389 82.0715 55.2576 81.9968 55.2576H81.3948C81.3108 55.2576 81.2361 55.2296 81.1708 55.1736C81.1148 55.1082 81.0868 55.0336 81.0868 54.9496C81.0961 54.7256 81.1988 54.4736 81.3948 54.1936C81.6001 53.9042 81.9128 53.6569 82.3328 53.4516C82.7528 53.2369 83.2708 53.1296 83.8868 53.1296C84.9321 53.1296 85.6835 53.3769 86.1408 53.8716C86.5981 54.3569 86.8268 54.9636 86.8268 55.6916V60.2276C86.8268 60.3209 86.7941 60.4002 86.7288 60.4656C86.6728 60.5216 86.5981 60.5496 86.5048 60.5496H85.8608C85.7675 60.5496 85.6881 60.5216 85.6228 60.4656C85.5668 60.4002 85.5388 60.3209 85.5388 60.2276V59.6256C85.3335 59.9242 85.0348 60.1762 84.6428 60.3816C84.2508 60.5869 83.7515 60.6896 83.1448 60.6896ZM83.4388 59.6396C84.0455 59.6396 84.5401 59.4436 84.9228 59.0516C85.3148 58.6502 85.5108 58.0762 85.5108 57.3296V56.9376L83.8868 57.1756C83.2241 57.2689 82.7248 57.4276 82.3888 57.6516C82.0528 57.8662 81.8848 58.1416 81.8848 58.4776C81.8848 58.8509 82.0388 59.1402 82.3468 59.3456C82.6548 59.5416 83.0188 59.6396 83.4388 59.6396ZM93.8863 60.5496C93.6436 60.5496 93.499 60.4236 93.4523 60.1716L91.6463 51.1836C91.637 51.1369 91.6323 51.0856 91.6323 51.0296C91.6323 50.9549 91.6603 50.8896 91.7163 50.8336C91.7723 50.7776 91.8376 50.7496 91.9123 50.7496H92.6403C92.8363 50.7496 92.9483 50.8289 92.9763 50.9876L94.4043 58.2116L95.9163 53.2556C96.0003 53.0316 96.1496 52.9196 96.3643 52.9196H96.8823C97.0036 52.9196 97.097 52.9522 97.1623 53.0176C97.237 53.0829 97.2883 53.1622 97.3163 53.2556L98.8423 58.2116L100.256 50.9876C100.284 50.8289 100.401 50.7496 100.606 50.7496H101.334C101.409 50.7496 101.474 50.7776 101.53 50.8336C101.586 50.8896 101.614 50.9549 101.614 51.0296L101.6 51.1836L99.7943 60.1716C99.7383 60.4236 99.5936 60.5496 99.3603 60.5496H98.8143C98.5716 60.5496 98.4176 60.4329 98.3523 60.1996L96.6163 54.8656L94.8943 60.1996C94.8196 60.4329 94.6656 60.5496 94.4323 60.5496H93.8863ZM103.599 60.5496C103.506 60.5496 103.427 60.5216 103.361 60.4656C103.305 60.4002 103.277 60.3209 103.277 60.2276V50.9316C103.277 50.8382 103.305 50.7636 103.361 50.7076C103.427 50.6422 103.506 50.6096 103.599 50.6096H104.299C104.393 50.6096 104.467 50.6422 104.523 50.7076C104.589 50.7636 104.621 50.8382 104.621 50.9316V54.1936C104.892 53.8482 105.209 53.5869 105.573 53.4096C105.937 53.2229 106.39 53.1296 106.931 53.1296C107.827 53.1296 108.523 53.4189 109.017 53.9976C109.521 54.5669 109.773 55.3276 109.773 56.2796V60.2276C109.773 60.3209 109.741 60.4002 109.675 60.4656C109.619 60.5216 109.545 60.5496 109.451 60.5496H108.751C108.658 60.5496 108.579 60.5216 108.513 60.4656C108.457 60.4002 108.429 60.3209 108.429 60.2276V56.3496C108.429 55.6869 108.266 55.1736 107.939 54.8096C107.622 54.4456 107.16 54.2636 106.553 54.2636C105.965 54.2636 105.494 54.4502 105.139 54.8236C104.794 55.1876 104.621 55.6962 104.621 56.3496V60.2276C104.621 60.3209 104.589 60.4002 104.523 60.4656C104.467 60.5216 104.393 60.5496 104.299 60.5496H103.599ZM112.004 51.9116C111.911 51.9116 111.832 51.8836 111.766 51.8276C111.71 51.7622 111.682 51.6829 111.682 51.5896V50.8336C111.682 50.7402 111.71 50.6609 111.766 50.5956C111.832 50.5302 111.911 50.4976 112.004 50.4976H112.886C112.98 50.4976 113.059 50.5302 113.124 50.5956C113.19 50.6609 113.222 50.7402 113.222 50.8336V51.5896C113.222 51.6829 113.19 51.7622 113.124 51.8276C113.059 51.8836 112.98 51.9116 112.886 51.9116H112.004ZM112.116 60.5496C112.023 60.5496 111.944 60.5216 111.878 60.4656C111.822 60.4002 111.794 60.3209 111.794 60.2276V53.5916C111.794 53.4982 111.822 53.4236 111.878 53.3676C111.944 53.3022 112.023 53.2696 112.116 53.2696H112.788C112.882 53.2696 112.956 53.3022 113.012 53.3676C113.078 53.4236 113.11 53.4982 113.11 53.5916V60.2276C113.11 60.3209 113.078 60.4002 113.012 60.4656C112.956 60.5216 112.882 60.5496 112.788 60.5496H112.116ZM115.521 63.2096C115.428 63.2096 115.348 63.1769 115.283 63.1116C115.227 63.0556 115.199 62.9809 115.199 62.8876V53.5916C115.199 53.4982 115.227 53.4236 115.283 53.3676C115.348 53.3022 115.428 53.2696 115.521 53.2696H116.165C116.258 53.2696 116.333 53.3022 116.389 53.3676C116.454 53.4236 116.487 53.4982 116.487 53.5916V54.2076C117.01 53.4889 117.775 53.1296 118.783 53.1296C119.763 53.1296 120.496 53.4376 120.981 54.0536C121.476 54.6696 121.742 55.4629 121.779 56.4336C121.788 56.5362 121.793 56.6949 121.793 56.9096C121.793 57.1242 121.788 57.2829 121.779 57.3856C121.742 58.3469 121.476 59.1402 120.981 59.7656C120.486 60.3816 119.754 60.6896 118.783 60.6896C117.812 60.6896 117.056 60.3396 116.515 59.6396V62.8876C116.515 62.9809 116.487 63.0556 116.431 63.1116C116.375 63.1769 116.3 63.2096 116.207 63.2096H115.521ZM118.489 59.5556C119.152 59.5556 119.632 59.3502 119.931 58.9396C120.239 58.5289 120.407 57.9876 120.435 57.3156C120.444 57.2222 120.449 57.0869 120.449 56.9096C120.449 55.1456 119.796 54.2636 118.489 54.2636C117.845 54.2636 117.36 54.4782 117.033 54.9076C116.716 55.3276 116.543 55.8316 116.515 56.4196L116.501 56.9516L116.515 57.4976C116.534 58.0482 116.711 58.5289 117.047 58.9396C117.383 59.3502 117.864 59.5556 118.489 59.5556ZM123.861 63.2096C123.768 63.2096 123.688 63.1769 123.623 63.1116C123.567 63.0556 123.539 62.9809 123.539 62.8876V53.5916C123.539 53.4982 123.567 53.4236 123.623 53.3676C123.688 53.3022 123.768 53.2696 123.861 53.2696H124.505C124.598 53.2696 124.673 53.3022 124.729 53.3676C124.794 53.4236 124.827 53.4982 124.827 53.5916V54.2076C125.35 53.4889 126.115 53.1296 127.123 53.1296C128.103 53.1296 128.836 53.4376 129.321 54.0536C129.816 54.6696 130.082 55.4629 130.119 56.4336C130.128 56.5362 130.133 56.6949 130.133 56.9096C130.133 57.1242 130.128 57.2829 130.119 57.3856C130.082 58.3469 129.816 59.1402 129.321 59.7656C128.826 60.3816 128.094 60.6896 127.123 60.6896C126.152 60.6896 125.396 60.3396 124.855 59.6396V62.8876C124.855 62.9809 124.827 63.0556 124.771 63.1116C124.715 63.1769 124.64 63.2096 124.547 63.2096H123.861ZM126.829 59.5556C127.492 59.5556 127.972 59.3502 128.271 58.9396C128.579 58.5289 128.747 57.9876 128.775 57.3156C128.784 57.2222 128.789 57.0869 128.789 56.9096C128.789 55.1456 128.136 54.2636 126.829 54.2636C126.185 54.2636 125.7 54.4782 125.373 54.9076C125.056 55.3276 124.883 55.8316 124.855 56.4196L124.841 56.9516L124.855 57.4976C124.874 58.0482 125.051 58.5289 125.387 58.9396C125.723 59.3502 126.204 59.5556 126.829 59.5556ZM134.777 60.6896C133.815 60.6896 133.045 60.3956 132.467 59.8076C131.897 59.2102 131.585 58.3982 131.529 57.3716L131.515 56.8956L131.529 56.4336C131.594 55.4256 131.911 54.6229 132.481 54.0256C133.059 53.4282 133.82 53.1296 134.763 53.1296C135.799 53.1296 136.601 53.4609 137.171 54.1236C137.74 54.7769 138.025 55.6636 138.025 56.7836V57.0216C138.025 57.1149 137.992 57.1942 137.927 57.2596C137.871 57.3156 137.796 57.3436 137.703 57.3436H132.859V57.4696C132.887 58.0762 133.069 58.5942 133.405 59.0236C133.75 59.4436 134.203 59.6536 134.763 59.6536C135.192 59.6536 135.542 59.5696 135.813 59.4016C136.093 59.2242 136.298 59.0422 136.429 58.8556C136.513 58.7436 136.573 58.6782 136.611 58.6596C136.657 58.6316 136.737 58.6176 136.849 58.6176H137.535C137.619 58.6176 137.689 58.6409 137.745 58.6876C137.801 58.7342 137.829 58.7996 137.829 58.8836C137.829 59.0889 137.698 59.3362 137.437 59.6256C137.185 59.9149 136.825 60.1669 136.359 60.3816C135.901 60.5869 135.374 60.6896 134.777 60.6896ZM136.695 56.3776V56.3356C136.695 55.6916 136.517 55.1689 136.163 54.7676C135.817 54.3569 135.351 54.1516 134.763 54.1516C134.175 54.1516 133.708 54.3569 133.363 54.7676C133.027 55.1689 132.859 55.6916 132.859 56.3356V56.3776H136.695ZM142.359 60.6896C141.388 60.6896 140.655 60.3722 140.161 59.7376C139.666 59.1029 139.405 58.3002 139.377 57.3296L139.363 56.9096L139.377 56.4896C139.405 55.5282 139.666 54.7302 140.161 54.0956C140.655 53.4516 141.388 53.1296 142.359 53.1296C143.32 53.1296 144.076 53.4702 144.627 54.1516V50.9316C144.627 50.8382 144.655 50.7636 144.711 50.7076C144.776 50.6422 144.855 50.6096 144.949 50.6096H145.621C145.714 50.6096 145.789 50.6422 145.845 50.7076C145.91 50.7636 145.943 50.8382 145.943 50.9316V60.2276C145.943 60.3209 145.91 60.4002 145.845 60.4656C145.789 60.5216 145.714 60.5496 145.621 60.5496H144.991C144.897 60.5496 144.818 60.5216 144.753 60.4656C144.697 60.4002 144.669 60.3209 144.669 60.2276V59.6396C144.127 60.3396 143.357 60.6896 142.359 60.6896ZM142.653 59.5556C143.297 59.5556 143.777 59.3456 144.095 58.9256C144.421 58.4962 144.599 57.9876 144.627 57.3996C144.636 57.2969 144.641 57.1196 144.641 56.8676C144.641 56.6062 144.636 56.4242 144.627 56.3216C144.608 55.7709 144.431 55.2902 144.095 54.8796C143.759 54.4689 143.278 54.2636 142.653 54.2636C141.99 54.2636 141.505 54.4689 141.197 54.8796C140.898 55.2902 140.735 55.8316 140.707 56.5036L140.693 56.9096C140.693 58.6736 141.346 59.5556 142.653 59.5556ZM155.167 60.6896C153.916 60.6896 152.964 60.3536 152.311 59.6816C151.667 59.0096 151.321 58.0809 151.275 56.8956C151.265 56.6436 151.261 56.2329 151.261 55.6636C151.261 55.0849 151.265 54.6649 151.275 54.4036C151.321 53.2276 151.671 52.3036 152.325 51.6316C152.978 50.9502 153.925 50.6096 155.167 50.6096C155.997 50.6096 156.702 50.7589 157.281 51.0576C157.859 51.3469 158.298 51.7296 158.597 52.2056C158.895 52.6816 159.059 53.1902 159.087 53.7316V53.7596C159.087 53.8342 159.054 53.8996 158.989 53.9556C158.933 54.0022 158.867 54.0256 158.793 54.0256H158.023C157.836 54.0256 157.719 53.9182 157.673 53.7036C157.514 53.0036 157.229 52.5136 156.819 52.2336C156.408 51.9442 155.857 51.7996 155.167 51.7996C153.561 51.7996 152.731 52.6909 152.675 54.4736C152.665 54.7256 152.661 55.1129 152.661 55.6356C152.661 56.1582 152.665 56.5549 152.675 56.8256C152.731 58.6082 153.561 59.4996 155.167 59.4996C155.857 59.4996 156.408 59.3596 156.819 59.0796C157.239 58.7902 157.523 58.2956 157.673 57.5956C157.701 57.4742 157.743 57.3902 157.799 57.3436C157.855 57.2969 157.929 57.2736 158.023 57.2736H158.793C158.877 57.2736 158.947 57.3016 159.003 57.3576C159.068 57.4042 159.096 57.4696 159.087 57.5536C159.059 58.1042 158.895 58.6176 158.597 59.0936C158.298 59.5696 157.859 59.9569 157.281 60.2556C156.702 60.5449 155.997 60.6896 155.167 60.6896ZM161.103 60.5496C161.009 60.5496 160.93 60.5216 160.865 60.4656C160.809 60.4002 160.781 60.3209 160.781 60.2276V53.6056C160.781 53.5122 160.809 53.4329 160.865 53.3676C160.93 53.3022 161.009 53.2696 161.103 53.2696H161.747C161.84 53.2696 161.919 53.3022 161.985 53.3676C162.05 53.4329 162.083 53.5122 162.083 53.6056V54.2216C162.465 53.5869 163.119 53.2696 164.043 53.2696H164.589C164.682 53.2696 164.757 53.3022 164.813 53.3676C164.878 53.4236 164.911 53.4982 164.911 53.5916V54.1656C164.911 54.2589 164.878 54.3336 164.813 54.3896C164.757 54.4456 164.682 54.4736 164.589 54.4736H163.749C163.245 54.4736 162.848 54.6229 162.559 54.9216C162.269 55.2109 162.125 55.6076 162.125 56.1116V60.2276C162.125 60.3209 162.092 60.4002 162.027 60.4656C161.961 60.5216 161.882 60.5496 161.789 60.5496H161.103ZM168.874 60.6896C167.913 60.6896 167.143 60.3956 166.564 59.8076C165.995 59.2102 165.682 58.3982 165.626 57.3716L165.612 56.8956L165.626 56.4336C165.692 55.4256 166.009 54.6229 166.578 54.0256C167.157 53.4282 167.918 53.1296 168.86 53.1296C169.896 53.1296 170.699 53.4609 171.268 54.1236C171.838 54.7769 172.122 55.6636 172.122 56.7836V57.0216C172.122 57.1149 172.09 57.1942 172.024 57.2596C171.968 57.3156 171.894 57.3436 171.8 57.3436H166.956V57.4696C166.984 58.0762 167.166 58.5942 167.502 59.0236C167.848 59.4436 168.3 59.6536 168.86 59.6536C169.29 59.6536 169.64 59.5696 169.91 59.4016C170.19 59.2242 170.396 59.0422 170.526 58.8556C170.61 58.7436 170.671 58.6782 170.708 58.6596C170.755 58.6316 170.834 58.6176 170.946 58.6176H171.632C171.716 58.6176 171.786 58.6409 171.842 58.6876C171.898 58.7342 171.926 58.7996 171.926 58.8836C171.926 59.0889 171.796 59.3362 171.534 59.6256C171.282 59.9149 170.923 60.1669 170.456 60.3816C169.999 60.5869 169.472 60.6896 168.874 60.6896ZM170.792 56.3776V56.3356C170.792 55.6916 170.615 55.1689 170.26 54.7676C169.915 54.3569 169.448 54.1516 168.86 54.1516C168.272 54.1516 167.806 54.3569 167.46 54.7676C167.124 55.1689 166.956 55.6916 166.956 56.3356V56.3776H170.792ZM175.826 60.6896C175.369 60.6896 174.944 60.5962 174.552 60.4096C174.16 60.2229 173.848 59.9709 173.614 59.6536C173.39 59.3269 173.278 58.9676 173.278 58.5756C173.278 57.9596 173.53 57.4556 174.034 57.0636C174.548 56.6622 175.238 56.4009 176.106 56.2796L178.192 55.9856V55.5796C178.192 54.6276 177.646 54.1516 176.554 54.1516C176.144 54.1516 175.808 54.2402 175.546 54.4176C175.285 54.5856 175.089 54.7862 174.958 55.0196C174.93 55.1036 174.893 55.1642 174.846 55.2016C174.809 55.2389 174.753 55.2576 174.678 55.2576H174.076C173.992 55.2576 173.918 55.2296 173.852 55.1736C173.796 55.1082 173.768 55.0336 173.768 54.9496C173.778 54.7256 173.88 54.4736 174.076 54.1936C174.282 53.9042 174.594 53.6569 175.014 53.4516C175.434 53.2369 175.952 53.1296 176.568 53.1296C177.614 53.1296 178.365 53.3769 178.822 53.8716C179.28 54.3569 179.508 54.9636 179.508 55.6916V60.2276C179.508 60.3209 179.476 60.4002 179.41 60.4656C179.354 60.5216 179.28 60.5496 179.186 60.5496H178.542C178.449 60.5496 178.37 60.5216 178.304 60.4656C178.248 60.4002 178.22 60.3209 178.22 60.2276V59.6256C178.015 59.9242 177.716 60.1762 177.324 60.3816C176.932 60.5869 176.433 60.6896 175.826 60.6896ZM176.12 59.6396C176.727 59.6396 177.222 59.4436 177.604 59.0516C177.996 58.6502 178.192 58.0762 178.192 57.3296V56.9376L176.568 57.1756C175.906 57.2689 175.406 57.4276 175.07 57.6516C174.734 57.8662 174.566 58.1416 174.566 58.4776C174.566 58.8509 174.72 59.1402 175.028 59.3456C175.336 59.5416 175.7 59.6396 176.12 59.6396ZM181.843 60.5496C181.75 60.5496 181.67 60.5216 181.605 60.4656C181.549 60.4002 181.521 60.3209 181.521 60.2276V53.5916C181.521 53.4982 181.549 53.4236 181.605 53.3676C181.67 53.3022 181.75 53.2696 181.843 53.2696H182.473C182.566 53.2696 182.641 53.3022 182.697 53.3676C182.762 53.4236 182.795 53.4982 182.795 53.5916V54.0816C183.28 53.4469 183.957 53.1296 184.825 53.1296C185.861 53.1296 186.594 53.5589 187.023 54.4176C187.247 54.0256 187.564 53.7129 187.975 53.4796C188.386 53.2462 188.848 53.1296 189.361 53.1296C190.126 53.1296 190.752 53.3909 191.237 53.9136C191.722 54.4362 191.965 55.1922 191.965 56.1816V60.2276C191.965 60.3209 191.932 60.4002 191.867 60.4656C191.811 60.5216 191.736 60.5496 191.643 60.5496H190.985C190.892 60.5496 190.812 60.5216 190.747 60.4656C190.691 60.4002 190.663 60.3209 190.663 60.2276V56.3076C190.663 55.5796 190.509 55.0569 190.201 54.7396C189.902 54.4222 189.506 54.2636 189.011 54.2636C188.572 54.2636 188.194 54.4269 187.877 54.7536C187.56 55.0709 187.401 55.5889 187.401 56.3076V60.2276C187.401 60.3209 187.368 60.4002 187.303 60.4656C187.247 60.5216 187.172 60.5496 187.079 60.5496H186.421C186.328 60.5496 186.248 60.5216 186.183 60.4656C186.127 60.4002 186.099 60.3209 186.099 60.2276V56.3076C186.099 55.5796 185.94 55.0569 185.623 54.7396C185.315 54.4222 184.923 54.2636 184.447 54.2636C184.008 54.2636 183.63 54.4269 183.313 54.7536C182.996 55.0709 182.837 55.5842 182.837 56.2936V60.2276C182.837 60.3209 182.804 60.4002 182.739 60.4656C182.683 60.5216 182.608 60.5496 182.515 60.5496H181.843Z" fill="#4F5665"/>
<path d="M11.5761 60.2796C11.4449 60.2798 11.3148 60.2542 11.1935 60.2041C11.0722 60.154 10.962 60.0804 10.8691 59.9876L6.62714 55.7446C6.53156 55.6524 6.45531 55.5421 6.40281 55.4201C6.35032 55.2982 6.32264 55.167 6.32139 55.0342C6.32015 54.9014 6.34536 54.7697 6.39555 54.6468C6.44574 54.5239 6.51992 54.4122 6.61374 54.3182C6.70757 54.2242 6.81917 54.1499 6.94203 54.0995C7.06489 54.0492 7.19655 54.0238 7.32932 54.0248C7.4621 54.0259 7.59334 54.0534 7.71538 54.1057C7.83742 54.158 7.94782 54.2341 8.04014 54.3296L11.5751 57.8646L17.9401 51.5016C18.1276 51.3139 18.382 51.2085 18.6473 51.2084C18.9126 51.2083 19.167 51.3136 19.3546 51.5011C19.5423 51.6886 19.6477 51.943 19.6478 52.2082C19.6479 52.4735 19.5426 52.7279 19.3551 52.9156L12.2831 59.9876C12.1903 60.0804 12.0801 60.154 11.9588 60.2041C11.8374 60.2542 11.7074 60.2798 11.5761 60.2796Z" fill="#2FAB73"/>
<path d="M50.0162 100.69C48.7655 100.69 47.8135 100.354 47.1602 99.6816C46.5162 99.0096 46.1709 98.0809 46.1242 96.8956C46.1149 96.6436 46.1102 96.2329 46.1102 95.6636C46.1102 95.0849 46.1149 94.6649 46.1242 94.4036C46.1709 93.2276 46.5209 92.3036 47.1742 91.6316C47.8275 90.9502 48.7749 90.6096 50.0162 90.6096C50.8469 90.6096 51.5515 90.7589 52.1302 91.0576C52.7089 91.3469 53.1475 91.7296 53.4462 92.2056C53.7449 92.6816 53.9082 93.1902 53.9362 93.7316V93.7596C53.9362 93.8342 53.9035 93.8996 53.8382 93.9556C53.7822 94.0022 53.7169 94.0256 53.6422 94.0256H52.8722C52.6855 94.0256 52.5689 93.9182 52.5222 93.7036C52.3635 93.0036 52.0789 92.5136 51.6682 92.2336C51.2575 91.9442 50.7069 91.7996 50.0162 91.7996C48.4109 91.7996 47.5802 92.6909 47.5242 94.4736C47.5149 94.7256 47.5102 95.1129 47.5102 95.6356C47.5102 96.1582 47.5149 96.5549 47.5242 96.8256C47.5802 98.6082 48.4109 99.4996 50.0162 99.4996C50.7069 99.4996 51.2575 99.3596 51.6682 99.0796C52.0882 98.7902 52.3729 98.2956 52.5222 97.5956C52.5502 97.4742 52.5922 97.3902 52.6482 97.3436C52.7042 97.2969 52.7789 97.2736 52.8722 97.2736H53.6422C53.7262 97.2736 53.7962 97.3016 53.8522 97.3576C53.9175 97.4042 53.9455 97.4696 53.9362 97.5536C53.9082 98.1042 53.7449 98.6176 53.4462 99.0936C53.1475 99.5696 52.7089 99.9569 52.1302 100.256C51.5515 100.545 50.8469 100.69 50.0162 100.69ZM55.9664 100.55C55.8731 100.55 55.7938 100.522 55.7284 100.466C55.6724 100.4 55.6444 100.321 55.6444 100.228V90.9316C55.6444 90.8382 55.6724 90.7636 55.7284 90.7076C55.7938 90.6422 55.8731 90.6096 55.9664 90.6096H56.6664C56.7598 90.6096 56.8344 90.6422 56.8904 90.7076C56.9558 90.7636 56.9884 90.8382 56.9884 90.9316V94.1936C57.2591 93.8482 57.5764 93.5869 57.9404 93.4096C58.3044 93.2229 58.7571 93.1296 59.2984 93.1296C60.1944 93.1296 60.8898 93.4189 61.3844 93.9976C61.8884 94.5669 62.1404 95.3276 62.1404 96.2796V100.228C62.1404 100.321 62.1078 100.4 62.0424 100.466C61.9864 100.522 61.9118 100.55 61.8184 100.55H61.1184C61.0251 100.55 60.9458 100.522 60.8804 100.466C60.8244 100.4 60.7964 100.321 60.7964 100.228V96.3496C60.7964 95.6869 60.6331 95.1736 60.3064 94.8096C59.9891 94.4456 59.5271 94.2636 58.9204 94.2636C58.3324 94.2636 57.8611 94.4502 57.5064 94.8236C57.1611 95.1876 56.9884 95.6962 56.9884 96.3496V100.228C56.9884 100.321 56.9558 100.4 56.8904 100.466C56.8344 100.522 56.7598 100.55 56.6664 100.55H55.9664ZM67.1437 100.69C66.117 100.69 65.319 100.4 64.7497 99.8216C64.1897 99.2429 63.891 98.4729 63.8537 97.5116L63.8397 96.9096L63.8537 96.3076C63.891 95.3556 64.1943 94.5902 64.7637 94.0116C65.333 93.4236 66.1263 93.1296 67.1437 93.1296C68.161 93.1296 68.9543 93.4236 69.5237 94.0116C70.093 94.5902 70.3963 95.3556 70.4337 96.3076C70.443 96.4102 70.4477 96.6109 70.4477 96.9096C70.4477 97.2082 70.443 97.4089 70.4337 97.5116C70.3963 98.4729 70.093 99.2429 69.5237 99.8216C68.9637 100.4 68.1703 100.69 67.1437 100.69ZM67.1437 99.6116C67.7317 99.6116 68.1937 99.4249 68.5297 99.0516C68.875 98.6782 69.0617 98.1416 69.0897 97.4416C69.099 97.3482 69.1037 97.1709 69.1037 96.9096C69.1037 96.6482 69.099 96.4709 69.0897 96.3776C69.0617 95.6776 68.875 95.1409 68.5297 94.7676C68.1937 94.3942 67.7317 94.2076 67.1437 94.2076C66.5557 94.2076 66.089 94.3942 65.7437 94.7676C65.3983 95.1409 65.2163 95.6776 65.1977 96.3776L65.1837 96.9096L65.1977 97.4416C65.2163 98.1416 65.3983 98.6782 65.7437 99.0516C66.089 99.4249 66.5557 99.6116 67.1437 99.6116ZM75.1407 100.69C74.1421 100.69 73.3581 100.41 72.7887 99.8496C72.2287 99.2802 71.9301 98.4869 71.8927 97.4696L71.8787 96.9096L71.8927 96.3496C71.9301 95.3322 72.2287 94.5436 72.7887 93.9836C73.3581 93.4142 74.1421 93.1296 75.1407 93.1296C75.8127 93.1296 76.3821 93.2509 76.8487 93.4936C77.3154 93.7362 77.6607 94.0349 77.8847 94.3896C78.1181 94.7442 78.2441 95.0989 78.2627 95.4536C78.2721 95.5469 78.2441 95.6216 78.1787 95.6776C78.1134 95.7336 78.0341 95.7616 77.9407 95.7616H77.2687C77.1754 95.7616 77.1054 95.7429 77.0587 95.7056C77.0121 95.6682 76.9654 95.5936 76.9187 95.4816C76.7601 95.0336 76.5361 94.7162 76.2467 94.5296C75.9574 94.3336 75.5934 94.2356 75.1547 94.2356C74.5761 94.2356 74.1141 94.4176 73.7687 94.7816C73.4327 95.1362 73.2507 95.6822 73.2227 96.4196L73.2087 96.9236L73.2227 97.3996C73.2507 98.1462 73.4327 98.6969 73.7687 99.0516C74.1047 99.4062 74.5667 99.5836 75.1547 99.5836C75.5934 99.5836 75.9574 99.4902 76.2467 99.3036C76.5361 99.1076 76.7601 98.7856 76.9187 98.3376C76.9654 98.2256 77.0121 98.1509 77.0587 98.1136C77.1054 98.0669 77.1754 98.0436 77.2687 98.0436H77.9407C78.0341 98.0436 78.1134 98.0762 78.1787 98.1416C78.2441 98.1976 78.2721 98.2722 78.2627 98.3656C78.2441 98.7109 78.1181 99.0656 77.8847 99.4296C77.6607 99.7842 77.3154 100.083 76.8487 100.326C76.3914 100.568 75.8221 100.69 75.1407 100.69ZM82.9073 100.69C81.8807 100.69 81.0827 100.4 80.5133 99.8216C79.9533 99.2429 79.6547 98.4729 79.6173 97.5116L79.6033 96.9096L79.6173 96.3076C79.6547 95.3556 79.958 94.5902 80.5273 94.0116C81.0967 93.4236 81.89 93.1296 82.9073 93.1296C83.9247 93.1296 84.718 93.4236 85.2873 94.0116C85.8567 94.5902 86.16 95.3556 86.1973 96.3076C86.2067 96.4102 86.2113 96.6109 86.2113 96.9096C86.2113 97.2082 86.2067 97.4089 86.1973 97.5116C86.16 98.4729 85.8567 99.2429 85.2873 99.8216C84.7273 100.4 83.934 100.69 82.9073 100.69ZM82.9073 99.6116C83.4953 99.6116 83.9573 99.4249 84.2933 99.0516C84.6387 98.6782 84.8253 98.1416 84.8533 97.4416C84.8627 97.3482 84.8673 97.1709 84.8673 96.9096C84.8673 96.6482 84.8627 96.4709 84.8533 96.3776C84.8253 95.6776 84.6387 95.1409 84.2933 94.7676C83.9573 94.3942 83.4953 94.2076 82.9073 94.2076C82.3193 94.2076 81.8527 94.3942 81.5073 94.7676C81.162 95.1409 80.98 95.6776 80.9613 96.3776L80.9473 96.9096L80.9613 97.4416C80.98 98.1416 81.162 98.6782 81.5073 99.0516C81.8527 99.4249 82.3193 99.6116 82.9073 99.6116ZM88.3004 100.55C88.2071 100.55 88.1277 100.522 88.0624 100.466C88.0064 100.4 87.9784 100.321 87.9784 100.228V90.9316C87.9784 90.8382 88.0064 90.7636 88.0624 90.7076C88.1277 90.6422 88.2071 90.6096 88.3004 90.6096H88.9584C89.0517 90.6096 89.1264 90.6422 89.1824 90.7076C89.2477 90.7636 89.2804 90.8382 89.2804 90.9316V100.228C89.2804 100.321 89.2477 100.4 89.1824 100.466C89.1264 100.522 89.0517 100.55 88.9584 100.55H88.3004ZM93.3987 100.69C92.9414 100.69 92.5167 100.596 92.1247 100.41C91.7327 100.223 91.42 99.9709 91.1867 99.6536C90.9627 99.3269 90.8507 98.9676 90.8507 98.5756C90.8507 97.9596 91.1027 97.4556 91.6067 97.0636C92.12 96.6622 92.8107 96.4009 93.6787 96.2796L95.7647 95.9856V95.5796C95.7647 94.6276 95.2187 94.1516 94.1267 94.1516C93.716 94.1516 93.38 94.2402 93.1187 94.4176C92.8574 94.5856 92.6614 94.7862 92.5307 95.0196C92.5027 95.1036 92.4654 95.1642 92.4187 95.2016C92.3814 95.2389 92.3254 95.2576 92.2507 95.2576H91.6487C91.5647 95.2576 91.49 95.2296 91.4247 95.1736C91.3687 95.1082 91.3407 95.0336 91.3407 94.9496C91.35 94.7256 91.4527 94.4736 91.6487 94.1936C91.854 93.9042 92.1667 93.6569 92.5867 93.4516C93.0067 93.2369 93.5247 93.1296 94.1407 93.1296C95.186 93.1296 95.9374 93.3769 96.3947 93.8716C96.852 94.3569 97.0807 94.9636 97.0807 95.6916V100.228C97.0807 100.321 97.048 100.4 96.9827 100.466C96.9267 100.522 96.852 100.55 96.7587 100.55H96.1147C96.0214 100.55 95.942 100.522 95.8767 100.466C95.8207 100.4 95.7927 100.321 95.7927 100.228V99.6256C95.5874 99.9242 95.2887 100.176 94.8967 100.382C94.5047 100.587 94.0054 100.69 93.3987 100.69ZM93.6927 99.6396C94.2994 99.6396 94.794 99.4436 95.1767 99.0516C95.5687 98.6502 95.7647 98.0762 95.7647 97.3296V96.9376L94.1407 97.1756C93.478 97.2689 92.9787 97.4276 92.6427 97.6516C92.3067 97.8662 92.1387 98.1416 92.1387 98.4776C92.1387 98.8509 92.2927 99.1402 92.6007 99.3456C92.9087 99.5416 93.2727 99.6396 93.6927 99.6396ZM101.867 100.55C100.392 100.55 99.655 99.7282 99.655 98.0856V94.3896H98.563C98.4696 94.3896 98.3903 94.3616 98.325 94.3056C98.269 94.2402 98.241 94.1609 98.241 94.0676V93.5916C98.241 93.4982 98.269 93.4236 98.325 93.3676C98.3903 93.3022 98.4696 93.2696 98.563 93.2696H99.655V90.9316C99.655 90.8382 99.683 90.7636 99.739 90.7076C99.8043 90.6422 99.8836 90.6096 99.977 90.6096H100.635C100.728 90.6096 100.803 90.6422 100.859 90.7076C100.924 90.7636 100.957 90.8382 100.957 90.9316V93.2696H102.693C102.786 93.2696 102.861 93.3022 102.917 93.3676C102.982 93.4236 103.015 93.4982 103.015 93.5916V94.0676C103.015 94.1609 102.982 94.2402 102.917 94.3056C102.861 94.3616 102.786 94.3896 102.693 94.3896H100.957V97.9876C100.957 98.4542 101.036 98.8089 101.195 99.0516C101.354 99.2849 101.615 99.4016 101.979 99.4016H102.833C102.926 99.4016 103.001 99.4342 103.057 99.4996C103.122 99.5556 103.155 99.6302 103.155 99.7236V100.228C103.155 100.321 103.122 100.4 103.057 100.466C103.001 100.522 102.926 100.55 102.833 100.55H101.867ZM107.406 100.69C106.444 100.69 105.674 100.396 105.096 99.8076C104.526 99.2102 104.214 98.3982 104.158 97.3716L104.144 96.8956L104.158 96.4336C104.223 95.4256 104.54 94.6229 105.11 94.0256C105.688 93.4282 106.449 93.1296 107.392 93.1296C108.428 93.1296 109.23 93.4609 109.8 94.1236C110.369 94.7769 110.654 95.6636 110.654 96.7836V97.0216C110.654 97.1149 110.621 97.1942 110.556 97.2596C110.5 97.3156 110.425 97.3436 110.332 97.3436H105.488V97.4696C105.516 98.0762 105.698 98.5942 106.034 99.0236C106.379 99.4436 106.832 99.6536 107.392 99.6536C107.821 99.6536 108.171 99.5696 108.442 99.4016C108.722 99.2242 108.927 99.0422 109.058 98.8556C109.142 98.7436 109.202 98.6782 109.24 98.6596C109.286 98.6316 109.366 98.6176 109.478 98.6176H110.164C110.248 98.6176 110.318 98.6409 110.374 98.6876C110.43 98.7342 110.458 98.7996 110.458 98.8836C110.458 99.0889 110.327 99.3362 110.066 99.6256C109.814 99.9149 109.454 100.167 108.988 100.382C108.53 100.587 108.003 100.69 107.406 100.69ZM109.324 96.3776V96.3356C109.324 95.6916 109.146 95.1689 108.792 94.7676C108.446 94.3569 107.98 94.1516 107.392 94.1516C106.804 94.1516 106.337 94.3569 105.992 94.7676C105.656 95.1689 105.488 95.6916 105.488 96.3356V96.3776H109.324ZM116.263 100.55C116.17 100.55 116.091 100.522 116.025 100.466C115.969 100.4 115.941 100.321 115.941 100.228V91.0856C115.941 90.9829 115.969 90.9036 116.025 90.8476C116.091 90.7822 116.17 90.7496 116.263 90.7496H120.099C121.098 90.7496 121.849 90.9876 122.353 91.4636C122.857 91.9396 123.109 92.5649 123.109 93.3396C123.109 93.8622 122.988 94.2962 122.745 94.6416C122.512 94.9869 122.232 95.2389 121.905 95.3976C122.297 95.5936 122.629 95.8969 122.899 96.3076C123.17 96.7182 123.305 97.1896 123.305 97.7216C123.305 98.2442 123.184 98.7202 122.941 99.1496C122.708 99.5789 122.358 99.9196 121.891 100.172C121.425 100.424 120.865 100.55 120.211 100.55H116.263ZM119.889 94.8936C120.477 94.8936 120.925 94.7582 121.233 94.4876C121.551 94.2169 121.709 93.8389 121.709 93.3536C121.709 92.8776 121.555 92.5136 121.247 92.2616C120.939 92.0096 120.487 91.8836 119.889 91.8836H117.313V94.8936H119.889ZM120.029 99.4156C120.617 99.4156 121.075 99.2569 121.401 98.9396C121.737 98.6222 121.905 98.2162 121.905 97.7216C121.905 97.2082 121.737 96.7976 121.401 96.4896C121.075 96.1722 120.617 96.0136 120.029 96.0136H117.313V99.4156H120.029ZM125.321 91.9116C125.228 91.9116 125.148 91.8836 125.083 91.8276C125.027 91.7622 124.999 91.6829 124.999 91.5896V90.8336C124.999 90.7402 125.027 90.6609 125.083 90.5956C125.148 90.5302 125.228 90.4976 125.321 90.4976H126.203C126.296 90.4976 126.376 90.5302 126.441 90.5956C126.506 90.6609 126.539 90.7402 126.539 90.8336V91.5896C126.539 91.6829 126.506 91.7622 126.441 91.8276C126.376 91.8836 126.296 91.9116 126.203 91.9116H125.321ZM125.433 100.55C125.34 100.55 125.26 100.522 125.195 100.466C125.139 100.4 125.111 100.321 125.111 100.228V93.5916C125.111 93.4982 125.139 93.4236 125.195 93.3676C125.26 93.3022 125.34 93.2696 125.433 93.2696H126.105C126.198 93.2696 126.273 93.3022 126.329 93.3676C126.394 93.4236 126.427 93.4982 126.427 93.5916V100.228C126.427 100.321 126.394 100.4 126.329 100.466C126.273 100.522 126.198 100.55 126.105 100.55H125.433ZM131.022 100.69C130.368 100.69 129.818 100.587 129.37 100.382C128.931 100.167 128.6 99.9242 128.376 99.6536C128.161 99.3829 128.054 99.1589 128.054 98.9816C128.054 98.8882 128.086 98.8182 128.152 98.7716C128.226 98.7156 128.301 98.6876 128.376 98.6876H129.006C129.099 98.6876 129.183 98.7342 129.258 98.8276C129.482 99.0889 129.724 99.2942 129.986 99.4436C130.247 99.5929 130.597 99.6676 131.036 99.6676C131.521 99.6676 131.913 99.5742 132.212 99.3876C132.52 99.1916 132.674 98.9256 132.674 98.5896C132.674 98.3656 132.608 98.1836 132.478 98.0436C132.356 97.8942 132.142 97.7682 131.834 97.6656C131.535 97.5536 131.087 97.4322 130.49 97.3016C129.678 97.1242 129.099 96.8676 128.754 96.5316C128.418 96.1956 128.25 95.7616 128.25 95.2296C128.25 94.8749 128.352 94.5389 128.558 94.2216C128.772 93.8949 129.08 93.6336 129.482 93.4376C129.892 93.2322 130.382 93.1296 130.952 93.1296C131.549 93.1296 132.058 93.2276 132.478 93.4236C132.898 93.6196 133.21 93.8529 133.416 94.1236C133.63 94.3849 133.738 94.6042 133.738 94.7816C133.738 94.8656 133.705 94.9356 133.64 94.9916C133.584 95.0476 133.514 95.0756 133.43 95.0756H132.842C132.73 95.0756 132.636 95.0289 132.562 94.9356C132.412 94.7582 132.282 94.6229 132.17 94.5296C132.067 94.4269 131.913 94.3382 131.708 94.2636C131.512 94.1889 131.26 94.1516 130.952 94.1516C130.504 94.1516 130.158 94.2496 129.916 94.4456C129.673 94.6322 129.552 94.8796 129.552 95.1876C129.552 95.3836 129.603 95.5516 129.706 95.6916C129.808 95.8222 130.004 95.9436 130.294 96.0556C130.592 96.1676 131.022 96.2842 131.582 96.4056C132.468 96.5922 133.094 96.8629 133.458 97.2176C133.831 97.5629 134.018 98.0062 134.018 98.5476C134.018 98.9489 133.901 99.3129 133.668 99.6396C133.434 99.9662 133.089 100.223 132.632 100.41C132.184 100.596 131.647 100.69 131.022 100.69ZM138.578 100.69C137.58 100.69 136.796 100.41 136.226 99.8496C135.666 99.2802 135.368 98.4869 135.33 97.4696L135.316 96.9096L135.33 96.3496C135.368 95.3322 135.666 94.5436 136.226 93.9836C136.796 93.4142 137.58 93.1296 138.578 93.1296C139.25 93.1296 139.82 93.2509 140.286 93.4936C140.753 93.7362 141.098 94.0349 141.322 94.3896C141.556 94.7442 141.682 95.0989 141.7 95.4536C141.71 95.5469 141.682 95.6216 141.616 95.6776C141.551 95.7336 141.472 95.7616 141.378 95.7616H140.706C140.613 95.7616 140.543 95.7429 140.496 95.7056C140.45 95.6682 140.403 95.5936 140.356 95.4816C140.198 95.0336 139.974 94.7162 139.684 94.5296C139.395 94.3336 139.031 94.2356 138.592 94.2356C138.014 94.2356 137.552 94.4176 137.206 94.7816C136.87 95.1362 136.688 95.6822 136.66 96.4196L136.646 96.9236L136.66 97.3996C136.688 98.1462 136.87 98.6969 137.206 99.0516C137.542 99.4062 138.004 99.5836 138.592 99.5836C139.031 99.5836 139.395 99.4902 139.684 99.3036C139.974 99.1076 140.198 98.7856 140.356 98.3376C140.403 98.2256 140.45 98.1509 140.496 98.1136C140.543 98.0669 140.613 98.0436 140.706 98.0436H141.378C141.472 98.0436 141.551 98.0762 141.616 98.1416C141.682 98.1976 141.71 98.2722 141.7 98.3656C141.682 98.7109 141.556 99.0656 141.322 99.4296C141.098 99.7842 140.753 100.083 140.286 100.326C139.829 100.568 139.26 100.69 138.578 100.69ZM146.079 100.69C145.192 100.69 144.506 100.405 144.021 99.8356C143.536 99.2569 143.293 98.4916 143.293 97.5396V93.5916C143.293 93.4982 143.321 93.4236 143.377 93.3676C143.442 93.3022 143.522 93.2696 143.615 93.2696H144.315C144.408 93.2696 144.483 93.3022 144.539 93.3676C144.604 93.4236 144.637 93.4982 144.637 93.5916V97.4696C144.637 98.8602 145.244 99.5556 146.457 99.5556C147.045 99.5556 147.512 99.3736 147.857 99.0096C148.202 98.6362 148.375 98.1229 148.375 97.4696V93.5916C148.375 93.4982 148.403 93.4236 148.459 93.3676C148.524 93.3022 148.604 93.2696 148.697 93.2696H149.397C149.49 93.2696 149.565 93.3022 149.621 93.3676C149.677 93.4236 149.705 93.4982 149.705 93.5916V100.228C149.705 100.321 149.677 100.4 149.621 100.466C149.565 100.522 149.49 100.55 149.397 100.55H148.739C148.646 100.55 148.566 100.522 148.501 100.466C148.445 100.4 148.417 100.321 148.417 100.228V99.6116C148.156 99.9662 147.838 100.237 147.465 100.424C147.092 100.601 146.63 100.69 146.079 100.69ZM151.995 91.9116C151.901 91.9116 151.822 91.8836 151.757 91.8276C151.701 91.7622 151.673 91.6829 151.673 91.5896V90.8336C151.673 90.7402 151.701 90.6609 151.757 90.5956C151.822 90.5302 151.901 90.4976 151.995 90.4976H152.877C152.97 90.4976 153.049 90.5302 153.115 90.5956C153.18 90.6609 153.213 90.7402 153.213 90.8336V91.5896C153.213 91.6829 153.18 91.7622 153.115 91.8276C153.049 91.8836 152.97 91.9116 152.877 91.9116H151.995ZM152.107 100.55C152.013 100.55 151.934 100.522 151.869 100.466C151.813 100.4 151.785 100.321 151.785 100.228V93.5916C151.785 93.4982 151.813 93.4236 151.869 93.3676C151.934 93.3022 152.013 93.2696 152.107 93.2696H152.779C152.872 93.2696 152.947 93.3022 153.003 93.3676C153.068 93.4236 153.101 93.4982 153.101 93.5916V100.228C153.101 100.321 153.068 100.4 153.003 100.466C152.947 100.522 152.872 100.55 152.779 100.55H152.107ZM158.017 100.55C156.543 100.55 155.805 99.7282 155.805 98.0856V94.3896H154.713C154.62 94.3896 154.541 94.3616 154.475 94.3056C154.419 94.2402 154.391 94.1609 154.391 94.0676V93.5916C154.391 93.4982 154.419 93.4236 154.475 93.3676C154.541 93.3022 154.62 93.2696 154.713 93.2696H155.805V90.9316C155.805 90.8382 155.833 90.7636 155.889 90.7076C155.955 90.6422 156.034 90.6096 156.127 90.6096H156.785C156.879 90.6096 156.953 90.6422 157.009 90.7076C157.075 90.7636 157.107 90.8382 157.107 90.9316V93.2696H158.843C158.937 93.2696 159.011 93.3022 159.067 93.3676C159.133 93.4236 159.165 93.4982 159.165 93.5916V94.0676C159.165 94.1609 159.133 94.2402 159.067 94.3056C159.011 94.3616 158.937 94.3896 158.843 94.3896H157.107V97.9876C157.107 98.4542 157.187 98.8089 157.345 99.0516C157.504 99.2849 157.765 99.4016 158.129 99.4016H158.983C159.077 99.4016 159.151 99.4342 159.207 99.4996C159.273 99.5556 159.305 99.6302 159.305 99.7236V100.228C159.305 100.321 159.273 100.4 159.207 100.466C159.151 100.522 159.077 100.55 158.983 100.55H158.017ZM163.164 100.69C162.511 100.69 161.96 100.587 161.512 100.382C161.073 100.167 160.742 99.9242 160.518 99.6536C160.303 99.3829 160.196 99.1589 160.196 98.9816C160.196 98.8882 160.229 98.8182 160.294 98.7716C160.369 98.7156 160.443 98.6876 160.518 98.6876H161.148C161.241 98.6876 161.325 98.7342 161.4 98.8276C161.624 99.0889 161.867 99.2942 162.128 99.4436C162.389 99.5929 162.739 99.6676 163.178 99.6676C163.663 99.6676 164.055 99.5742 164.354 99.3876C164.662 99.1916 164.816 98.9256 164.816 98.5896C164.816 98.3656 164.751 98.1836 164.62 98.0436C164.499 97.8942 164.284 97.7682 163.976 97.6656C163.677 97.5536 163.229 97.4322 162.632 97.3016C161.82 97.1242 161.241 96.8676 160.896 96.5316C160.56 96.1956 160.392 95.7616 160.392 95.2296C160.392 94.8749 160.495 94.5389 160.7 94.2216C160.915 93.8949 161.223 93.6336 161.624 93.4376C162.035 93.2322 162.525 93.1296 163.094 93.1296C163.691 93.1296 164.2 93.2276 164.62 93.4236C165.04 93.6196 165.353 93.8529 165.558 94.1236C165.773 94.3849 165.88 94.6042 165.88 94.7816C165.88 94.8656 165.847 94.9356 165.782 94.9916C165.726 95.0476 165.656 95.0756 165.572 95.0756H164.984C164.872 95.0756 164.779 95.0289 164.704 94.9356C164.555 94.7582 164.424 94.6229 164.312 94.5296C164.209 94.4269 164.055 94.3382 163.85 94.2636C163.654 94.1889 163.402 94.1516 163.094 94.1516C162.646 94.1516 162.301 94.2496 162.058 94.4456C161.815 94.6322 161.694 94.8796 161.694 95.1876C161.694 95.3836 161.745 95.5516 161.848 95.6916C161.951 95.8222 162.147 95.9436 162.436 96.0556C162.735 96.1676 163.164 96.2842 163.724 96.4056C164.611 96.5922 165.236 96.8629 165.6 97.2176C165.973 97.5629 166.16 98.0062 166.16 98.5476C166.16 98.9489 166.043 99.3129 165.81 99.6396C165.577 99.9662 165.231 100.223 164.774 100.41C164.326 100.596 163.789 100.69 163.164 100.69Z" fill="#4F5665"/>
<path d="M11.2158 100.28C11.0845 100.28 10.9545 100.254 10.8332 100.204C10.7118 100.154 10.6016 100.08 10.5088 99.9876L6.26679 95.7446C6.17121 95.6524 6.09495 95.5421 6.04246 95.4201C5.98997 95.2982 5.96229 95.167 5.96104 95.0342C5.9598 94.9014 5.985 94.7697 6.0352 94.6468C6.08539 94.5239 6.15957 94.4122 6.25339 94.3182C6.34722 94.2242 6.45882 94.1499 6.58167 94.0995C6.70453 94.0492 6.83619 94.0238 6.96897 94.0248C7.10175 94.0259 7.23299 94.0534 7.35503 94.1057C7.47707 94.158 7.58747 94.2341 7.67979 94.3296L11.2148 97.8646L17.5798 91.5016C17.7673 91.3139 18.0217 91.2085 18.2869 91.2084C18.5522 91.2083 18.8066 91.3136 18.9943 91.5011C19.1819 91.6886 19.2874 91.943 19.2875 92.2082C19.2876 92.4735 19.1823 92.7279 18.9948 92.9156L11.9228 99.9876C11.83 100.08 11.7197 100.154 11.5984 100.204C11.4771 100.254 11.3471 100.28 11.2158 100.28Z" fill="#2FAB73"/>
<path d="M49.6382 140.69C48.8635 140.69 48.1915 140.568 47.6222 140.326C47.0622 140.083 46.6329 139.766 46.3342 139.374C46.0355 138.972 45.8769 138.543 45.8582 138.086C45.8582 138.011 45.8862 137.946 45.9422 137.89C46.0075 137.824 46.0822 137.792 46.1662 137.792H46.8802C47.0575 137.792 47.1789 137.885 47.2442 138.072C47.3282 138.464 47.5662 138.8 47.9582 139.08C48.3595 139.36 48.9195 139.5 49.6382 139.5C50.4129 139.5 50.9962 139.364 51.3882 139.094C51.7802 138.814 51.9762 138.426 51.9762 137.932C51.9762 137.614 51.8782 137.358 51.6822 137.162C51.4955 136.966 51.2155 136.793 50.8422 136.644C50.4689 136.494 49.9089 136.308 49.1622 136.084C48.4342 135.878 47.8555 135.659 47.4262 135.426C46.9969 135.192 46.6749 134.903 46.4602 134.558C46.2455 134.212 46.1382 133.778 46.1382 133.256C46.1382 132.752 46.2735 132.299 46.5442 131.898C46.8242 131.496 47.2209 131.184 47.7342 130.96C48.2475 130.726 48.8589 130.61 49.5682 130.61C50.2962 130.61 50.9215 130.74 51.4442 131.002C51.9669 131.254 52.3635 131.576 52.6342 131.968C52.9049 132.36 53.0495 132.752 53.0682 133.144C53.0682 133.218 53.0402 133.284 52.9842 133.34C52.9375 133.396 52.8675 133.424 52.7742 133.424H52.0322C51.8362 133.424 51.7149 133.335 51.6682 133.158C51.6122 132.766 51.3929 132.444 51.0102 132.192C50.6275 131.93 50.1469 131.8 49.5682 131.8C48.9335 131.8 48.4342 131.921 48.0702 132.164C47.7062 132.406 47.5242 132.766 47.5242 133.242C47.5242 133.559 47.6082 133.82 47.7762 134.026C47.9535 134.231 48.2195 134.413 48.5742 134.572C48.9289 134.721 49.4469 134.894 50.1282 135.09C50.9215 135.304 51.5469 135.528 52.0042 135.762C52.4615 135.986 52.8022 136.27 53.0262 136.616C53.2502 136.952 53.3622 137.381 53.3622 137.904C53.3622 138.772 53.0262 139.453 52.3542 139.948C51.6822 140.442 50.7769 140.69 49.6382 140.69ZM57.8572 140.55C56.3825 140.55 55.6452 139.728 55.6452 138.086V134.39H54.5532C54.4599 134.39 54.3805 134.362 54.3152 134.306C54.2592 134.24 54.2312 134.161 54.2312 134.068V133.592C54.2312 133.498 54.2592 133.424 54.3152 133.368C54.3805 133.302 54.4599 133.27 54.5532 133.27H55.6452V130.932C55.6452 130.838 55.6732 130.764 55.7292 130.708C55.7945 130.642 55.8739 130.61 55.9672 130.61H56.6252C56.7185 130.61 56.7932 130.642 56.8492 130.708C56.9145 130.764 56.9472 130.838 56.9472 130.932V133.27H58.6832C58.7765 133.27 58.8512 133.302 58.9072 133.368C58.9725 133.424 59.0052 133.498 59.0052 133.592V134.068C59.0052 134.161 58.9725 134.24 58.9072 134.306C58.8512 134.362 58.7765 134.39 58.6832 134.39H56.9472V137.988C56.9472 138.454 57.0265 138.809 57.1852 139.052C57.3439 139.285 57.6052 139.402 57.9692 139.402H58.8232C58.9165 139.402 58.9912 139.434 59.0472 139.5C59.1125 139.556 59.1452 139.63 59.1452 139.724V140.228C59.1452 140.321 59.1125 140.4 59.0472 140.466C58.9912 140.522 58.9165 140.55 58.8232 140.55H57.8572ZM60.8059 140.55C60.7126 140.55 60.6333 140.522 60.5679 140.466C60.5119 140.4 60.4839 140.321 60.4839 140.228V133.606C60.4839 133.512 60.5119 133.433 60.5679 133.368C60.6333 133.302 60.7126 133.27 60.8059 133.27H61.4499C61.5433 133.27 61.6226 133.302 61.6879 133.368C61.7533 133.433 61.7859 133.512 61.7859 133.606V134.222C62.1686 133.587 62.8219 133.27 63.7459 133.27H64.2919C64.3853 133.27 64.4599 133.302 64.5159 133.368C64.5813 133.424 64.6139 133.498 64.6139 133.592V134.166C64.6139 134.259 64.5813 134.334 64.5159 134.39C64.4599 134.446 64.3853 134.474 64.2919 134.474H63.4519C62.9479 134.474 62.5513 134.623 62.2619 134.922C61.9726 135.211 61.8279 135.608 61.8279 136.112V140.228C61.8279 140.321 61.7953 140.4 61.7299 140.466C61.6646 140.522 61.5853 140.55 61.4919 140.55H60.8059ZM67.7229 140.69C67.2656 140.69 66.8409 140.596 66.4489 140.41C66.0569 140.223 65.7443 139.971 65.5109 139.654C65.2869 139.327 65.1749 138.968 65.1749 138.576C65.1749 137.96 65.4269 137.456 65.9309 137.064C66.4443 136.662 67.1349 136.401 68.0029 136.28L70.0889 135.986V135.58C70.0889 134.628 69.5429 134.152 68.4509 134.152C68.0403 134.152 67.7043 134.24 67.4429 134.418C67.1816 134.586 66.9856 134.786 66.8549 135.02C66.8269 135.104 66.7896 135.164 66.7429 135.202C66.7056 135.239 66.6496 135.258 66.5749 135.258H65.9729C65.8889 135.258 65.8143 135.23 65.7489 135.174C65.6929 135.108 65.6649 135.034 65.6649 134.95C65.6743 134.726 65.7769 134.474 65.9729 134.194C66.1783 133.904 66.4909 133.657 66.9109 133.452C67.3309 133.237 67.8489 133.13 68.4649 133.13C69.5103 133.13 70.2616 133.377 70.7189 133.872C71.1763 134.357 71.4049 134.964 71.4049 135.692V140.228C71.4049 140.321 71.3723 140.4 71.3069 140.466C71.2509 140.522 71.1763 140.55 71.0829 140.55H70.4389C70.3456 140.55 70.2663 140.522 70.2009 140.466C70.1449 140.4 70.1169 140.321 70.1169 140.228V139.626C69.9116 139.924 69.6129 140.176 69.2209 140.382C68.8289 140.587 68.3296 140.69 67.7229 140.69ZM68.0169 139.64C68.6236 139.64 69.1183 139.444 69.5009 139.052C69.8929 138.65 70.0889 138.076 70.0889 137.33V136.938L68.4649 137.176C67.8023 137.269 67.3029 137.428 66.9669 137.652C66.6309 137.866 66.4629 138.142 66.4629 138.478C66.4629 138.851 66.6169 139.14 66.9249 139.346C67.2329 139.542 67.5969 139.64 68.0169 139.64ZM75.3222 140.55C75.2009 140.55 75.1075 140.522 75.0422 140.466C74.9769 140.41 74.9209 140.321 74.8742 140.2L72.8862 133.704L72.8582 133.564C72.8582 133.48 72.8862 133.41 72.9422 133.354C73.0075 133.298 73.0775 133.27 73.1522 133.27H73.7682C73.8615 133.27 73.9362 133.298 73.9922 133.354C74.0575 133.4 74.0995 133.452 74.1182 133.508L75.6722 138.786L77.3382 133.564C77.3569 133.489 77.3989 133.424 77.4642 133.368C77.5295 133.302 77.6182 133.27 77.7302 133.27H78.2062C78.3182 133.27 78.4069 133.302 78.4722 133.368C78.5375 133.424 78.5795 133.489 78.5982 133.564L80.2642 138.786L81.8182 133.508C81.8275 133.461 81.8602 133.41 81.9162 133.354C81.9815 133.298 82.0609 133.27 82.1542 133.27H82.7842C82.8589 133.27 82.9242 133.298 82.9802 133.354C83.0362 133.41 83.0642 133.48 83.0642 133.564L83.0362 133.704L81.0622 140.2C81.0155 140.321 80.9595 140.41 80.8942 140.466C80.8289 140.522 80.7309 140.55 80.6002 140.55H80.0542C79.8022 140.55 79.6482 140.433 79.5922 140.2L77.9682 135.188L76.3442 140.2C76.2695 140.433 76.1109 140.55 75.8682 140.55H75.3222ZM88.2128 140.69C87.2048 140.69 86.4395 140.34 85.9168 139.64V140.228C85.9168 140.321 85.8841 140.4 85.8188 140.466C85.7628 140.522 85.6881 140.55 85.5948 140.55H84.9508C84.8575 140.55 84.7781 140.522 84.7128 140.466C84.6568 140.4 84.6288 140.321 84.6288 140.228V130.932C84.6288 130.838 84.6568 130.764 84.7128 130.708C84.7781 130.642 84.8575 130.61 84.9508 130.61H85.6368C85.7301 130.61 85.8048 130.642 85.8608 130.708C85.9168 130.764 85.9448 130.838 85.9448 130.932V134.152C86.4955 133.47 87.2515 133.13 88.2128 133.13C89.1835 133.13 89.9161 133.452 90.4108 134.096C90.9055 134.73 91.1715 135.528 91.2088 136.49C91.2181 136.592 91.2228 136.732 91.2228 136.91C91.2228 137.087 91.2181 137.227 91.2088 137.33C91.1715 138.3 90.9055 139.103 90.4108 139.738C89.9161 140.372 89.1835 140.69 88.2128 140.69ZM87.9188 139.556C88.5815 139.556 89.0621 139.35 89.3608 138.94C89.6688 138.529 89.8368 137.988 89.8648 137.316C89.8741 137.222 89.8788 137.087 89.8788 136.91C89.8788 135.146 89.2255 134.264 87.9188 134.264C87.2935 134.264 86.8128 134.469 86.4768 134.88C86.1408 135.29 85.9635 135.771 85.9448 136.322L85.9308 136.868L85.9448 137.4C85.9728 137.988 86.1455 138.496 86.4628 138.926C86.7895 139.346 87.2748 139.556 87.9188 139.556ZM95.853 140.69C94.8916 140.69 94.1216 140.396 93.543 139.808C92.9736 139.21 92.661 138.398 92.605 137.372L92.591 136.896L92.605 136.434C92.6703 135.426 92.9876 134.623 93.557 134.026C94.1356 133.428 94.8963 133.13 95.839 133.13C96.875 133.13 97.6776 133.461 98.247 134.124C98.8163 134.777 99.101 135.664 99.101 136.784V137.022C99.101 137.115 99.0683 137.194 99.003 137.26C98.947 137.316 98.8723 137.344 98.779 137.344H93.935V137.47C93.963 138.076 94.145 138.594 94.481 139.024C94.8263 139.444 95.279 139.654 95.839 139.654C96.2683 139.654 96.6183 139.57 96.889 139.402C97.169 139.224 97.3743 139.042 97.505 138.856C97.589 138.744 97.6496 138.678 97.687 138.66C97.7336 138.632 97.813 138.618 97.925 138.618H98.611C98.695 138.618 98.765 138.641 98.821 138.688C98.877 138.734 98.905 138.8 98.905 138.884C98.905 139.089 98.7743 139.336 98.513 139.626C98.261 139.915 97.9016 140.167 97.435 140.382C96.9776 140.587 96.4503 140.69 95.853 140.69ZM97.771 136.378V136.336C97.771 135.692 97.5936 135.169 97.239 134.768C96.8936 134.357 96.427 134.152 95.839 134.152C95.251 134.152 94.7843 134.357 94.439 134.768C94.103 135.169 93.935 135.692 93.935 136.336V136.378H97.771ZM101.097 140.55C101.004 140.55 100.924 140.522 100.859 140.466C100.803 140.4 100.775 140.321 100.775 140.228V133.606C100.775 133.512 100.803 133.433 100.859 133.368C100.924 133.302 101.004 133.27 101.097 133.27H101.741C101.834 133.27 101.914 133.302 101.979 133.368C102.044 133.433 102.077 133.512 102.077 133.606V134.222C102.46 133.587 103.113 133.27 104.037 133.27H104.583C104.676 133.27 104.751 133.302 104.807 133.368C104.872 133.424 104.905 133.498 104.905 133.592V134.166C104.905 134.259 104.872 134.334 104.807 134.39C104.751 134.446 104.676 134.474 104.583 134.474H103.743C103.239 134.474 102.842 134.623 102.553 134.922C102.264 135.211 102.119 135.608 102.119 136.112V140.228C102.119 140.321 102.086 140.4 102.021 140.466C101.956 140.522 101.876 140.55 101.783 140.55H101.097ZM106.415 140.55C106.322 140.55 106.243 140.522 106.177 140.466C106.121 140.4 106.093 140.321 106.093 140.228V133.606C106.093 133.512 106.121 133.433 106.177 133.368C106.243 133.302 106.322 133.27 106.415 133.27H107.059C107.153 133.27 107.232 133.302 107.297 133.368C107.363 133.433 107.395 133.512 107.395 133.606V134.222C107.778 133.587 108.431 133.27 109.355 133.27H109.901C109.995 133.27 110.069 133.302 110.125 133.368C110.191 133.424 110.223 133.498 110.223 133.592V134.166C110.223 134.259 110.191 134.334 110.125 134.39C110.069 134.446 109.995 134.474 109.901 134.474H109.061C108.557 134.474 108.161 134.623 107.871 134.922C107.582 135.211 107.437 135.608 107.437 136.112V140.228C107.437 140.321 107.405 140.4 107.339 140.466C107.274 140.522 107.195 140.55 107.101 140.55H106.415ZM112.686 143.21C112.611 143.21 112.546 143.182 112.49 143.126C112.434 143.07 112.406 143.004 112.406 142.93C112.406 142.864 112.429 142.78 112.476 142.678L113.554 140.116L110.88 133.802C110.833 133.68 110.81 133.601 110.81 133.564C110.81 133.48 110.838 133.41 110.894 133.354C110.95 133.298 111.02 133.27 111.104 133.27H111.79C111.939 133.27 112.051 133.349 112.126 133.508L114.254 138.604L116.438 133.508C116.512 133.349 116.629 133.27 116.788 133.27H117.446C117.53 133.27 117.6 133.298 117.656 133.354C117.712 133.41 117.74 133.475 117.74 133.55C117.74 133.578 117.716 133.662 117.67 133.802L113.694 142.972C113.619 143.13 113.502 143.21 113.344 143.21H112.686ZM125.531 140.69C124.756 140.69 124.084 140.568 123.515 140.326C122.955 140.083 122.525 139.766 122.227 139.374C121.928 138.972 121.769 138.543 121.751 138.086C121.751 138.011 121.779 137.946 121.835 137.89C121.9 137.824 121.975 137.792 122.059 137.792H122.773C122.95 137.792 123.071 137.885 123.137 138.072C123.221 138.464 123.459 138.8 123.851 139.08C124.252 139.36 124.812 139.5 125.531 139.5C126.305 139.5 126.889 139.364 127.281 139.094C127.673 138.814 127.869 138.426 127.869 137.932C127.869 137.614 127.771 137.358 127.575 137.162C127.388 136.966 127.108 136.793 126.735 136.644C126.361 136.494 125.801 136.308 125.055 136.084C124.327 135.878 123.748 135.659 123.319 135.426C122.889 135.192 122.567 134.903 122.353 134.558C122.138 134.212 122.031 133.778 122.031 133.256C122.031 132.752 122.166 132.299 122.437 131.898C122.717 131.496 123.113 131.184 123.627 130.96C124.14 130.726 124.751 130.61 125.461 130.61C126.189 130.61 126.814 130.74 127.337 131.002C127.859 131.254 128.256 131.576 128.527 131.968C128.797 132.36 128.942 132.752 128.961 133.144C128.961 133.218 128.933 133.284 128.877 133.34C128.83 133.396 128.76 133.424 128.667 133.424H127.925C127.729 133.424 127.607 133.335 127.561 133.158C127.505 132.766 127.285 132.444 126.903 132.192C126.52 131.93 126.039 131.8 125.461 131.8C124.826 131.8 124.327 131.921 123.963 132.164C123.599 132.406 123.417 132.766 123.417 133.242C123.417 133.559 123.501 133.82 123.669 134.026C123.846 134.231 124.112 134.413 124.467 134.572C124.821 134.721 125.339 134.894 126.021 135.09C126.814 135.304 127.439 135.528 127.897 135.762C128.354 135.986 128.695 136.27 128.919 136.616C129.143 136.952 129.255 137.381 129.255 137.904C129.255 138.772 128.919 139.453 128.247 139.948C127.575 140.442 126.669 140.69 125.531 140.69ZM132.168 143.21C132.093 143.21 132.028 143.182 131.972 143.126C131.916 143.07 131.888 143.004 131.888 142.93C131.888 142.864 131.911 142.78 131.958 142.678L133.036 140.116L130.362 133.802C130.315 133.68 130.292 133.601 130.292 133.564C130.292 133.48 130.32 133.41 130.376 133.354C130.432 133.298 130.502 133.27 130.586 133.27H131.272C131.421 133.27 131.533 133.349 131.608 133.508L133.736 138.604L135.92 133.508C135.995 133.349 136.111 133.27 136.27 133.27H136.928C137.012 133.27 137.082 133.298 137.138 133.354C137.194 133.41 137.222 133.475 137.222 133.55C137.222 133.578 137.199 133.662 137.152 133.802L133.176 142.972C133.101 143.13 132.985 143.21 132.826 143.21H132.168ZM138.941 140.55C138.847 140.55 138.768 140.522 138.703 140.466C138.647 140.4 138.619 140.321 138.619 140.228V133.606C138.619 133.512 138.647 133.433 138.703 133.368C138.768 133.302 138.847 133.27 138.941 133.27H139.585C139.678 133.27 139.757 133.302 139.823 133.368C139.888 133.433 139.921 133.512 139.921 133.606V134.222C140.303 133.587 140.957 133.27 141.881 133.27H142.427C142.52 133.27 142.595 133.302 142.651 133.368C142.716 133.424 142.749 133.498 142.749 133.592V134.166C142.749 134.259 142.716 134.334 142.651 134.39C142.595 134.446 142.52 134.474 142.427 134.474H141.587C141.083 134.474 140.686 134.623 140.397 134.922C140.107 135.211 139.963 135.608 139.963 136.112V140.228C139.963 140.321 139.93 140.4 139.865 140.466C139.799 140.522 139.72 140.55 139.627 140.55H138.941ZM146.653 140.69C145.766 140.69 145.08 140.405 144.595 139.836C144.11 139.257 143.867 138.492 143.867 137.54V133.592C143.867 133.498 143.895 133.424 143.951 133.368C144.016 133.302 144.096 133.27 144.189 133.27H144.889C144.982 133.27 145.057 133.302 145.113 133.368C145.178 133.424 145.211 133.498 145.211 133.592V137.47C145.211 138.86 145.818 139.556 147.031 139.556C147.619 139.556 148.086 139.374 148.431 139.01C148.776 138.636 148.949 138.123 148.949 137.47V133.592C148.949 133.498 148.977 133.424 149.033 133.368C149.098 133.302 149.178 133.27 149.271 133.27H149.971C150.064 133.27 150.139 133.302 150.195 133.368C150.251 133.424 150.279 133.498 150.279 133.592V140.228C150.279 140.321 150.251 140.4 150.195 140.466C150.139 140.522 150.064 140.55 149.971 140.55H149.313C149.22 140.55 149.14 140.522 149.075 140.466C149.019 140.4 148.991 140.321 148.991 140.228V139.612C148.73 139.966 148.412 140.237 148.039 140.424C147.666 140.601 147.204 140.69 146.653 140.69ZM152.695 143.21C152.602 143.21 152.522 143.177 152.457 143.112C152.401 143.056 152.373 142.981 152.373 142.888V133.592C152.373 133.498 152.401 133.424 152.457 133.368C152.522 133.302 152.602 133.27 152.695 133.27H153.339C153.432 133.27 153.507 133.302 153.563 133.368C153.628 133.424 153.661 133.498 153.661 133.592V134.208C154.184 133.489 154.949 133.13 155.957 133.13C156.937 133.13 157.67 133.438 158.155 134.054C158.65 134.67 158.916 135.463 158.953 136.434C158.962 136.536 158.967 136.695 158.967 136.91C158.967 137.124 158.962 137.283 158.953 137.386C158.916 138.347 158.65 139.14 158.155 139.766C157.66 140.382 156.928 140.69 155.957 140.69C154.986 140.69 154.23 140.34 153.689 139.64V142.888C153.689 142.981 153.661 143.056 153.605 143.112C153.549 143.177 153.474 143.21 153.381 143.21H152.695ZM155.663 139.556C156.326 139.556 156.806 139.35 157.105 138.94C157.413 138.529 157.581 137.988 157.609 137.316C157.618 137.222 157.623 137.087 157.623 136.91C157.623 135.146 156.97 134.264 155.663 134.264C155.019 134.264 154.534 134.478 154.207 134.908C153.89 135.328 153.717 135.832 153.689 136.42L153.675 136.952L153.689 137.498C153.708 138.048 153.885 138.529 154.221 138.94C154.557 139.35 155.038 139.556 155.663 139.556Z" fill="#4F5665"/>
<path d="M11.2158 140.28C11.0845 140.28 10.9545 140.254 10.8332 140.204C10.7118 140.154 10.6016 140.08 10.5088 139.988L6.26679 135.745C6.17121 135.652 6.09495 135.542 6.04246 135.42C5.98997 135.298 5.96229 135.167 5.96104 135.034C5.9598 134.901 5.985 134.77 6.0352 134.647C6.08539 134.524 6.15957 134.412 6.25339 134.318C6.34722 134.224 6.45882 134.15 6.58167 134.1C6.70453 134.049 6.83619 134.024 6.96897 134.025C7.10175 134.026 7.23299 134.053 7.35503 134.106C7.47707 134.158 7.58747 134.234 7.67979 134.33L11.2148 137.865L17.5798 131.502C17.7673 131.314 18.0217 131.208 18.2869 131.208C18.5522 131.208 18.8066 131.314 18.9943 131.501C19.1819 131.689 19.2874 131.943 19.2875 132.208C19.2876 132.473 19.1823 132.728 18.9948 132.916L11.9228 139.988C11.83 140.08 11.7197 140.154 11.5984 140.204C11.4771 140.254 11.3471 140.28 11.2158 140.28Z" fill="#2FAB73"/>
<path d="M49.6382 180.69C48.8635 180.69 48.1915 180.568 47.6222 180.326C47.0622 180.083 46.6329 179.766 46.3342 179.374C46.0355 178.972 45.8769 178.543 45.8582 178.086C45.8582 178.011 45.8862 177.946 45.9422 177.89C46.0075 177.824 46.0822 177.792 46.1662 177.792H46.8802C47.0575 177.792 47.1789 177.885 47.2442 178.072C47.3282 178.464 47.5662 178.8 47.9582 179.08C48.3595 179.36 48.9195 179.5 49.6382 179.5C50.4129 179.5 50.9962 179.364 51.3882 179.094C51.7802 178.814 51.9762 178.426 51.9762 177.932C51.9762 177.614 51.8782 177.358 51.6822 177.162C51.4955 176.966 51.2155 176.793 50.8422 176.644C50.4689 176.494 49.9089 176.308 49.1622 176.084C48.4342 175.878 47.8555 175.659 47.4262 175.426C46.9969 175.192 46.6749 174.903 46.4602 174.558C46.2455 174.212 46.1382 173.778 46.1382 173.256C46.1382 172.752 46.2735 172.299 46.5442 171.898C46.8242 171.496 47.2209 171.184 47.7342 170.96C48.2475 170.726 48.8589 170.61 49.5682 170.61C50.2962 170.61 50.9215 170.74 51.4442 171.002C51.9669 171.254 52.3635 171.576 52.6342 171.968C52.9049 172.36 53.0495 172.752 53.0682 173.144C53.0682 173.218 53.0402 173.284 52.9842 173.34C52.9375 173.396 52.8675 173.424 52.7742 173.424H52.0322C51.8362 173.424 51.7149 173.335 51.6682 173.158C51.6122 172.766 51.3929 172.444 51.0102 172.192C50.6275 171.93 50.1469 171.8 49.5682 171.8C48.9335 171.8 48.4342 171.921 48.0702 172.164C47.7062 172.406 47.5242 172.766 47.5242 173.242C47.5242 173.559 47.6082 173.82 47.7762 174.026C47.9535 174.231 48.2195 174.413 48.5742 174.572C48.9289 174.721 49.4469 174.894 50.1282 175.09C50.9215 175.304 51.5469 175.528 52.0042 175.762C52.4615 175.986 52.8022 176.27 53.0262 176.616C53.2502 176.952 53.3622 177.381 53.3622 177.904C53.3622 178.772 53.0262 179.453 52.3542 179.948C51.6822 180.442 50.7769 180.69 49.6382 180.69ZM55.3512 180.55C55.2579 180.55 55.1785 180.522 55.1132 180.466C55.0572 180.4 55.0292 180.321 55.0292 180.228V170.932C55.0292 170.838 55.0572 170.764 55.1132 170.708C55.1785 170.642 55.2579 170.61 55.3512 170.61H56.0092C56.1025 170.61 56.1772 170.642 56.2332 170.708C56.2985 170.764 56.3312 170.838 56.3312 170.932V180.228C56.3312 180.321 56.2985 180.4 56.2332 180.466C56.1772 180.522 56.1025 180.55 56.0092 180.55H55.3512ZM58.6295 171.912C58.5362 171.912 58.4568 171.884 58.3915 171.828C58.3355 171.762 58.3075 171.683 58.3075 171.59V170.834C58.3075 170.74 58.3355 170.661 58.3915 170.596C58.4568 170.53 58.5362 170.498 58.6295 170.498H59.5115C59.6048 170.498 59.6842 170.53 59.7495 170.596C59.8148 170.661 59.8475 170.74 59.8475 170.834V171.59C59.8475 171.683 59.8148 171.762 59.7495 171.828C59.6842 171.884 59.6048 171.912 59.5115 171.912H58.6295ZM58.7415 180.55C58.6482 180.55 58.5688 180.522 58.5035 180.466C58.4475 180.4 58.4195 180.321 58.4195 180.228V173.592C58.4195 173.498 58.4475 173.424 58.5035 173.368C58.5688 173.302 58.6482 173.27 58.7415 173.27H59.4135C59.5068 173.27 59.5815 173.302 59.6375 173.368C59.7028 173.424 59.7355 173.498 59.7355 173.592V180.228C59.7355 180.321 59.7028 180.4 59.6375 180.466C59.5815 180.522 59.5068 180.55 59.4135 180.55H58.7415ZM64.7501 180.69C63.7514 180.69 62.9674 180.41 62.3981 179.85C61.8381 179.28 61.5394 178.487 61.5021 177.47L61.4881 176.91L61.5021 176.35C61.5394 175.332 61.8381 174.544 62.3981 173.984C62.9674 173.414 63.7514 173.13 64.7501 173.13C65.4221 173.13 65.9914 173.251 66.4581 173.494C66.9248 173.736 67.2701 174.035 67.4941 174.39C67.7274 174.744 67.8534 175.099 67.8721 175.454C67.8814 175.547 67.8534 175.622 67.7881 175.678C67.7228 175.734 67.6434 175.762 67.5501 175.762H66.8781C66.7848 175.762 66.7148 175.743 66.6681 175.706C66.6214 175.668 66.5748 175.594 66.5281 175.482C66.3694 175.034 66.1454 174.716 65.8561 174.53C65.5668 174.334 65.2028 174.236 64.7641 174.236C64.1854 174.236 63.7234 174.418 63.3781 174.782C63.0421 175.136 62.8601 175.682 62.8321 176.42L62.8181 176.924L62.8321 177.4C62.8601 178.146 63.0421 178.697 63.3781 179.052C63.7141 179.406 64.1761 179.584 64.7641 179.584C65.2028 179.584 65.5668 179.49 65.8561 179.304C66.1454 179.108 66.3694 178.786 66.5281 178.338C66.5748 178.226 66.6214 178.151 66.6681 178.114C66.7148 178.067 66.7848 178.044 66.8781 178.044H67.5501C67.6434 178.044 67.7228 178.076 67.7881 178.142C67.8534 178.198 67.8814 178.272 67.8721 178.366C67.8534 178.711 67.7274 179.066 67.4941 179.43C67.2701 179.784 66.9248 180.083 66.4581 180.326C66.0008 180.568 65.4314 180.69 64.7501 180.69ZM72.4467 180.69C71.4854 180.69 70.7154 180.396 70.1367 179.808C69.5674 179.21 69.2547 178.398 69.1987 177.372L69.1847 176.896L69.1987 176.434C69.2641 175.426 69.5814 174.623 70.1507 174.026C70.7294 173.428 71.4901 173.13 72.4327 173.13C73.4687 173.13 74.2714 173.461 74.8407 174.124C75.4101 174.777 75.6947 175.664 75.6947 176.784V177.022C75.6947 177.115 75.6621 177.194 75.5967 177.26C75.5407 177.316 75.4661 177.344 75.3727 177.344H70.5287V177.47C70.5567 178.076 70.7387 178.594 71.0747 179.024C71.4201 179.444 71.8727 179.654 72.4327 179.654C72.8621 179.654 73.2121 179.57 73.4827 179.402C73.7627 179.224 73.9681 179.042 74.0987 178.856C74.1827 178.744 74.2434 178.678 74.2807 178.66C74.3274 178.632 74.4067 178.618 74.5187 178.618H75.2047C75.2887 178.618 75.3587 178.641 75.4147 178.688C75.4707 178.734 75.4987 178.8 75.4987 178.884C75.4987 179.089 75.3681 179.336 75.1067 179.626C74.8547 179.915 74.4954 180.167 74.0287 180.382C73.5714 180.587 73.0441 180.69 72.4467 180.69ZM74.3647 176.378V176.336C74.3647 175.692 74.1874 175.169 73.8327 174.768C73.4874 174.357 73.0207 174.152 72.4327 174.152C71.8447 174.152 71.3781 174.357 71.0327 174.768C70.6967 175.169 70.5287 175.692 70.5287 176.336V176.378H74.3647ZM80.0287 180.69C79.058 180.69 78.3254 180.372 77.8307 179.738C77.336 179.103 77.0747 178.3 77.0467 177.33L77.0327 176.91L77.0467 176.49C77.0747 175.528 77.336 174.73 77.8307 174.096C78.3254 173.452 79.058 173.13 80.0287 173.13C80.99 173.13 81.746 173.47 82.2967 174.152V170.932C82.2967 170.838 82.3247 170.764 82.3807 170.708C82.446 170.642 82.5254 170.61 82.6187 170.61H83.2907C83.384 170.61 83.4587 170.642 83.5147 170.708C83.58 170.764 83.6127 170.838 83.6127 170.932V180.228C83.6127 180.321 83.58 180.4 83.5147 180.466C83.4587 180.522 83.384 180.55 83.2907 180.55H82.6607C82.5674 180.55 82.488 180.522 82.4227 180.466C82.3667 180.4 82.3387 180.321 82.3387 180.228V179.64C81.7974 180.34 81.0274 180.69 80.0287 180.69ZM80.3227 179.556C80.9667 179.556 81.4474 179.346 81.7647 178.926C82.0914 178.496 82.2687 177.988 82.2967 177.4C82.306 177.297 82.3107 177.12 82.3107 176.868C82.3107 176.606 82.306 176.424 82.2967 176.322C82.278 175.771 82.1007 175.29 81.7647 174.88C81.4287 174.469 80.948 174.264 80.3227 174.264C79.66 174.264 79.1747 174.469 78.8667 174.88C78.568 175.29 78.4047 175.832 78.3767 176.504L78.3627 176.91C78.3627 178.674 79.016 179.556 80.3227 179.556ZM91.6465 180.69C90.9932 180.69 90.4425 180.587 89.9945 180.382C89.5558 180.167 89.2245 179.924 89.0005 179.654C88.7858 179.383 88.6785 179.159 88.6785 178.982C88.6785 178.888 88.7112 178.818 88.7765 178.772C88.8512 178.716 88.9258 178.688 89.0005 178.688H89.6305C89.7238 178.688 89.8078 178.734 89.8825 178.828C90.1065 179.089 90.3492 179.294 90.6105 179.444C90.8718 179.593 91.2218 179.668 91.6605 179.668C92.1458 179.668 92.5378 179.574 92.8365 179.388C93.1445 179.192 93.2985 178.926 93.2985 178.59C93.2985 178.366 93.2332 178.184 93.1025 178.044C92.9812 177.894 92.7665 177.768 92.4585 177.666C92.1598 177.554 91.7118 177.432 91.1145 177.302C90.3025 177.124 89.7238 176.868 89.3785 176.532C89.0425 176.196 88.8745 175.762 88.8745 175.23C88.8745 174.875 88.9772 174.539 89.1825 174.222C89.3972 173.895 89.7052 173.634 90.1065 173.438C90.5172 173.232 91.0072 173.13 91.5765 173.13C92.1738 173.13 92.6825 173.228 93.1025 173.424C93.5225 173.62 93.8352 173.853 94.0405 174.124C94.2552 174.385 94.3625 174.604 94.3625 174.782C94.3625 174.866 94.3298 174.936 94.2645 174.992C94.2085 175.048 94.1385 175.076 94.0545 175.076H93.4665C93.3545 175.076 93.2612 175.029 93.1865 174.936C93.0372 174.758 92.9065 174.623 92.7945 174.53C92.6918 174.427 92.5378 174.338 92.3325 174.264C92.1365 174.189 91.8845 174.152 91.5765 174.152C91.1285 174.152 90.7832 174.25 90.5405 174.446C90.2978 174.632 90.1765 174.88 90.1765 175.188C90.1765 175.384 90.2278 175.552 90.3305 175.692C90.4332 175.822 90.6292 175.944 90.9185 176.056C91.2172 176.168 91.6465 176.284 92.2065 176.406C93.0932 176.592 93.7185 176.863 94.0825 177.218C94.4558 177.563 94.6425 178.006 94.6425 178.548C94.6425 178.949 94.5258 179.313 94.2925 179.64C94.0592 179.966 93.7138 180.223 93.2565 180.41C92.8085 180.596 92.2718 180.69 91.6465 180.69ZM99.0916 180.55C97.6169 180.55 96.8796 179.728 96.8796 178.086V174.39H95.7876C95.6942 174.39 95.6149 174.362 95.5496 174.306C95.4936 174.24 95.4656 174.161 95.4656 174.068V173.592C95.4656 173.498 95.4936 173.424 95.5496 173.368C95.6149 173.302 95.6942 173.27 95.7876 173.27H96.8796V170.932C96.8796 170.838 96.9076 170.764 96.9636 170.708C97.0289 170.642 97.1082 170.61 97.2016 170.61H97.8596C97.9529 170.61 98.0276 170.642 98.0836 170.708C98.1489 170.764 98.1816 170.838 98.1816 170.932V173.27H99.9176C100.011 173.27 100.086 173.302 100.142 173.368C100.207 173.424 100.24 173.498 100.24 173.592V174.068C100.24 174.161 100.207 174.24 100.142 174.306C100.086 174.362 100.011 174.39 99.9176 174.39H98.1816V177.988C98.1816 178.454 98.2609 178.809 98.4196 179.052C98.5782 179.285 98.8396 179.402 99.2036 179.402H100.058C100.151 179.402 100.226 179.434 100.282 179.5C100.347 179.556 100.38 179.63 100.38 179.724V180.228C100.38 180.321 100.347 180.4 100.282 180.466C100.226 180.522 100.151 180.55 100.058 180.55H99.0916ZM102.04 180.55C101.947 180.55 101.868 180.522 101.802 180.466C101.746 180.4 101.718 180.321 101.718 180.228V173.606C101.718 173.512 101.746 173.433 101.802 173.368C101.868 173.302 101.947 173.27 102.04 173.27H102.684C102.778 173.27 102.857 173.302 102.922 173.368C102.988 173.433 103.02 173.512 103.02 173.606V174.222C103.403 173.587 104.056 173.27 104.98 173.27H105.526C105.62 173.27 105.694 173.302 105.75 173.368C105.816 173.424 105.848 173.498 105.848 173.592V174.166C105.848 174.259 105.816 174.334 105.75 174.39C105.694 174.446 105.62 174.474 105.526 174.474H104.686C104.182 174.474 103.786 174.623 103.496 174.922C103.207 175.211 103.062 175.608 103.062 176.112V180.228C103.062 180.321 103.03 180.4 102.964 180.466C102.899 180.522 102.82 180.55 102.726 180.55H102.04ZM108.957 180.69C108.5 180.69 108.075 180.596 107.683 180.41C107.291 180.223 106.979 179.971 106.745 179.654C106.521 179.327 106.409 178.968 106.409 178.576C106.409 177.96 106.661 177.456 107.165 177.064C107.679 176.662 108.369 176.401 109.237 176.28L111.323 175.986V175.58C111.323 174.628 110.777 174.152 109.685 174.152C109.275 174.152 108.939 174.24 108.677 174.418C108.416 174.586 108.22 174.786 108.089 175.02C108.061 175.104 108.024 175.164 107.977 175.202C107.94 175.239 107.884 175.258 107.809 175.258H107.207C107.123 175.258 107.049 175.23 106.983 175.174C106.927 175.108 106.899 175.034 106.899 174.95C106.909 174.726 107.011 174.474 107.207 174.194C107.413 173.904 107.725 173.657 108.145 173.452C108.565 173.237 109.083 173.13 109.699 173.13C110.745 173.13 111.496 173.377 111.953 173.872C112.411 174.357 112.639 174.964 112.639 175.692V180.228C112.639 180.321 112.607 180.4 112.541 180.466C112.485 180.522 112.411 180.55 112.317 180.55H111.673C111.58 180.55 111.501 180.522 111.435 180.466C111.379 180.4 111.351 180.321 111.351 180.228V179.626C111.146 179.924 110.847 180.176 110.455 180.382C110.063 180.587 109.564 180.69 108.957 180.69ZM109.251 179.64C109.858 179.64 110.353 179.444 110.735 179.052C111.127 178.65 111.323 178.076 111.323 177.33V176.938L109.699 177.176C109.037 177.269 108.537 177.428 108.201 177.652C107.865 177.866 107.697 178.142 107.697 178.478C107.697 178.851 107.851 179.14 108.159 179.346C108.467 179.542 108.831 179.64 109.251 179.64ZM116.557 180.55C116.435 180.55 116.342 180.522 116.277 180.466C116.211 180.41 116.155 180.321 116.109 180.2L114.121 173.704L114.093 173.564C114.093 173.48 114.121 173.41 114.177 173.354C114.242 173.298 114.312 173.27 114.387 173.27H115.003C115.096 173.27 115.171 173.298 115.227 173.354C115.292 173.4 115.334 173.452 115.353 173.508L116.907 178.786L118.573 173.564C118.591 173.489 118.633 173.424 118.699 173.368C118.764 173.302 118.853 173.27 118.965 173.27H119.441C119.553 173.27 119.641 173.302 119.707 173.368C119.772 173.424 119.814 173.489 119.833 173.564L121.499 178.786L123.053 173.508C123.062 173.461 123.095 173.41 123.151 173.354C123.216 173.298 123.295 173.27 123.389 173.27H124.019C124.093 173.27 124.159 173.298 124.215 173.354C124.271 173.41 124.299 173.48 124.299 173.564L124.271 173.704L122.297 180.2C122.25 180.321 122.194 180.41 122.129 180.466C122.063 180.522 121.965 180.55 121.835 180.55H121.289C121.037 180.55 120.883 180.433 120.827 180.2L119.203 175.188L117.579 180.2C117.504 180.433 117.345 180.55 117.103 180.55H116.557ZM129.447 180.69C128.439 180.69 127.674 180.34 127.151 179.64V180.228C127.151 180.321 127.119 180.4 127.053 180.466C126.997 180.522 126.923 180.55 126.829 180.55H126.185C126.092 180.55 126.013 180.522 125.947 180.466C125.891 180.4 125.863 180.321 125.863 180.228V170.932C125.863 170.838 125.891 170.764 125.947 170.708C126.013 170.642 126.092 170.61 126.185 170.61H126.871C126.965 170.61 127.039 170.642 127.095 170.708C127.151 170.764 127.179 170.838 127.179 170.932V174.152C127.73 173.47 128.486 173.13 129.447 173.13C130.418 173.13 131.151 173.452 131.645 174.096C132.14 174.73 132.406 175.528 132.443 176.49C132.453 176.592 132.457 176.732 132.457 176.91C132.457 177.087 132.453 177.227 132.443 177.33C132.406 178.3 132.14 179.103 131.645 179.738C131.151 180.372 130.418 180.69 129.447 180.69ZM129.153 179.556C129.816 179.556 130.297 179.35 130.595 178.94C130.903 178.529 131.071 177.988 131.099 177.316C131.109 177.222 131.113 177.087 131.113 176.91C131.113 175.146 130.46 174.264 129.153 174.264C128.528 174.264 128.047 174.469 127.711 174.88C127.375 175.29 127.198 175.771 127.179 176.322L127.165 176.868L127.179 177.4C127.207 177.988 127.38 178.496 127.697 178.926C128.024 179.346 128.509 179.556 129.153 179.556ZM137.087 180.69C136.126 180.69 135.356 180.396 134.777 179.808C134.208 179.21 133.895 178.398 133.839 177.372L133.825 176.896L133.839 176.434C133.905 175.426 134.222 174.623 134.791 174.026C135.37 173.428 136.131 173.13 137.073 173.13C138.109 173.13 138.912 173.461 139.481 174.124C140.051 174.777 140.335 175.664 140.335 176.784V177.022C140.335 177.115 140.303 177.194 140.237 177.26C140.181 177.316 140.107 177.344 140.013 177.344H135.169V177.47C135.197 178.076 135.379 178.594 135.715 179.024C136.061 179.444 136.513 179.654 137.073 179.654C137.503 179.654 137.853 179.57 138.123 179.402C138.403 179.224 138.609 179.042 138.739 178.856C138.823 178.744 138.884 178.678 138.921 178.66C138.968 178.632 139.047 178.618 139.159 178.618H139.845C139.929 178.618 139.999 178.641 140.055 178.688C140.111 178.734 140.139 178.8 140.139 178.884C140.139 179.089 140.009 179.336 139.747 179.626C139.495 179.915 139.136 180.167 138.669 180.382C138.212 180.587 137.685 180.69 137.087 180.69ZM139.005 176.378V176.336C139.005 175.692 138.828 175.169 138.473 174.768C138.128 174.357 137.661 174.152 137.073 174.152C136.485 174.152 136.019 174.357 135.673 174.768C135.337 175.169 135.169 175.692 135.169 176.336V176.378H139.005ZM142.331 180.55C142.238 180.55 142.159 180.522 142.093 180.466C142.037 180.4 142.009 180.321 142.009 180.228V173.606C142.009 173.512 142.037 173.433 142.093 173.368C142.159 173.302 142.238 173.27 142.331 173.27H142.975C143.069 173.27 143.148 173.302 143.213 173.368C143.279 173.433 143.311 173.512 143.311 173.606V174.222C143.694 173.587 144.347 173.27 145.271 173.27H145.817C145.911 173.27 145.985 173.302 146.041 173.368C146.107 173.424 146.139 173.498 146.139 173.592V174.166C146.139 174.259 146.107 174.334 146.041 174.39C145.985 174.446 145.911 174.474 145.817 174.474H144.977C144.473 174.474 144.077 174.623 143.787 174.922C143.498 175.211 143.353 175.608 143.353 176.112V180.228C143.353 180.321 143.321 180.4 143.255 180.466C143.19 180.522 143.111 180.55 143.017 180.55H142.331ZM147.65 180.55C147.556 180.55 147.477 180.522 147.412 180.466C147.356 180.4 147.328 180.321 147.328 180.228V173.606C147.328 173.512 147.356 173.433 147.412 173.368C147.477 173.302 147.556 173.27 147.65 173.27H148.294C148.387 173.27 148.466 173.302 148.532 173.368C148.597 173.433 148.63 173.512 148.63 173.606V174.222C149.012 173.587 149.666 173.27 150.59 173.27H151.136C151.229 173.27 151.304 173.302 151.36 173.368C151.425 173.424 151.458 173.498 151.458 173.592V174.166C151.458 174.259 151.425 174.334 151.36 174.39C151.304 174.446 151.229 174.474 151.136 174.474H150.296C149.792 174.474 149.395 174.623 149.106 174.922C148.816 175.211 148.672 175.608 148.672 176.112V180.228C148.672 180.321 148.639 180.4 148.574 180.466C148.508 180.522 148.429 180.55 148.336 180.55H147.65ZM153.92 183.21C153.845 183.21 153.78 183.182 153.724 183.126C153.668 183.07 153.64 183.004 153.64 182.93C153.64 182.864 153.663 182.78 153.71 182.678L154.788 180.116L152.114 173.802C152.067 173.68 152.044 173.601 152.044 173.564C152.044 173.48 152.072 173.41 152.128 173.354C152.184 173.298 152.254 173.27 152.338 173.27H153.024C153.173 173.27 153.285 173.349 153.36 173.508L155.488 178.604L157.672 173.508C157.747 173.349 157.863 173.27 158.022 173.27H158.68C158.764 173.27 158.834 173.298 158.89 173.354C158.946 173.41 158.974 173.475 158.974 173.55C158.974 173.578 158.951 173.662 158.904 173.802L154.928 182.972C154.853 183.13 154.737 183.21 154.578 183.21H153.92ZM166.415 180.69C165.388 180.69 164.59 180.4 164.021 179.822C163.461 179.243 163.162 178.473 163.125 177.512L163.111 176.91L163.125 176.308C163.162 175.356 163.466 174.59 164.035 174.012C164.604 173.424 165.398 173.13 166.415 173.13C167.432 173.13 168.226 173.424 168.795 174.012C169.364 174.59 169.668 175.356 169.705 176.308C169.714 176.41 169.719 176.611 169.719 176.91C169.719 177.208 169.714 177.409 169.705 177.512C169.668 178.473 169.364 179.243 168.795 179.822C168.235 180.4 167.442 180.69 166.415 180.69ZM166.415 179.612C167.003 179.612 167.465 179.425 167.801 179.052C168.146 178.678 168.333 178.142 168.361 177.442C168.37 177.348 168.375 177.171 168.375 176.91C168.375 176.648 168.37 176.471 168.361 176.378C168.333 175.678 168.146 175.141 167.801 174.768C167.465 174.394 167.003 174.208 166.415 174.208C165.827 174.208 165.36 174.394 165.015 174.768C164.67 175.141 164.488 175.678 164.469 176.378L164.455 176.91L164.469 177.442C164.488 178.142 164.67 178.678 165.015 179.052C165.36 179.425 165.827 179.612 166.415 179.612ZM171.794 180.55C171.701 180.55 171.622 180.522 171.556 180.466C171.5 180.4 171.472 180.321 171.472 180.228V173.592C171.472 173.498 171.5 173.424 171.556 173.368C171.622 173.302 171.701 173.27 171.794 173.27H172.452C172.546 173.27 172.62 173.302 172.676 173.368C172.742 173.424 172.774 173.498 172.774 173.592V174.208C173.045 173.862 173.362 173.596 173.726 173.41C174.1 173.223 174.562 173.13 175.112 173.13C176.008 173.13 176.704 173.419 177.198 173.998C177.702 174.567 177.954 175.328 177.954 176.28V180.228C177.954 180.321 177.922 180.4 177.856 180.466C177.8 180.522 177.726 180.55 177.632 180.55H176.932C176.839 180.55 176.76 180.522 176.694 180.466C176.638 180.4 176.61 180.321 176.61 180.228V176.35C176.61 175.687 176.447 175.174 176.12 174.81C175.803 174.446 175.341 174.264 174.734 174.264C174.146 174.264 173.68 174.45 173.334 174.824C172.989 175.188 172.816 175.696 172.816 176.35V180.228C172.816 180.321 172.784 180.4 172.718 180.466C172.662 180.522 172.588 180.55 172.494 180.55H171.794ZM185.685 180.55C185.591 180.55 185.512 180.522 185.447 180.466C185.391 180.4 185.363 180.321 185.363 180.228V171.996H182.675C182.581 171.996 182.502 171.968 182.437 171.912C182.381 171.846 182.353 171.767 182.353 171.674V171.086C182.353 170.992 182.381 170.913 182.437 170.848C182.502 170.782 182.581 170.75 182.675 170.75H189.423C189.525 170.75 189.605 170.782 189.661 170.848C189.726 170.904 189.759 170.983 189.759 171.086V171.674C189.759 171.767 189.726 171.846 189.661 171.912C189.595 171.968 189.516 171.996 189.423 171.996H186.749V180.228C186.749 180.321 186.716 180.4 186.651 180.466C186.585 180.522 186.506 180.55 186.413 180.55H185.685ZM192.788 180.69C191.762 180.69 190.964 180.4 190.394 179.822C189.834 179.243 189.536 178.473 189.498 177.512L189.484 176.91L189.498 176.308C189.536 175.356 189.839 174.59 190.408 174.012C190.978 173.424 191.771 173.13 192.788 173.13C193.806 173.13 194.599 173.424 195.168 174.012C195.738 174.59 196.041 175.356 196.078 176.308C196.088 176.41 196.092 176.611 196.092 176.91C196.092 177.208 196.088 177.409 196.078 177.512C196.041 178.473 195.738 179.243 195.168 179.822C194.608 180.4 193.815 180.69 192.788 180.69ZM192.788 179.612C193.376 179.612 193.838 179.425 194.174 179.052C194.52 178.678 194.706 178.142 194.734 177.442C194.744 177.348 194.748 177.171 194.748 176.91C194.748 176.648 194.744 176.471 194.734 176.378C194.706 175.678 194.52 175.141 194.174 174.768C193.838 174.394 193.376 174.208 192.788 174.208C192.2 174.208 191.734 174.394 191.388 174.768C191.043 175.141 190.861 175.678 190.842 176.378L190.828 176.91L190.842 177.442C190.861 178.142 191.043 178.678 191.388 179.052C191.734 179.425 192.2 179.612 192.788 179.612ZM198.181 183.21C198.088 183.21 198.009 183.177 197.943 183.112C197.887 183.056 197.859 182.981 197.859 182.888V173.592C197.859 173.498 197.887 173.424 197.943 173.368C198.009 173.302 198.088 173.27 198.181 173.27H198.825C198.919 173.27 198.993 173.302 199.049 173.368C199.115 173.424 199.147 173.498 199.147 173.592V174.208C199.67 173.489 200.435 173.13 201.443 173.13C202.423 173.13 203.156 173.438 203.641 174.054C204.136 174.67 204.402 175.463 204.439 176.434C204.449 176.536 204.453 176.695 204.453 176.91C204.453 177.124 204.449 177.283 204.439 177.386C204.402 178.347 204.136 179.14 203.641 179.766C203.147 180.382 202.414 180.69 201.443 180.69C200.473 180.69 199.717 180.34 199.175 179.64V182.888C199.175 182.981 199.147 183.056 199.091 183.112C199.035 183.177 198.961 183.21 198.867 183.21H198.181ZM201.149 179.556C201.812 179.556 202.293 179.35 202.591 178.94C202.899 178.529 203.067 177.988 203.095 177.316C203.105 177.222 203.109 177.087 203.109 176.91C203.109 175.146 202.456 174.264 201.149 174.264C200.505 174.264 200.02 174.478 199.693 174.908C199.376 175.328 199.203 175.832 199.175 176.42L199.161 176.952L199.175 177.498C199.194 178.048 199.371 178.529 199.707 178.94C200.043 179.35 200.524 179.556 201.149 179.556Z" fill="#4F5665"/>
<path d="M11.7562 180.28C11.6249 180.28 11.4949 180.254 11.3736 180.204C11.2522 180.154 11.142 180.08 11.0492 179.988L6.80719 175.745C6.71162 175.652 6.63536 175.542 6.58287 175.42C6.53037 175.298 6.50269 175.167 6.50145 175.034C6.5002 174.901 6.52541 174.77 6.5756 174.647C6.6258 174.524 6.69997 174.412 6.7938 174.318C6.88762 174.224 6.99922 174.15 7.12208 174.1C7.24494 174.049 7.3766 174.024 7.50938 174.025C7.64216 174.026 7.7734 174.053 7.89544 174.106C8.01748 174.158 8.12788 174.234 8.22019 174.33L11.7552 177.865L18.1202 171.502C18.3077 171.314 18.5621 171.208 18.8273 171.208C19.0926 171.208 19.347 171.314 19.5347 171.501C19.7223 171.689 19.8278 171.943 19.8279 172.208C19.828 172.473 19.7227 172.728 19.5352 172.916L12.4632 179.988C12.3704 180.08 12.2601 180.154 12.1388 180.204C12.0175 180.254 11.8875 180.28 11.7562 180.28Z" fill="#2FAB73"/>
<path d="M49.1342 20.5496C49.0409 20.5496 48.9615 20.5216 48.8962 20.4656C48.8402 20.4002 48.8122 20.3209 48.8122 20.2276V12.3876L46.4882 14.1796C46.4229 14.2356 46.3529 14.2636 46.2782 14.2636C46.1942 14.2636 46.1149 14.2169 46.0402 14.1236L45.6762 13.6616C45.6295 13.5962 45.6062 13.5309 45.6062 13.4656C45.6062 13.3536 45.6529 13.2649 45.7462 13.1996L48.7982 10.8476C48.9009 10.7822 49.0222 10.7496 49.1622 10.7496H49.8762C49.9695 10.7496 50.0442 10.7822 50.1002 10.8476C50.1655 10.9036 50.1982 10.9782 50.1982 11.0716V20.2276C50.1982 20.3209 50.1655 20.4002 50.1002 20.4656C50.0442 20.5216 49.9695 20.5496 49.8762 20.5496H49.1342ZM59.0581 20.6896C58.2835 20.6896 57.6115 20.5682 57.0421 20.3256C56.4821 20.0829 56.0528 19.7656 55.7541 19.3736C55.4555 18.9722 55.2968 18.5429 55.2781 18.0856C55.2781 18.0109 55.3061 17.9456 55.3621 17.8896C55.4275 17.8242 55.5021 17.7916 55.5861 17.7916H56.3001C56.4775 17.7916 56.5988 17.8849 56.6641 18.0716C56.7481 18.4636 56.9861 18.7996 57.3781 19.0796C57.7795 19.3596 58.3395 19.4996 59.0581 19.4996C59.8328 19.4996 60.4161 19.3642 60.8081 19.0936C61.2001 18.8136 61.3961 18.4262 61.3961 17.9316C61.3961 17.6142 61.2981 17.3576 61.1021 17.1616C60.9155 16.9656 60.6355 16.7929 60.2621 16.6436C59.8888 16.4942 59.3288 16.3076 58.5821 16.0836C57.8541 15.8782 57.2755 15.6589 56.8461 15.4256C56.4168 15.1922 56.0948 14.9029 55.8801 14.5576C55.6655 14.2122 55.5581 13.7782 55.5581 13.2556C55.5581 12.7516 55.6935 12.2989 55.9641 11.8976C56.2441 11.4962 56.6408 11.1836 57.1541 10.9596C57.6675 10.7262 58.2788 10.6096 58.9881 10.6096C59.7161 10.6096 60.3415 10.7402 60.8641 11.0016C61.3868 11.2536 61.7835 11.5756 62.0541 11.9676C62.3248 12.3596 62.4695 12.7516 62.4881 13.1436C62.4881 13.2182 62.4601 13.2836 62.4041 13.3396C62.3575 13.3956 62.2875 13.4236 62.1941 13.4236H61.4521C61.2561 13.4236 61.1348 13.3349 61.0881 13.1576C61.0321 12.7656 60.8128 12.4436 60.4301 12.1916C60.0475 11.9302 59.5668 11.7996 58.9881 11.7996C58.3535 11.7996 57.8541 11.9209 57.4901 12.1636C57.1261 12.4062 56.9441 12.7656 56.9441 13.2416C56.9441 13.5589 57.0281 13.8202 57.1961 14.0256C57.3735 14.2309 57.6395 14.4129 57.9941 14.5716C58.3488 14.7209 58.8668 14.8936 59.5481 15.0896C60.3415 15.3042 60.9668 15.5282 61.4241 15.7616C61.8815 15.9856 62.2221 16.2702 62.4461 16.6156C62.6701 16.9516 62.7821 17.3809 62.7821 17.9036C62.7821 18.7716 62.4461 19.4529 61.7741 19.9476C61.1021 20.4422 60.1968 20.6896 59.0581 20.6896ZM64.7711 20.5496C64.6778 20.5496 64.5984 20.5216 64.5331 20.4656C64.4771 20.4002 64.4491 20.3209 64.4491 20.2276V10.9316C64.4491 10.8382 64.4771 10.7636 64.5331 10.7076C64.5984 10.6422 64.6778 10.6096 64.7711 10.6096H65.4711C65.5644 10.6096 65.6391 10.6422 65.6951 10.7076C65.7604 10.7636 65.7931 10.8382 65.7931 10.9316V14.1936C66.0638 13.8482 66.3811 13.5869 66.7451 13.4096C67.1091 13.2229 67.5618 13.1296 68.1031 13.1296C68.9991 13.1296 69.6944 13.4189 70.1891 13.9976C70.6931 14.5669 70.9451 15.3276 70.9451 16.2796V20.2276C70.9451 20.3209 70.9124 20.4002 70.8471 20.4656C70.7911 20.5216 70.7164 20.5496 70.6231 20.5496H69.9231C69.8298 20.5496 69.7504 20.5216 69.6851 20.4656C69.6291 20.4002 69.6011 20.3209 69.6011 20.2276V16.3496C69.6011 15.6869 69.4378 15.1736 69.1111 14.8096C68.7938 14.4456 68.3318 14.2636 67.7251 14.2636C67.1371 14.2636 66.6658 14.4502 66.3111 14.8236C65.9658 15.1876 65.7931 15.6962 65.7931 16.3496V20.2276C65.7931 20.3209 65.7604 20.4002 65.6951 20.4656C65.6391 20.5216 65.5644 20.5496 65.4711 20.5496H64.7711ZM75.9484 20.6896C74.9217 20.6896 74.1237 20.4002 73.5544 19.8216C72.9944 19.2429 72.6957 18.4729 72.6584 17.5116L72.6444 16.9096L72.6584 16.3076C72.6957 15.3556 72.999 14.5902 73.5684 14.0116C74.1377 13.4236 74.931 13.1296 75.9484 13.1296C76.9657 13.1296 77.759 13.4236 78.3284 14.0116C78.8977 14.5902 79.201 15.3556 79.2384 16.3076C79.2477 16.4102 79.2524 16.6109 79.2524 16.9096C79.2524 17.2082 79.2477 17.4089 79.2384 17.5116C79.201 18.4729 78.8977 19.2429 78.3284 19.8216C77.7684 20.4002 76.975 20.6896 75.9484 20.6896ZM75.9484 19.6116C76.5364 19.6116 76.9984 19.4249 77.3344 19.0516C77.6797 18.6782 77.8664 18.1416 77.8944 17.4416C77.9037 17.3482 77.9084 17.1709 77.9084 16.9096C77.9084 16.6482 77.9037 16.4709 77.8944 16.3776C77.8664 15.6776 77.6797 15.1409 77.3344 14.7676C76.9984 14.3942 76.5364 14.2076 75.9484 14.2076C75.3604 14.2076 74.8937 14.3942 74.5484 14.7676C74.203 15.1409 74.021 15.6776 74.0024 16.3776L73.9884 16.9096L74.0024 17.4416C74.021 18.1416 74.203 18.6782 74.5484 19.0516C74.8937 19.4249 75.3604 19.6116 75.9484 19.6116ZM83.7791 20.5496C82.3044 20.5496 81.5671 19.7282 81.5671 18.0856V14.3896H80.4751C80.3817 14.3896 80.3024 14.3616 80.2371 14.3056C80.1811 14.2402 80.1531 14.1609 80.1531 14.0676V13.5916C80.1531 13.4982 80.1811 13.4236 80.2371 13.3676C80.3024 13.3022 80.3817 13.2696 80.4751 13.2696H81.5671V10.9316C81.5671 10.8382 81.5951 10.7636 81.6511 10.7076C81.7164 10.6422 81.7957 10.6096 81.8891 10.6096H82.5471C82.6404 10.6096 82.7151 10.6422 82.7711 10.7076C82.8364 10.7636 82.8691 10.8382 82.8691 10.9316V13.2696H84.6051C84.6984 13.2696 84.7731 13.3022 84.8291 13.3676C84.8944 13.4236 84.9271 13.4982 84.9271 13.5916V14.0676C84.9271 14.1609 84.8944 14.2402 84.8291 14.3056C84.7731 14.3616 84.6984 14.3896 84.6051 14.3896H82.8691V17.9876C82.8691 18.4542 82.9484 18.8089 83.1071 19.0516C83.2657 19.2849 83.5271 19.4016 83.8911 19.4016H84.7451C84.8384 19.4016 84.9131 19.4342 84.9691 19.4996C85.0344 19.5556 85.0671 19.6302 85.0671 19.7236V20.2276C85.0671 20.3209 85.0344 20.4002 84.9691 20.4656C84.9131 20.5216 84.8384 20.5496 84.7451 20.5496H83.7791ZM92.8195 20.6896C91.7928 20.6896 90.9948 20.4002 90.4255 19.8216C89.8655 19.2429 89.5668 18.4729 89.5295 17.5116L89.5155 16.9096L89.5295 16.3076C89.5668 15.3556 89.8701 14.5902 90.4395 14.0116C91.0088 13.4236 91.8021 13.1296 92.8195 13.1296C93.8368 13.1296 94.6301 13.4236 95.1995 14.0116C95.7688 14.5902 96.0721 15.3556 96.1095 16.3076C96.1188 16.4102 96.1235 16.6109 96.1235 16.9096C96.1235 17.2082 96.1188 17.4089 96.1095 17.5116C96.0721 18.4729 95.7688 19.2429 95.1995 19.8216C94.6395 20.4002 93.8461 20.6896 92.8195 20.6896ZM92.8195 19.6116C93.4075 19.6116 93.8695 19.4249 94.2055 19.0516C94.5508 18.6782 94.7375 18.1416 94.7655 17.4416C94.7748 17.3482 94.7795 17.1709 94.7795 16.9096C94.7795 16.6482 94.7748 16.4709 94.7655 16.3776C94.7375 15.6776 94.5508 15.1409 94.2055 14.7676C93.8695 14.3942 93.4075 14.2076 92.8195 14.2076C92.2315 14.2076 91.7648 14.3942 91.4195 14.7676C91.0741 15.1409 90.8921 15.6776 90.8735 16.3776L90.8595 16.9096L90.8735 17.4416C90.8921 18.1416 91.0741 18.6782 91.4195 19.0516C91.7648 19.4249 92.2315 19.6116 92.8195 19.6116ZM98.8445 20.5496C98.7512 20.5496 98.6718 20.5216 98.6065 20.4656C98.5505 20.4002 98.5225 20.3209 98.5225 20.2276V14.3896H97.3325C97.2392 14.3896 97.1598 14.3616 97.0945 14.3056C97.0385 14.2402 97.0105 14.1609 97.0105 14.0676V13.5916C97.0105 13.4982 97.0385 13.4236 97.0945 13.3676C97.1598 13.3022 97.2392 13.2696 97.3325 13.2696H98.5225V12.5696C98.5225 10.9829 99.3252 10.1896 100.93 10.1896H101.77C101.864 10.1896 101.938 10.2222 101.994 10.2876C102.06 10.3436 102.092 10.4182 102.092 10.5116V10.9876C102.092 11.0809 102.06 11.1602 101.994 11.2256C101.938 11.2816 101.864 11.3096 101.77 11.3096H100.958C100.538 11.3096 100.244 11.4216 100.076 11.6456C99.9085 11.8602 99.8245 12.1916 99.8245 12.6396V13.2696H101.63C101.724 13.2696 101.798 13.3022 101.854 13.3676C101.92 13.4236 101.952 13.4982 101.952 13.5916V14.0676C101.952 14.1609 101.92 14.2402 101.854 14.3056C101.798 14.3616 101.724 14.3896 101.63 14.3896H99.8245V20.2276C99.8245 20.3209 99.7918 20.4002 99.7265 20.4656C99.6705 20.5216 99.5958 20.5496 99.5025 20.5496H98.8445ZM110.008 20.6896C108.758 20.6896 107.806 20.3536 107.152 19.6816C106.508 19.0096 106.163 18.0809 106.116 16.8956C106.107 16.6436 106.102 16.2329 106.102 15.6636C106.102 15.0849 106.107 14.6649 106.116 14.4036C106.163 13.2276 106.513 12.3036 107.166 11.6316C107.82 10.9502 108.767 10.6096 110.008 10.6096C110.839 10.6096 111.544 10.7589 112.122 11.0576C112.701 11.3469 113.14 11.7296 113.438 12.2056C113.737 12.6816 113.9 13.1902 113.928 13.7316V13.7596C113.928 13.8342 113.896 13.8996 113.83 13.9556C113.774 14.0022 113.709 14.0256 113.634 14.0256H112.864C112.678 14.0256 112.561 13.9182 112.514 13.7036C112.356 13.0036 112.071 12.5136 111.66 12.2336C111.25 11.9442 110.699 11.7996 110.008 11.7996C108.403 11.7996 107.572 12.6909 107.516 14.4736C107.507 14.7256 107.502 15.1129 107.502 15.6356C107.502 16.1582 107.507 16.5549 107.516 16.8256C107.572 18.6082 108.403 19.4996 110.008 19.4996C110.699 19.4996 111.25 19.3596 111.66 19.0796C112.08 18.7902 112.365 18.2956 112.514 17.5956C112.542 17.4742 112.584 17.3902 112.64 17.3436C112.696 17.2969 112.771 17.2736 112.864 17.2736H113.634C113.718 17.2736 113.788 17.3016 113.844 17.3576C113.91 17.4042 113.938 17.4696 113.928 17.5536C113.9 18.1042 113.737 18.6176 113.438 19.0936C113.14 19.5696 112.701 19.9569 112.122 20.2556C111.544 20.5449 110.839 20.6896 110.008 20.6896ZM118.605 20.6896C117.578 20.6896 116.78 20.4002 116.211 19.8216C115.651 19.2429 115.352 18.4729 115.315 17.5116L115.301 16.9096L115.315 16.3076C115.352 15.3556 115.655 14.5902 116.225 14.0116C116.794 13.4236 117.587 13.1296 118.605 13.1296C119.622 13.1296 120.415 13.4236 120.985 14.0116C121.554 14.5902 121.857 15.3556 121.895 16.3076C121.904 16.4102 121.909 16.6109 121.909 16.9096C121.909 17.2082 121.904 17.4089 121.895 17.5116C121.857 18.4729 121.554 19.2429 120.985 19.8216C120.425 20.4002 119.631 20.6896 118.605 20.6896ZM118.605 19.6116C119.193 19.6116 119.655 19.4249 119.991 19.0516C120.336 18.6782 120.523 18.1416 120.551 17.4416C120.56 17.3482 120.565 17.1709 120.565 16.9096C120.565 16.6482 120.56 16.4709 120.551 16.3776C120.523 15.6776 120.336 15.1409 119.991 14.7676C119.655 14.3942 119.193 14.2076 118.605 14.2076C118.017 14.2076 117.55 14.3942 117.205 14.7676C116.859 15.1409 116.677 15.6776 116.659 16.3776L116.645 16.9096L116.659 17.4416C116.677 18.1416 116.859 18.6782 117.205 19.0516C117.55 19.4249 118.017 19.6116 118.605 19.6116ZM124.63 20.5496C124.536 20.5496 124.457 20.5216 124.392 20.4656C124.336 20.4002 124.308 20.3209 124.308 20.2276V14.3896H123.118C123.024 14.3896 122.945 14.3616 122.88 14.3056C122.824 14.2402 122.796 14.1609 122.796 14.0676V13.5916C122.796 13.4982 122.824 13.4236 122.88 13.3676C122.945 13.3022 123.024 13.2696 123.118 13.2696H124.308V12.5696C124.308 10.9829 125.11 10.1896 126.716 10.1896H127.556C127.649 10.1896 127.724 10.2222 127.78 10.2876C127.845 10.3436 127.878 10.4182 127.878 10.5116V10.9876C127.878 11.0809 127.845 11.1602 127.78 11.2256C127.724 11.2816 127.649 11.3096 127.556 11.3096H126.744C126.324 11.3096 126.03 11.4216 125.862 11.6456C125.694 11.8602 125.61 12.1916 125.61 12.6396V13.2696H128.606V12.5696C128.606 11.8042 128.792 11.2162 129.166 10.8056C129.548 10.3949 130.16 10.1896 131 10.1896H131.84C131.933 10.1896 132.008 10.2222 132.064 10.2876C132.129 10.3436 132.162 10.4182 132.162 10.5116V10.9876C132.162 11.0809 132.129 11.1602 132.064 11.2256C132.008 11.2816 131.933 11.3096 131.84 11.3096H131.042C130.612 11.3096 130.314 11.4216 130.146 11.6456C129.978 11.8602 129.894 12.1916 129.894 12.6396V13.2696H131.7C131.793 13.2696 131.868 13.3022 131.924 13.3676C131.989 13.4236 132.022 13.4982 132.022 13.5916V14.0676C132.022 14.1609 131.989 14.2402 131.924 14.3056C131.868 14.3616 131.793 14.3896 131.7 14.3896H129.894V20.2276C129.894 20.3209 129.861 20.4002 129.796 20.4656C129.74 20.5216 129.665 20.5496 129.572 20.5496H128.928C128.834 20.5496 128.755 20.5216 128.69 20.4656C128.634 20.4002 128.606 20.3209 128.606 20.2276V14.3896H125.61V20.2276C125.61 20.3209 125.577 20.4002 125.512 20.4656C125.456 20.5216 125.381 20.5496 125.288 20.5496H124.63ZM136.035 20.6896C135.073 20.6896 134.303 20.3956 133.725 19.8076C133.155 19.2102 132.843 18.3982 132.787 17.3716L132.773 16.8956L132.787 16.4336C132.852 15.4256 133.169 14.6229 133.739 14.0256C134.317 13.4282 135.078 13.1296 136.021 13.1296C137.057 13.1296 137.859 13.4609 138.429 14.1236C138.998 14.7769 139.283 15.6636 139.283 16.7836V17.0216C139.283 17.1149 139.25 17.1942 139.185 17.2596C139.129 17.3156 139.054 17.3436 138.961 17.3436H134.117V17.4696C134.145 18.0762 134.327 18.5942 134.663 19.0236C135.008 19.4436 135.461 19.6536 136.021 19.6536C136.45 19.6536 136.8 19.5696 137.071 19.4016C137.351 19.2242 137.556 19.0422 137.687 18.8556C137.771 18.7436 137.831 18.6782 137.869 18.6596C137.915 18.6316 137.995 18.6176 138.107 18.6176H138.793C138.877 18.6176 138.947 18.6409 139.003 18.6876C139.059 18.7342 139.087 18.7996 139.087 18.8836C139.087 19.0889 138.956 19.3362 138.695 19.6256C138.443 19.9149 138.083 20.1669 137.617 20.3816C137.159 20.5869 136.632 20.6896 136.035 20.6896ZM137.953 16.3776V16.3356C137.953 15.6916 137.775 15.1689 137.421 14.7676C137.075 14.3569 136.609 14.1516 136.021 14.1516C135.433 14.1516 134.966 14.3569 134.621 14.7676C134.285 15.1689 134.117 15.6916 134.117 16.3356V16.3776H137.953ZM143.869 20.6896C142.907 20.6896 142.137 20.3956 141.559 19.8076C140.989 19.2102 140.677 18.3982 140.621 17.3716L140.607 16.8956L140.621 16.4336C140.686 15.4256 141.003 14.6229 141.573 14.0256C142.151 13.4282 142.912 13.1296 143.855 13.1296C144.891 13.1296 145.693 13.4609 146.263 14.1236C146.832 14.7769 147.117 15.6636 147.117 16.7836V17.0216C147.117 17.1149 147.084 17.1942 147.019 17.2596C146.963 17.3156 146.888 17.3436 146.795 17.3436H141.951V17.4696C141.979 18.0762 142.161 18.5942 142.497 19.0236C142.842 19.4436 143.295 19.6536 143.855 19.6536C144.284 19.6536 144.634 19.5696 144.905 19.4016C145.185 19.2242 145.39 19.0422 145.521 18.8556C145.605 18.7436 145.665 18.6782 145.703 18.6596C145.749 18.6316 145.829 18.6176 145.941 18.6176H146.627C146.711 18.6176 146.781 18.6409 146.837 18.6876C146.893 18.7342 146.921 18.7996 146.921 18.8836C146.921 19.0889 146.79 19.3362 146.529 19.6256C146.277 19.9149 145.917 20.1669 145.451 20.3816C144.993 20.5869 144.466 20.6896 143.869 20.6896ZM145.787 16.3776V16.3356C145.787 15.6916 145.609 15.1689 145.255 14.7676C144.909 14.3569 144.443 14.1516 143.855 14.1516C143.267 14.1516 142.8 14.3569 142.455 14.7676C142.119 15.1689 141.951 15.6916 141.951 16.3356V16.3776H145.787Z" fill="#4F5665"/>
<path d="M11.3961 20.2796C11.2648 20.2798 11.1348 20.2542 11.0135 20.2041C10.8921 20.154 10.7819 20.0804 10.6891 19.9876L6.44708 15.7446C6.35151 15.6524 6.27525 15.5421 6.22276 15.4201C6.17026 15.2982 6.14259 15.167 6.14134 15.0342C6.14009 14.9014 6.1653 14.7697 6.2155 14.6468C6.26569 14.5239 6.33986 14.4122 6.43369 14.3182C6.52752 14.2242 6.63911 14.1499 6.76197 14.0995C6.88483 14.0492 7.01649 14.0238 7.14927 14.0248C7.28205 14.0259 7.41329 14.0534 7.53533 14.1057C7.65737 14.158 7.76777 14.2341 7.86008 14.3296L11.3951 17.8646L17.7601 11.5016C17.9476 11.3139 18.202 11.2085 18.4672 11.2084C18.7325 11.2083 18.9869 11.3136 19.1746 11.5011C19.3622 11.6886 19.4677 11.943 19.4678 12.2082C19.4679 12.4735 19.3626 12.7279 19.1751 12.9156L12.1031 19.9876C12.0103 20.0804 11.9 20.154 11.7787 20.2041C11.6574 20.2542 11.5273 20.2798 11.3961 20.2796Z" fill="#2FAB73"/>
</svg>
