<svg width="178" height="46" viewBox="0 0 178 46" fill="none" xmlns="http://www.w3.org/2000/svg">
<rect x="1.06177" y="1.54956" width="175.876" height="43" rx="21.5" stroke="#FFBA33" stroke-width="2"/>
<path d="M52.6962 29.16C51.1922 29.16 50.0082 28.792 49.1442 28.056C48.2802 27.32 47.8216 26.2373 47.7682 24.808C47.7576 24.4987 47.7522 24.04 47.7522 23.432C47.7522 22.8133 47.7576 22.3493 47.7682 22.04C47.8216 20.632 48.2856 19.5493 49.1602 18.792C50.0456 18.024 51.2242 17.64 52.6962 17.64C54.1682 17.64 55.3469 18.024 56.2322 18.792C57.1176 19.5493 57.5816 20.632 57.6242 22.04C57.6456 22.6587 57.6562 23.1227 57.6562 23.432C57.6562 23.7307 57.6456 24.1893 57.6242 24.808C57.5709 26.2373 57.1122 27.32 56.2482 28.056C55.3842 28.792 54.2002 29.16 52.6962 29.16ZM52.6962 26.856C53.2829 26.856 53.7469 26.68 54.0882 26.328C54.4402 25.976 54.6269 25.4373 54.6482 24.712C54.6696 24.0933 54.6802 23.656 54.6802 23.4C54.6802 23.1227 54.6696 22.6853 54.6482 22.088C54.6269 21.3627 54.4402 20.824 54.0882 20.472C53.7362 20.12 53.2722 19.944 52.6962 19.944C52.1202 19.944 51.6562 20.12 51.3042 20.472C50.9629 20.824 50.7762 21.3627 50.7442 22.088C50.7336 22.3867 50.7282 22.824 50.7282 23.4C50.7282 23.9653 50.7336 24.4027 50.7442 24.712C50.7762 25.4373 50.9629 25.976 51.3042 26.328C51.6456 26.68 52.1096 26.856 52.6962 26.856ZM59.7349 29C59.6175 29 59.5215 28.9627 59.4469 28.888C59.3722 28.8133 59.3349 28.7173 59.3349 28.6V21.08C59.3349 20.9627 59.3722 20.8667 59.4469 20.792C59.5215 20.7173 59.6175 20.68 59.7349 20.68H61.5749C61.6922 20.68 61.7882 20.7227 61.8629 20.808C61.9482 20.8827 61.9909 20.9733 61.9909 21.08V21.72C62.5775 21.0267 63.3669 20.68 64.3589 20.68H65.0629C65.1802 20.68 65.2762 20.7173 65.3509 20.792C65.4255 20.8667 65.4629 20.9627 65.4629 21.08V22.728C65.4629 22.8347 65.4255 22.9307 65.3509 23.016C65.2762 23.0907 65.1802 23.128 65.0629 23.128H63.5109C63.0735 23.128 62.7322 23.2507 62.4869 23.496C62.2522 23.7307 62.1349 24.0667 62.1349 24.504V28.6C62.1349 28.7173 62.0922 28.8133 62.0069 28.888C61.9322 28.9627 61.8362 29 61.7189 29H59.7349ZM69.6264 29.16C68.581 29.16 67.765 28.8347 67.1784 28.184C66.6024 27.5227 66.2877 26.5947 66.2344 25.4L66.2184 24.84L66.2344 24.264C66.277 23.112 66.5917 22.2 67.1784 21.528C67.7757 20.856 68.5917 20.52 69.6264 20.52C70.597 20.52 71.381 20.8347 71.9784 21.464V18.04C71.9784 17.9227 72.0157 17.8267 72.0904 17.752C72.165 17.6773 72.261 17.64 72.3784 17.64H74.3304C74.4477 17.64 74.5437 17.6773 74.6184 17.752C74.693 17.8267 74.7304 17.9227 74.7304 18.04V28.6C74.7304 28.7067 74.693 28.8027 74.6184 28.888C74.5437 28.9627 74.4477 29 74.3304 29H72.5224C72.4157 29 72.3197 28.9627 72.2344 28.888C72.1597 28.8027 72.1224 28.7067 72.1224 28.6V28.088C71.5357 28.8027 70.7037 29.16 69.6264 29.16ZM70.5064 27.016C70.9864 27.016 71.3437 26.8667 71.5784 26.568C71.813 26.2587 71.9464 25.864 71.9784 25.384C71.989 25.2453 71.9944 25.0427 71.9944 24.776C71.9944 24.52 71.989 24.3227 71.9784 24.184C71.957 23.7467 71.8237 23.384 71.5784 23.096C71.333 22.808 70.9757 22.664 70.5064 22.664C70.005 22.664 69.6424 22.8133 69.4184 23.112C69.205 23.4107 69.0824 23.8213 69.0504 24.344C69.0397 24.4507 69.0344 24.616 69.0344 24.84C69.0344 25.064 69.0397 25.2293 69.0504 25.336C69.0824 25.8587 69.205 26.2693 69.4184 26.568C69.6424 26.8667 70.005 27.016 70.5064 27.016ZM80.4561 29.16C79.1761 29.16 78.1681 28.8133 77.4321 28.12C76.6961 27.4267 76.3121 26.4187 76.2801 25.096V24.536C76.3228 23.2773 76.7121 22.296 77.4481 21.592C78.1948 20.8773 79.1921 20.52 80.4401 20.52C81.3468 20.52 82.1095 20.7067 82.7281 21.08C83.3575 21.4427 83.8268 21.944 84.1361 22.584C84.4561 23.224 84.6161 23.96 84.6161 24.792V25.176C84.6161 25.2827 84.5788 25.3787 84.5041 25.464C84.4295 25.5387 84.3335 25.576 84.2161 25.576H79.0961V25.688C79.1175 26.1893 79.2401 26.5947 79.4641 26.904C79.6881 27.2133 80.0135 27.368 80.4401 27.368C80.7068 27.368 80.9255 27.3147 81.0961 27.208C81.2668 27.0907 81.4215 26.952 81.5601 26.792C81.6561 26.6747 81.7308 26.6053 81.7841 26.584C81.8481 26.552 81.9441 26.536 82.0721 26.536H84.0561C84.1521 26.536 84.2321 26.568 84.2961 26.632C84.3708 26.6853 84.4081 26.76 84.4081 26.856C84.4081 27.1333 84.2481 27.4533 83.9281 27.816C83.6188 28.1787 83.1655 28.4933 82.5681 28.76C81.9708 29.0267 81.2668 29.16 80.4561 29.16ZM81.8001 23.992V23.96C81.8001 23.4373 81.6775 23.0267 81.4321 22.728C81.1975 22.4187 80.8668 22.264 80.4401 22.264C80.0241 22.264 79.6935 22.4187 79.4481 22.728C79.2135 23.0267 79.0961 23.4373 79.0961 23.96V23.992H81.8001ZM86.5161 29C86.3988 29 86.3028 28.9627 86.2281 28.888C86.1535 28.8133 86.1161 28.7173 86.1161 28.6V21.08C86.1161 20.9627 86.1535 20.8667 86.2281 20.792C86.3028 20.7173 86.3988 20.68 86.5161 20.68H88.3561C88.4735 20.68 88.5695 20.7227 88.6441 20.808C88.7295 20.8827 88.7721 20.9733 88.7721 21.08V21.72C89.3588 21.0267 90.1481 20.68 91.1401 20.68H91.8441C91.9615 20.68 92.0575 20.7173 92.1321 20.792C92.2068 20.8667 92.2441 20.9627 92.2441 21.08V22.728C92.2441 22.8347 92.2068 22.9307 92.1321 23.016C92.0575 23.0907 91.9615 23.128 91.8441 23.128H90.2921C89.8548 23.128 89.5135 23.2507 89.2681 23.496C89.0335 23.7307 88.9161 24.0667 88.9161 24.504V28.6C88.9161 28.7173 88.8735 28.8133 88.7881 28.888C88.7135 28.9627 88.6175 29 88.5001 29H86.5161ZM97.0515 29C96.9448 29 96.8488 28.9627 96.7635 28.888C96.6888 28.8027 96.6515 28.7067 96.6515 28.6V18.2C96.6515 18.0827 96.6888 17.9867 96.7635 17.912C96.8488 17.8373 96.9448 17.8 97.0515 17.8H98.7475C99.0142 17.8 99.1955 17.9013 99.2915 18.104L103.195 24.248V18.2C103.195 18.0827 103.233 17.9867 103.307 17.912C103.393 17.8373 103.489 17.8 103.595 17.8H105.515C105.633 17.8 105.729 17.8373 105.803 17.912C105.878 17.9867 105.915 18.0827 105.915 18.2V28.584C105.915 28.7013 105.878 28.8027 105.803 28.888C105.729 28.9627 105.633 29 105.515 29H103.803C103.569 29 103.393 28.8987 103.275 28.696L99.3715 22.776V28.6C99.3715 28.7067 99.3342 28.8027 99.2595 28.888C99.1848 28.9627 99.0888 29 98.9715 29H97.0515ZM111.911 29.16C110.589 29.16 109.57 28.8453 108.855 28.216C108.141 27.5867 107.751 26.7013 107.687 25.56C107.677 25.4213 107.671 25.1813 107.671 24.84C107.671 24.4987 107.677 24.2587 107.687 24.12C107.751 22.9893 108.151 22.1093 108.887 21.48C109.623 20.84 110.631 20.52 111.911 20.52C113.202 20.52 114.215 20.84 114.951 21.48C115.687 22.1093 116.087 22.9893 116.151 24.12C116.162 24.2587 116.167 24.4987 116.167 24.84C116.167 25.1813 116.162 25.4213 116.151 25.56C116.087 26.7013 115.698 27.5867 114.983 28.216C114.269 28.8453 113.245 29.16 111.911 29.16ZM111.911 27.208C112.381 27.208 112.727 27.0693 112.951 26.792C113.175 26.504 113.303 26.0667 113.335 25.48C113.346 25.3733 113.351 25.16 113.351 24.84C113.351 24.52 113.346 24.3067 113.335 24.2C113.303 23.624 113.17 23.192 112.935 22.904C112.711 22.616 112.37 22.472 111.911 22.472C111.026 22.472 110.557 23.048 110.503 24.2L110.487 24.84L110.503 25.48C110.525 26.0667 110.647 26.504 110.871 26.792C111.106 27.0693 111.453 27.208 111.911 27.208ZM119.827 29C119.677 29 119.56 28.968 119.475 28.904C119.4 28.8293 119.341 28.728 119.299 28.6L116.995 21.192L116.963 21.032C116.963 20.936 117 20.856 117.075 20.792C117.149 20.7173 117.235 20.68 117.331 20.68H118.979C119.107 20.68 119.213 20.7173 119.299 20.792C119.384 20.856 119.437 20.9307 119.459 21.016L120.803 25.592L122.243 21.032C122.264 20.9467 122.317 20.8667 122.403 20.792C122.488 20.7173 122.6 20.68 122.739 20.68H123.795C123.933 20.68 124.045 20.7173 124.131 20.792C124.216 20.8667 124.269 20.9467 124.291 21.032L125.731 25.592L127.075 21.016C127.096 20.9307 127.149 20.856 127.235 20.792C127.32 20.7173 127.427 20.68 127.555 20.68H129.203C129.299 20.68 129.384 20.7173 129.459 20.792C129.533 20.856 129.571 20.936 129.571 21.032L129.539 21.192L127.235 28.6C127.192 28.728 127.128 28.8293 127.043 28.904C126.968 28.968 126.856 29 126.707 29H125.267C124.989 29 124.813 28.8667 124.739 28.6L123.267 24.216L121.795 28.6C121.72 28.8667 121.544 29 121.267 29H119.827Z" fill="#6A4029"/>
</svg>
