<svg width="50" height="66" viewBox="0 0 50 66" fill="none" xmlns="http://www.w3.org/2000/svg">
<path d="M6.74 57.2493C5.63333 57.2493 4.67333 57.076 3.86 56.7293C3.06 56.3826 2.44667 55.9293 2.02 55.3693C1.59333 54.796 1.36667 54.1826 1.34 53.5293C1.34 53.4226 1.38 53.3293 1.46 53.2493C1.55333 53.156 1.66 53.1093 1.78 53.1093H2.8C3.05333 53.1093 3.22667 53.2426 3.32 53.5093C3.44 54.0693 3.78 54.5493 4.34 54.9493C4.91333 55.3493 5.71333 55.5493 6.74 55.5493C7.84667 55.5493 8.68 55.356 9.24 54.9693C9.8 54.5693 10.08 54.016 10.08 53.3093C10.08 52.856 9.94 52.4893 9.66 52.2093C9.39333 51.9293 8.99333 51.6826 8.46 51.4693C7.92667 51.256 7.12667 50.9893 6.06 50.6693C5.02 50.376 4.19333 50.0626 3.58 49.7293C2.96667 49.396 2.50667 48.9826 2.2 48.4893C1.89333 47.996 1.74 47.376 1.74 46.6293C1.74 45.9093 1.93333 45.2626 2.32 44.6893C2.72 44.116 3.28667 43.6693 4.02 43.3493C4.75333 43.016 5.62667 42.8493 6.64 42.8493C7.68 42.8493 8.57333 43.036 9.32 43.4093C10.0667 43.7693 10.6333 44.2293 11.02 44.7893C11.4067 45.3493 11.6133 45.9093 11.64 46.4693C11.64 46.576 11.6 46.6693 11.52 46.7493C11.4533 46.8293 11.3533 46.8693 11.22 46.8693H10.16C9.88 46.8693 9.70667 46.7426 9.64 46.4893C9.56 45.9293 9.24667 45.4693 8.7 45.1093C8.15333 44.736 7.46667 44.5493 6.64 44.5493C5.73333 44.5493 5.02 44.7226 4.5 45.0693C3.98 45.416 3.72 45.9293 3.72 46.6093C3.72 47.0626 3.84 47.436 4.08 47.7293C4.33333 48.0226 4.71333 48.2826 5.22 48.5093C5.72667 48.7226 6.46667 48.9693 7.44 49.2493C8.57333 49.556 9.46667 49.876 10.12 50.2093C10.7733 50.5293 11.26 50.936 11.58 51.4293C11.9 51.9093 12.06 52.5226 12.06 53.2693C12.06 54.5093 11.58 55.4826 10.62 56.1893C9.66 56.896 8.36667 57.2493 6.74 57.2493ZM18.4814 57.0493C16.3747 57.0493 15.3214 55.876 15.3214 53.5293V48.2493H13.7614C13.6281 48.2493 13.5147 48.2093 13.4214 48.1293C13.3414 48.036 13.3014 47.9226 13.3014 47.7893V47.1093C13.3014 46.976 13.3414 46.8693 13.4214 46.7893C13.5147 46.696 13.6281 46.6493 13.7614 46.6493H15.3214V43.3093C15.3214 43.176 15.3614 43.0693 15.4414 42.9893C15.5347 42.896 15.6481 42.8493 15.7814 42.8493H16.7214C16.8547 42.8493 16.9614 42.896 17.0414 42.9893C17.1347 43.0693 17.1814 43.176 17.1814 43.3093V46.6493H19.6614C19.7947 46.6493 19.9014 46.696 19.9814 46.7893C20.0747 46.8693 20.1214 46.976 20.1214 47.1093V47.7893C20.1214 47.9226 20.0747 48.036 19.9814 48.1293C19.9014 48.2093 19.7947 48.2493 19.6614 48.2493H17.1814V53.3893C17.1814 54.056 17.2947 54.5626 17.5214 54.9093C17.7481 55.2426 18.1214 55.4093 18.6414 55.4093H19.8614C19.9947 55.4093 20.1014 55.456 20.1814 55.5493C20.2747 55.6293 20.3214 55.736 20.3214 55.8693V56.5893C20.3214 56.7226 20.2747 56.836 20.1814 56.9293C20.1014 57.0093 19.9947 57.0493 19.8614 57.0493H18.4814ZM25.1339 57.2493C24.4806 57.2493 23.8739 57.116 23.3139 56.8493C22.7539 56.5826 22.3072 56.2226 21.9739 55.7693C21.6539 55.3026 21.4939 54.7893 21.4939 54.2293C21.4939 53.3493 21.8539 52.6293 22.5739 52.0693C23.3072 51.496 24.2939 51.1226 25.5339 50.9493L28.5139 50.5293V49.9493C28.5139 48.5893 27.7339 47.9093 26.1739 47.9093C25.5872 47.9093 25.1072 48.036 24.7339 48.2893C24.3606 48.5293 24.0806 48.816 23.8939 49.1493C23.8539 49.2693 23.8006 49.356 23.7339 49.4093C23.6806 49.4626 23.6006 49.4893 23.4939 49.4893H22.6339C22.5139 49.4893 22.4072 49.4493 22.3139 49.3693C22.2339 49.276 22.1939 49.1693 22.1939 49.0493C22.2072 48.7293 22.3539 48.3693 22.6339 47.9693C22.9272 47.556 23.3739 47.2026 23.9739 46.9093C24.5739 46.6026 25.3139 46.4493 26.1939 46.4493C27.6872 46.4493 28.7606 46.8026 29.4139 47.5093C30.0672 48.2026 30.3939 49.0693 30.3939 50.1093V56.5893C30.3939 56.7226 30.3472 56.836 30.2539 56.9293C30.1739 57.0093 30.0672 57.0493 29.9339 57.0493H29.0139C28.8806 57.0493 28.7672 57.0093 28.6739 56.9293C28.5939 56.836 28.5539 56.7226 28.5539 56.5893V55.7293C28.2606 56.156 27.8339 56.516 27.2739 56.8093C26.7139 57.1026 26.0006 57.2493 25.1339 57.2493ZM25.5539 55.7493C26.4206 55.7493 27.1272 55.4693 27.6739 54.9093C28.2339 54.336 28.5139 53.516 28.5139 52.4493V51.8893L26.1939 52.2293C25.2472 52.3626 24.5339 52.5893 24.0539 52.9093C23.5739 53.216 23.3339 53.6093 23.3339 54.0893C23.3339 54.6226 23.5539 55.036 23.9939 55.3293C24.4339 55.6093 24.9539 55.7493 25.5539 55.7493ZM34.6714 57.0493C34.5381 57.0493 34.4247 57.0093 34.3314 56.9293C34.2514 56.836 34.2114 56.7226 34.2114 56.5893V48.2493H32.5114C32.3781 48.2493 32.2647 48.2093 32.1714 48.1293C32.0914 48.036 32.0514 47.9226 32.0514 47.7893V47.1093C32.0514 46.976 32.0914 46.8693 32.1714 46.7893C32.2647 46.696 32.3781 46.6493 32.5114 46.6493H34.2114V45.6493C34.2114 43.3826 35.3581 42.2493 37.6514 42.2493H38.8514C38.9847 42.2493 39.0914 42.296 39.1714 42.3893C39.2647 42.4693 39.3114 42.576 39.3114 42.7093V43.3893C39.3114 43.5226 39.2647 43.636 39.1714 43.7293C39.0914 43.8093 38.9847 43.8493 38.8514 43.8493H37.6914C37.0914 43.8493 36.6714 44.0093 36.4314 44.3293C36.1914 44.636 36.0714 45.1093 36.0714 45.7493V46.6493H40.3514V45.6493C40.3514 44.556 40.6181 43.716 41.1514 43.1293C41.6981 42.5426 42.5714 42.2493 43.7714 42.2493H44.9714C45.1047 42.2493 45.2114 42.296 45.2914 42.3893C45.3847 42.4693 45.4314 42.576 45.4314 42.7093V43.3893C45.4314 43.5226 45.3847 43.636 45.2914 43.7293C45.2114 43.8093 45.1047 43.8493 44.9714 43.8493H43.8314C43.2181 43.8493 42.7914 44.0093 42.5514 44.3293C42.3114 44.636 42.1914 45.1093 42.1914 45.7493V46.6493H44.7714C44.9047 46.6493 45.0114 46.696 45.0914 46.7893C45.1847 46.8693 45.2314 46.976 45.2314 47.1093V47.7893C45.2314 47.9226 45.1847 48.036 45.0914 48.1293C45.0114 48.2093 44.9047 48.2493 44.7714 48.2493H42.1914V56.5893C42.1914 56.7226 42.1447 56.836 42.0514 56.9293C41.9714 57.0093 41.8647 57.0493 41.7314 57.0493H40.8114C40.6781 57.0493 40.5647 57.0093 40.4714 56.9293C40.3914 56.836 40.3514 56.7226 40.3514 56.5893V48.2493H36.0714V56.5893C36.0714 56.7226 36.0247 56.836 35.9314 56.9293C35.8514 57.0093 35.7447 57.0493 35.6114 57.0493H34.6714Z" fill="#4F5665"/>
<path d="M4.8 24.0493C4.65 24.0493 4.525 23.9993 4.425 23.8993C4.325 23.7826 4.275 23.6493 4.275 23.4993C4.275 23.3826 4.30833 23.2743 4.375 23.1743L7.875 18.3993C7.65833 18.4493 7.43333 18.466 7.2 18.4493C6.18333 18.3826 5.21667 18.1076 4.3 17.6243C3.38333 17.1243 2.63333 16.441 2.05 15.5743C1.48333 14.691 1.2 13.691 1.2 12.5743C1.2 11.4743 1.475 10.4493 2.025 9.49932C2.59167 8.53265 3.41667 7.75765 4.5 7.17432C5.6 6.59098 6.91667 6.29932 8.45 6.29932C10 6.29932 11.3333 6.56598 12.45 7.09932C13.5667 7.63265 14.4083 8.36598 14.975 9.29932C15.5583 10.216 15.85 11.2493 15.85 12.3993C15.85 13.316 15.6583 14.1576 15.275 14.9243C14.9083 15.6743 14.35 16.5576 13.6 17.5743L13.15 18.1993L9.225 23.5493C8.99167 23.8826 8.69167 24.0493 8.325 24.0493H4.8ZM8.5 15.0493C9.23333 15.0493 9.83333 14.8243 10.3 14.3743C10.7833 13.9243 11.025 13.316 11.025 12.5493C11.025 11.7826 10.7833 11.1743 10.3 10.7243C9.81667 10.2743 9.21667 10.0493 8.5 10.0493C7.76667 10.0493 7.15833 10.2743 6.675 10.7243C6.20833 11.1743 5.975 11.7826 5.975 12.5493C5.975 13.316 6.20833 13.9243 6.675 14.3743C7.14167 14.8243 7.75 15.0493 8.5 15.0493ZM25.1871 24.2993C22.8871 24.2826 21.1371 23.6743 19.9371 22.4743C18.7371 21.2743 18.0788 19.691 17.9621 17.7243C17.9288 16.8243 17.9121 16.016 17.9121 15.2993C17.9121 14.566 17.9288 13.7326 17.9621 12.7993C18.0288 11.5493 18.3371 10.441 18.8871 9.47432C19.4538 8.49098 20.2621 7.71598 21.3121 7.14931C22.3788 6.58265 23.6704 6.29932 25.1871 6.29932C26.7038 6.29932 27.9954 6.58265 29.0621 7.14931C30.1288 7.71598 30.9371 8.49098 31.4871 9.47432C32.0538 10.441 32.3704 11.5493 32.4371 12.7993C32.4704 13.266 32.4871 14.0993 32.4871 15.2993C32.4871 16.466 32.4704 17.2743 32.4371 17.7243C32.3204 19.691 31.6621 21.2743 30.4621 22.4743C29.2621 23.6743 27.5038 24.2826 25.1871 24.2993ZM25.1871 20.5243C25.9704 20.5243 26.5538 20.2743 26.9371 19.7743C27.3204 19.2576 27.5288 18.5326 27.5621 17.5993C27.5954 17.116 27.6121 16.3326 27.6121 15.2493C27.6121 14.166 27.5954 13.3993 27.5621 12.9493C27.5288 12.0493 27.3204 11.341 26.9371 10.8243C26.5538 10.291 25.9704 10.0243 25.1871 10.0243C23.6871 10.0243 22.8954 10.9993 22.8121 12.9493C22.7954 13.3993 22.7871 14.166 22.7871 15.2493C22.7871 16.3326 22.7954 17.116 22.8121 17.5993C22.8954 19.5493 23.6871 20.5243 25.1871 20.5243ZM40.252 23.2243C40.0853 23.2243 39.9353 23.166 39.802 23.0493C39.6853 22.916 39.627 22.766 39.627 22.5993V18.0743H35.227C35.0603 18.0743 34.9103 18.016 34.777 17.8993C34.6603 17.766 34.602 17.616 34.602 17.4493V15.5243C34.602 15.341 34.6603 15.191 34.777 15.0743C34.8936 14.941 35.0436 14.8743 35.227 14.8743H39.627V10.4993C39.627 10.316 39.6853 10.166 39.802 10.0493C39.9353 9.93265 40.0853 9.87432 40.252 9.87432H42.402C42.5853 9.87432 42.7353 9.93265 42.852 10.0493C42.9853 10.166 43.052 10.316 43.052 10.4993V14.8743H47.402C47.5853 14.8743 47.7353 14.941 47.852 15.0743C47.9853 15.191 48.052 15.341 48.052 15.5243V17.4493C48.052 17.6326 47.9853 17.7826 47.852 17.8993C47.7353 18.016 47.5853 18.0743 47.402 18.0743H43.052V22.5993C43.052 22.7826 42.9853 22.9326 42.852 23.0493C42.7353 23.166 42.5853 23.2243 42.402 23.2243H40.252Z" fill="#0B132A"/>
</svg>
