<svg width="61" height="66" viewBox="0 0 61 66" fill="none" xmlns="http://www.w3.org/2000/svg">
<path d="M6.24 57.2493C5.13333 57.2493 4.17333 57.076 3.36 56.7293C2.56 56.3826 1.94667 55.9293 1.52 55.3693C1.09333 54.796 0.866667 54.1826 0.84 53.5293C0.84 53.4226 0.88 53.3293 0.96 53.2493C1.05333 53.156 1.16 53.1093 1.28 53.1093H2.3C2.55333 53.1093 2.72667 53.2426 2.82 53.5093C2.94 54.0693 3.28 54.5493 3.84 54.9493C4.41333 55.3493 5.21333 55.5493 6.24 55.5493C7.34667 55.5493 8.18 55.356 8.74 54.9693C9.3 54.5693 9.58 54.016 9.58 53.3093C9.58 52.856 9.44 52.4893 9.16 52.2093C8.89333 51.9293 8.49333 51.6826 7.96 51.4693C7.42667 51.256 6.62667 50.9893 5.56 50.6693C4.52 50.376 3.69333 50.0626 3.08 49.7293C2.46667 49.396 2.00667 48.9826 1.7 48.4893C1.39333 47.996 1.24 47.376 1.24 46.6293C1.24 45.9093 1.43333 45.2626 1.82 44.6893C2.22 44.116 2.78667 43.6693 3.52 43.3493C4.25333 43.016 5.12667 42.8493 6.14 42.8493C7.18 42.8493 8.07333 43.036 8.82 43.4093C9.56667 43.7693 10.1333 44.2293 10.52 44.7893C10.9067 45.3493 11.1133 45.9093 11.14 46.4693C11.14 46.576 11.1 46.6693 11.02 46.7493C10.9533 46.8293 10.8533 46.8693 10.72 46.8693H9.66C9.38 46.8693 9.20667 46.7426 9.14 46.4893C9.06 45.9293 8.74667 45.4693 8.2 45.1093C7.65333 44.736 6.96667 44.5493 6.14 44.5493C5.23333 44.5493 4.52 44.7226 4 45.0693C3.48 45.416 3.22 45.9293 3.22 46.6093C3.22 47.0626 3.34 47.436 3.58 47.7293C3.83333 48.0226 4.21333 48.2826 4.72 48.5093C5.22667 48.7226 5.96667 48.9693 6.94 49.2493C8.07333 49.556 8.96667 49.876 9.62 50.2093C10.2733 50.5293 10.76 50.936 11.08 51.4293C11.4 51.9093 11.56 52.5226 11.56 53.2693C11.56 54.5093 11.08 55.4826 10.12 56.1893C9.16 56.896 7.86667 57.2493 6.24 57.2493ZM17.9814 57.0493C15.8747 57.0493 14.8214 55.876 14.8214 53.5293V48.2493H13.2614C13.1281 48.2493 13.0147 48.2093 12.9214 48.1293C12.8414 48.036 12.8014 47.9226 12.8014 47.7893V47.1093C12.8014 46.976 12.8414 46.8693 12.9214 46.7893C13.0147 46.696 13.1281 46.6493 13.2614 46.6493H14.8214V43.3093C14.8214 43.176 14.8614 43.0693 14.9414 42.9893C15.0347 42.896 15.1481 42.8493 15.2814 42.8493H16.2214C16.3547 42.8493 16.4614 42.896 16.5414 42.9893C16.6347 43.0693 16.6814 43.176 16.6814 43.3093V46.6493H19.1614C19.2947 46.6493 19.4014 46.696 19.4814 46.7893C19.5747 46.8693 19.6214 46.976 19.6214 47.1093V47.7893C19.6214 47.9226 19.5747 48.036 19.4814 48.1293C19.4014 48.2093 19.2947 48.2493 19.1614 48.2493H16.6814V53.3893C16.6814 54.056 16.7947 54.5626 17.0214 54.9093C17.2481 55.2426 17.6214 55.4093 18.1414 55.4093H19.3614C19.4947 55.4093 19.6014 55.456 19.6814 55.5493C19.7747 55.6293 19.8214 55.736 19.8214 55.8693V56.5893C19.8214 56.7226 19.7747 56.836 19.6814 56.9293C19.6014 57.0093 19.4947 57.0493 19.3614 57.0493H17.9814ZM25.9939 57.2493C24.5272 57.2493 23.3872 56.836 22.5739 56.0093C21.7739 55.1826 21.3472 54.0826 21.2939 52.7093L21.2739 51.8493L21.2939 50.9893C21.3472 49.6293 21.7806 48.536 22.5939 47.7093C23.4072 46.8693 24.5406 46.4493 25.9939 46.4493C27.4472 46.4493 28.5806 46.8693 29.3939 47.7093C30.2072 48.536 30.6406 49.6293 30.6939 50.9893C30.7072 51.136 30.7139 51.4226 30.7139 51.8493C30.7139 52.276 30.7072 52.5626 30.6939 52.7093C30.6406 54.0826 30.2072 55.1826 29.3939 56.0093C28.5939 56.836 27.4606 57.2493 25.9939 57.2493ZM25.9939 55.7093C26.8339 55.7093 27.4939 55.4426 27.9739 54.9093C28.4672 54.376 28.7339 53.6093 28.7739 52.6093C28.7872 52.476 28.7939 52.2226 28.7939 51.8493C28.7939 51.476 28.7872 51.2226 28.7739 51.0893C28.7339 50.0893 28.4672 49.3226 27.9739 48.7893C27.4939 48.256 26.8339 47.9893 25.9939 47.9893C25.1539 47.9893 24.4872 48.256 23.9939 48.7893C23.5006 49.3226 23.2406 50.0893 23.2139 51.0893L23.1939 51.8493L23.2139 52.6093C23.2406 53.6093 23.5006 54.376 23.9939 54.9093C24.4872 55.4426 25.1539 55.7093 25.9939 55.7093ZM33.6783 57.0493C33.5449 57.0493 33.4316 57.0093 33.3383 56.9293C33.2583 56.836 33.2183 56.7226 33.2183 56.5893V47.1293C33.2183 46.996 33.2583 46.8826 33.3383 46.7893C33.4316 46.696 33.5449 46.6493 33.6783 46.6493H34.5983C34.7316 46.6493 34.8449 46.696 34.9383 46.7893C35.0316 46.8826 35.0783 46.996 35.0783 47.1293V48.0093C35.6249 47.1026 36.5583 46.6493 37.8783 46.6493H38.6583C38.7916 46.6493 38.8983 46.696 38.9783 46.7893C39.0716 46.8693 39.1183 46.976 39.1183 47.1093V47.9293C39.1183 48.0626 39.0716 48.1693 38.9783 48.2493C38.8983 48.3293 38.7916 48.3693 38.6583 48.3693H37.4583C36.7383 48.3693 36.1716 48.5826 35.7583 49.0093C35.3449 49.4226 35.1383 49.9893 35.1383 50.7093V56.5893C35.1383 56.7226 35.0916 56.836 34.9983 56.9293C34.9049 57.0093 34.7916 57.0493 34.6583 57.0493H33.6783ZM44.7806 57.2493C43.4073 57.2493 42.3073 56.8293 41.4806 55.9893C40.6673 55.136 40.2206 53.976 40.1406 52.5093L40.1206 51.8293L40.1406 51.1693C40.234 49.7293 40.6873 48.5826 41.5006 47.7293C42.3273 46.876 43.414 46.4493 44.7606 46.4493C46.2406 46.4493 47.3873 46.9226 48.2006 47.8693C49.014 48.8026 49.4206 50.0693 49.4206 51.6693V52.0093C49.4206 52.1426 49.374 52.256 49.2806 52.3493C49.2006 52.4293 49.094 52.4693 48.9606 52.4693H42.0406V52.6493C42.0806 53.516 42.3406 54.256 42.8206 54.8693C43.314 55.4693 43.9606 55.7693 44.7606 55.7693C45.374 55.7693 45.874 55.6493 46.2606 55.4093C46.6606 55.156 46.954 54.896 47.1406 54.6293C47.2606 54.4693 47.3473 54.376 47.4006 54.3493C47.4673 54.3093 47.5806 54.2893 47.7406 54.2893H48.7206C48.8406 54.2893 48.9406 54.3226 49.0206 54.3893C49.1006 54.456 49.1406 54.5493 49.1406 54.6693C49.1406 54.9626 48.954 55.316 48.5806 55.7293C48.2206 56.1426 47.7073 56.5026 47.0406 56.8093C46.3873 57.1026 45.634 57.2493 44.7806 57.2493ZM47.5206 51.0893V51.0293C47.5206 50.1093 47.2673 49.3626 46.7606 48.7893C46.2673 48.2026 45.6006 47.9093 44.7606 47.9093C43.9206 47.9093 43.254 48.2026 42.7606 48.7893C42.2806 49.3626 42.0406 50.1093 42.0406 51.0293V51.0893H47.5206ZM55.412 57.2493C54.4787 57.2493 53.692 57.1026 53.052 56.8093C52.4254 56.5026 51.952 56.156 51.632 55.7693C51.3254 55.3826 51.172 55.0626 51.172 54.8093C51.172 54.676 51.2187 54.576 51.312 54.5093C51.4187 54.4293 51.5254 54.3893 51.632 54.3893H52.532C52.6654 54.3893 52.7854 54.456 52.892 54.5893C53.212 54.9626 53.5587 55.256 53.932 55.4693C54.3054 55.6826 54.8054 55.7893 55.432 55.7893C56.1254 55.7893 56.6854 55.656 57.112 55.3893C57.552 55.1093 57.772 54.7293 57.772 54.2493C57.772 53.9293 57.6787 53.6693 57.492 53.4693C57.3187 53.256 57.012 53.076 56.572 52.9293C56.1454 52.7693 55.5054 52.596 54.652 52.4093C53.492 52.156 52.6654 51.7893 52.172 51.3093C51.692 50.8293 51.452 50.2093 51.452 49.4493C51.452 48.9426 51.5987 48.4626 51.892 48.0093C52.1987 47.5426 52.6387 47.1693 53.212 46.8893C53.7987 46.596 54.4987 46.4493 55.312 46.4493C56.1654 46.4493 56.892 46.5893 57.492 46.8693C58.092 47.1493 58.5387 47.4826 58.832 47.8693C59.1387 48.2426 59.292 48.556 59.292 48.8093C59.292 48.9293 59.2454 49.0293 59.152 49.1093C59.072 49.1893 58.972 49.2293 58.852 49.2293H58.012C57.852 49.2293 57.7187 49.1626 57.612 49.0293C57.3987 48.776 57.212 48.5826 57.052 48.4493C56.9054 48.3026 56.6854 48.176 56.392 48.0693C56.112 47.9626 55.752 47.9093 55.312 47.9093C54.672 47.9093 54.1787 48.0493 53.832 48.3293C53.4854 48.596 53.312 48.9493 53.312 49.3893C53.312 49.6693 53.3854 49.9093 53.532 50.1093C53.6787 50.296 53.9587 50.4693 54.372 50.6293C54.7987 50.7893 55.412 50.956 56.212 51.1293C57.4787 51.396 58.372 51.7826 58.892 52.2893C59.4254 52.7826 59.692 53.416 59.692 54.1893C59.692 54.7626 59.5254 55.2826 59.192 55.7493C58.8587 56.216 58.3654 56.5826 57.712 56.8493C57.072 57.116 56.3054 57.2493 55.412 57.2493Z" fill="#4F5665"/>
<path d="M8.175 24.2993C6.54167 24.2993 5.16667 24.0493 4.05 23.5493C2.95 23.0326 2.13333 22.3993 1.6 21.6493C1.08333 20.8993 0.808333 20.1493 0.775 19.3993C0.775 19.2493 0.825 19.1243 0.925 19.0243C1.04167 18.9243 1.175 18.8743 1.325 18.8743H4.775C4.975 18.8743 5.13333 18.916 5.25 18.9993C5.36667 19.066 5.475 19.1826 5.575 19.3493C5.89167 20.166 6.76667 20.5743 8.2 20.5743C9.01667 20.5743 9.65 20.3826 10.1 19.9993C10.55 19.616 10.775 19.0993 10.775 18.4493C10.775 17.1993 9.94167 16.5743 8.275 16.5743H5.475C5.29167 16.5743 5.13333 16.516 5 16.3993C4.88333 16.266 4.825 16.1076 4.825 15.9243V14.4493C4.825 14.066 4.96667 13.7826 5.25 13.5993L9.275 10.2993H2.375C2.20833 10.2993 2.05833 10.241 1.925 10.1243C1.80833 9.99098 1.75 9.84098 1.75 9.67432V7.19932C1.75 7.01598 1.80833 6.86598 1.925 6.74932C2.04167 6.61598 2.19167 6.54932 2.375 6.54932H14.025C14.2083 6.54932 14.3583 6.61598 14.475 6.74932C14.5917 6.86598 14.65 7.01598 14.65 7.19932V9.42432C14.65 9.77432 14.5167 10.0493 14.25 10.2493L10.55 13.6243L10.725 13.6743C12.225 13.891 13.4167 14.4076 14.3 15.2243C15.1833 16.041 15.625 17.216 15.625 18.7493C15.625 19.866 15.3 20.8493 14.65 21.6993C14.0167 22.5326 13.1333 23.1743 12 23.6243C10.8833 24.0743 9.60833 24.2993 8.175 24.2993ZM25.151 24.2993C22.851 24.2826 21.101 23.6743 19.901 22.4743C18.701 21.2743 18.0426 19.691 17.926 17.7243C17.8926 16.8243 17.876 16.016 17.876 15.2993C17.876 14.566 17.8926 13.7326 17.926 12.7993C17.9926 11.5493 18.301 10.441 18.851 9.47432C19.4176 8.49098 20.226 7.71598 21.276 7.14931C22.3426 6.58265 23.6343 6.29932 25.151 6.29932C26.6676 6.29932 27.9593 6.58265 29.026 7.14931C30.0926 7.71598 30.901 8.49098 31.451 9.47432C32.0176 10.441 32.3343 11.5493 32.401 12.7993C32.4343 13.266 32.451 14.0993 32.451 15.2993C32.451 16.466 32.4343 17.2743 32.401 17.7243C32.2843 19.691 31.626 21.2743 30.426 22.4743C29.226 23.6743 27.4676 24.2826 25.151 24.2993ZM25.151 20.5243C25.9343 20.5243 26.5176 20.2743 26.901 19.7743C27.2843 19.2576 27.4926 18.5326 27.526 17.5993C27.5593 17.116 27.576 16.3326 27.576 15.2493C27.576 14.166 27.5593 13.3993 27.526 12.9493C27.4926 12.0493 27.2843 11.341 26.901 10.8243C26.5176 10.291 25.9343 10.0243 25.151 10.0243C23.651 10.0243 22.8593 10.9993 22.776 12.9493C22.7593 13.3993 22.751 14.166 22.751 15.2493C22.751 16.3326 22.7593 17.116 22.776 17.5993C22.8593 19.5493 23.651 20.5243 25.151 20.5243ZM40.2158 23.2243C40.0492 23.2243 39.8992 23.166 39.7658 23.0493C39.6492 22.916 39.5908 22.766 39.5908 22.5993V18.0743H35.1908C35.0242 18.0743 34.8742 18.016 34.7408 17.8993C34.6242 17.766 34.5658 17.616 34.5658 17.4493V15.5243C34.5658 15.341 34.6242 15.191 34.7408 15.0743C34.8575 14.941 35.0075 14.8743 35.1908 14.8743H39.5908V10.4993C39.5908 10.316 39.6492 10.166 39.7658 10.0493C39.8992 9.93265 40.0492 9.87432 40.2158 9.87432H42.3658C42.5492 9.87432 42.6992 9.93265 42.8158 10.0493C42.9492 10.166 43.0158 10.316 43.0158 10.4993V14.8743H47.3658C47.5492 14.8743 47.6992 14.941 47.8158 15.0743C47.9492 15.191 48.0158 15.341 48.0158 15.5243V17.4493C48.0158 17.6326 47.9492 17.7826 47.8158 17.8993C47.6992 18.016 47.5492 18.0743 47.3658 18.0743H43.0158V22.5993C43.0158 22.7826 42.9492 22.9326 42.8158 23.0493C42.6992 23.166 42.5492 23.2243 42.3658 23.2243H40.2158Z" fill="#0B132A"/>
</svg>
